<svg width="15" height="15" viewBox="0 0 15 15" fill="none" xmlns="http://www.w3.org/2000/svg">
<g clip-path="url(#clip0_2252_5558)">
<path d="M2.79758 3.04545H12.1726C12.2821 3.0454 12.3915 3.05235 12.5001 3.06625C12.4633 2.80779 12.3745 2.55946 12.2391 2.33623C12.1037 2.11301 11.9245 1.91951 11.7124 1.76741C11.5002 1.61531 11.2594 1.50775 11.0045 1.45123C10.7496 1.3947 10.4859 1.39038 10.2293 1.43852L2.51926 2.75483H2.51047C2.02651 2.84738 1.59614 3.12119 1.30725 3.52036C1.74248 3.21078 2.26348 3.04476 2.79758 3.04545Z" fill="#A0AEC0"/>
<path d="M12.1726 3.74988H2.79761C2.30049 3.75042 1.82389 3.94814 1.47238 4.29965C1.12087 4.65116 0.92315 5.12776 0.922607 5.62488V11.2499C0.92315 11.747 1.12087 12.2236 1.47238 12.5751C1.82389 12.9266 2.30049 13.1243 2.79761 13.1249H12.1726C12.6697 13.1243 13.1463 12.9266 13.4978 12.5751C13.8493 12.2236 14.0471 11.747 14.0476 11.2499V5.62488C14.0471 5.12776 13.8493 4.65116 13.4978 4.29965C13.1463 3.94814 12.6697 3.75042 12.1726 3.74988ZM10.781 9.37488C10.5956 9.37488 10.4143 9.31989 10.2602 9.21688C10.106 9.11386 9.98582 8.96745 9.91487 8.79614C9.84391 8.62484 9.82534 8.43634 9.86152 8.25448C9.89769 8.07262 9.98698 7.90558 10.1181 7.77446C10.2492 7.64335 10.4162 7.55406 10.5981 7.51789C10.78 7.48172 10.9685 7.50028 11.1398 7.57124C11.3111 7.6422 11.4575 7.76236 11.5605 7.91653C11.6635 8.0707 11.7185 8.25196 11.7185 8.43738C11.7185 8.68602 11.6197 8.92447 11.4439 9.10029C11.2681 9.2761 11.0296 9.37488 10.781 9.37488Z" fill="#A0AEC0"/>
<path d="M0.937256 7.60092V4.68588C0.937256 4.05102 1.28882 2.98666 2.50903 2.7561C3.54468 2.56186 4.57007 2.56186 4.57007 2.56186C4.57007 2.56186 5.2439 3.03061 4.68726 3.03061C4.13061 3.03061 4.14526 3.74838 4.68726 3.74838C5.22925 3.74838 4.68726 4.43686 4.68726 4.43686L2.50464 6.91244L0.937256 7.60092Z" fill="#A0AEC0"/>
</g>
<defs>
<clipPath id="clip0_2252_5558">
<rect width="15" height="15" fill="white" transform="translate(-0.000244141)"/>
</clipPath>
</defs>
</svg>
