<svg width="15" height="16" viewBox="0 0 15 16" fill="none" xmlns="http://www.w3.org/2000/svg">
  <g clip-path="url(#clip0_2252_5562)">
    <path
      d="M7.66264 3.46754C7.61903 3.42581 7.56099 3.40253 7.50063 3.40253C7.44027 3.40253 7.38224 3.42581 7.33862 3.46754L1.94507 8.61998C1.92216 8.64189 1.90394 8.66822 1.8915 8.69738C1.87906 8.72653 1.87267 8.75791 1.87271 8.78961L1.87183 13.6253C1.87183 13.874 1.9706 14.1124 2.14641 14.2883C2.32223 14.4641 2.56069 14.5628 2.80933 14.5628H5.62475C5.74907 14.5628 5.8683 14.5135 5.95621 14.4256C6.04412 14.3376 6.0935 14.2184 6.0935 14.0941V10.1097C6.0935 10.0476 6.1182 9.98795 6.16215 9.944C6.2061 9.90004 6.26572 9.87535 6.32788 9.87535H8.67163C8.73379 9.87535 8.7934 9.90004 8.83736 9.944C8.88131 9.98795 8.906 10.0476 8.906 10.1097V14.0941C8.906 14.2184 8.95539 14.3376 9.0433 14.4256C9.1312 14.5135 9.25043 14.5628 9.37475 14.5628H12.189C12.4377 14.5628 12.6761 14.4641 12.8519 14.2883C13.0277 14.1124 13.1265 13.874 13.1265 13.6253V8.78961C13.1265 8.75791 13.1202 8.72653 13.1077 8.69738C13.0953 8.66822 13.0771 8.64189 13.0541 8.61998L7.66264 3.46754Z"
      fill="#A0AEC0" />
    <path
      d="M14.3823 7.65375L12.1909 5.55726V2.37592C12.1909 2.2516 12.1415 2.13237 12.0536 2.04446C11.9656 1.95655 11.8464 1.90717 11.7221 1.90717H10.3159C10.1915 1.90717 10.0723 1.95655 9.9844 2.04446C9.89649 2.13237 9.8471 2.2516 9.8471 2.37592V3.31342L8.15023 1.69095C7.99144 1.53041 7.75531 1.43842 7.50013 1.43842C7.24583 1.43842 7.01029 1.53041 6.8515 1.69125L0.620055 7.65316C0.437829 7.82894 0.414977 8.1181 0.580797 8.30853C0.622437 8.3566 0.673422 8.39569 0.73065 8.42343C0.787878 8.45116 0.850151 8.46697 0.91368 8.46987C0.977209 8.47278 1.04066 8.46272 1.10018 8.44033C1.15971 8.41793 1.21405 8.38365 1.2599 8.33959L7.339 2.5306C7.38262 2.48888 7.44065 2.46559 7.50101 2.46559C7.56137 2.46559 7.6194 2.48888 7.66302 2.5306L13.7427 8.33959C13.8323 8.42547 13.9522 8.47234 14.0763 8.46992C14.2003 8.46751 14.3184 8.416 14.4045 8.3267C14.5844 8.14037 14.5695 7.83275 14.3823 7.65375Z"
      fill="#A0AEC0" />
  </g>
  <defs>
    <clipPath id="clip0_2252_5562">
      <rect width="15" height="15" fill="white" transform="translate(-0.000244141 0.500031)" />
    </clipPath>
  </defs>
</svg>