<svg width="15" height="16" viewBox="0 0 15 16" fill="none" xmlns="http://www.w3.org/2000/svg">
<g clip-path="url(#clip0_2252_5547)">
<path d="M13.7564 4.03139C13.7227 3.96575 13.6739 3.909 13.6141 3.86577C13.5542 3.82255 13.485 3.79406 13.4121 3.78264C13.3392 3.77122 13.2646 3.77718 13.1944 3.80004C13.1242 3.82291 13.0604 3.86202 13.0082 3.91421L11.2082 5.71538C11.1198 5.80246 11.0008 5.85127 10.8767 5.85127C10.7526 5.85127 10.6336 5.80246 10.5452 5.71538L9.76709 4.93608C9.72355 4.89255 9.68901 4.84087 9.66545 4.78399C9.64188 4.72712 9.62975 4.66615 9.62975 4.60459C9.62975 4.54302 9.64188 4.48206 9.66545 4.42518C9.68901 4.3683 9.72355 4.31662 9.76709 4.27309L11.5595 2.48042C11.6132 2.42669 11.6531 2.36071 11.6756 2.28816C11.6982 2.2156 11.7028 2.13865 11.689 2.06393C11.6752 1.9892 11.6435 1.91895 11.5965 1.85922C11.5496 1.79949 11.4888 1.75207 11.4194 1.72104C10.0656 1.11577 8.37578 1.43159 7.31025 2.48921C6.40498 3.38803 6.13515 4.79253 6.57051 6.34262C6.59398 6.42529 6.59411 6.51283 6.5709 6.59557C6.54768 6.6783 6.50202 6.75299 6.43896 6.81137L1.56162 11.266C1.37161 11.4366 1.21835 11.6441 1.11119 11.8759C1.00402 12.1076 0.9452 12.3588 0.938307 12.6141C0.931415 12.8694 0.976597 13.1233 1.0711 13.3606C1.1656 13.5978 1.30744 13.8133 1.48796 13.9939C1.66849 14.1745 1.88391 14.3164 2.1211 14.411C2.35828 14.5056 2.61225 14.5509 2.86752 14.5441C3.12278 14.5374 3.37399 14.4787 3.60582 14.3716C3.83765 14.2645 4.04523 14.1114 4.21592 13.9214L8.71826 9.03325C8.7758 8.97101 8.84923 8.92565 8.93065 8.90206C9.01206 8.87846 9.09837 8.87753 9.18027 8.89936C9.62158 9.02028 10.0768 9.08302 10.5344 9.08598C11.5129 9.08598 12.3716 8.76928 12.9909 8.15903C14.1379 7.02905 14.3128 5.11245 13.7564 4.03139ZM2.91484 13.6006C2.72189 13.6217 2.52716 13.5823 2.35753 13.488C2.18789 13.3937 2.05171 13.2491 1.96779 13.074C1.88386 12.899 1.85633 12.7023 1.88898 12.5109C1.92163 12.3196 2.01286 12.1431 2.15009 12.0059C2.28731 11.8686 2.46375 11.7773 2.65507 11.7446C2.84639 11.7119 3.04315 11.7393 3.21819 11.8232C3.39323 11.9071 3.53793 12.0432 3.63231 12.2128C3.72669 12.3824 3.76611 12.5771 3.74512 12.7701C3.72202 12.9824 3.62713 13.1804 3.47615 13.3315C3.32516 13.4825 3.12714 13.5775 2.91484 13.6006Z" fill="#A0AEC0"/>
</g>
<defs>
<clipPath id="clip0_2252_5547">
<rect width="15" height="15" fill="white" transform="translate(-0.000244141 0.499975)"/>
</clipPath>
</defs>
</svg>
