<svg width="20" height="20" viewBox="0 0 20 20" fill="none" xmlns="http://www.w3.org/2000/svg">
<path fill-rule="evenodd" clip-rule="evenodd" d="M12.4952 1.5145C12.4952 2.1355 12.9992 2.6395 13.6202 2.6395H17.3597V6.379C17.3597 6.67737 17.4782 6.96351 17.6892 7.17449C17.9002 7.38547 18.1863 7.504 18.4847 7.504C18.783 7.504 19.0692 7.38547 19.2802 7.17449C19.4911 6.96351 19.6097 6.67737 19.6097 6.379V1.5145C19.6097 1.21613 19.4911 0.929979 19.2802 0.719001C19.0692 0.508022 18.783 0.389496 18.4847 0.389496H13.6202C13.3218 0.389496 13.0357 0.508022 12.8247 0.719001C12.6137 0.929979 12.4952 1.21613 12.4952 1.5145ZM18.4847 12.496C18.1863 12.496 17.9002 12.6145 17.6892 12.8255C17.4782 13.0365 17.3597 13.3226 17.3597 13.621V17.3605H13.6202C13.3218 17.3605 13.0357 17.479 12.8247 17.69C12.6137 17.901 12.4952 18.1871 12.4952 18.4855C12.4952 18.7839 12.6137 19.07 12.8247 19.281C13.0357 19.492 13.3218 19.6105 13.6202 19.6105H18.4847C18.783 19.6105 19.0692 19.492 19.2802 19.281C19.4911 19.07 19.6097 18.7839 19.6097 18.4855V13.621C19.6097 13.3226 19.4911 13.0365 19.2802 12.8255C19.0692 12.6145 18.783 12.496 18.4847 12.496ZM1.51367 12.496C1.81204 12.496 2.09819 12.6145 2.30917 12.8255C2.52015 13.0365 2.63867 13.3226 2.63867 13.621V17.3605H6.37817C6.67654 17.3605 6.96269 17.479 7.17367 17.69C7.38465 17.901 7.50317 18.1871 7.50317 18.4855C7.50317 18.7839 7.38465 19.07 7.17367 19.281C6.96269 19.492 6.67654 19.6105 6.37817 19.6105H1.51367C1.2153 19.6105 0.929155 19.492 0.718177 19.281C0.507198 19.07 0.388672 18.7839 0.388672 18.4855V13.621C0.388672 13.3226 0.507198 13.0365 0.718177 12.8255C0.929155 12.6145 1.2153 12.496 1.51367 12.496ZM7.50317 1.5145C7.50317 1.81286 7.38465 2.09901 7.17367 2.30999C6.96269 2.52097 6.67654 2.6395 6.37817 2.6395H2.63867V6.379C2.63867 6.67737 2.52015 6.96351 2.30917 7.17449C2.09819 7.38547 1.81204 7.504 1.51367 7.504C1.2153 7.504 0.929155 7.38547 0.718177 7.17449C0.507198 6.96351 0.388672 6.67737 0.388672 6.379V1.5145C0.388672 1.21613 0.507198 0.929979 0.718177 0.719001C0.929155 0.508022 1.2153 0.389496 1.51367 0.389496H6.37817C6.67654 0.389496 6.96269 0.508022 7.17367 0.719001C7.38465 0.929979 7.50317 1.21613 7.50317 1.5145Z" fill="black"/>
</svg>
