<svg width="24" height="25" viewBox="0 0 24 25" fill="none" xmlns="http://www.w3.org/2000/svg">
<path d="M22.5 15.5001H22.125V14.0001C22.125 13.5028 21.9275 13.0259 21.5758 12.6742C21.2242 12.3226 20.7473 12.1251 20.25 12.1251H19.875V7.25006C19.875 6.55387 19.5984 5.88619 19.1062 5.39391C18.6139 4.90162 17.9462 4.62506 17.25 4.62506H6.75C6.05381 4.62506 5.38613 4.90162 4.89384 5.39391C4.40156 5.88619 4.125 6.55387 4.125 7.25006V12.1251H3.75C3.25272 12.1251 2.77581 12.3226 2.42417 12.6742C2.07254 13.0259 1.875 13.5028 1.875 14.0001V15.5001H1.5C1.40054 15.5001 1.30516 15.5396 1.23483 15.6099C1.16451 15.6802 1.125 15.7756 1.125 15.8751V20.0001C1.125 20.0995 1.16451 20.1949 1.23483 20.2652C1.30516 20.3356 1.40054 20.3751 1.5 20.3751H4.24875C4.32737 20.3753 4.40406 20.3508 4.46799 20.305C4.53191 20.2592 4.57984 20.1945 4.605 20.1201L4.875 19.2688C4.95279 19.0488 5.09709 18.8584 5.28791 18.724C5.47873 18.5896 5.70662 18.5179 5.94 18.5188H18.045C18.2784 18.5179 18.5063 18.5896 18.6971 18.724C18.8879 18.8584 19.0322 19.0488 19.11 19.2688L19.395 20.1201C19.4211 20.1977 19.4719 20.2646 19.5396 20.3107C19.6073 20.3567 19.6882 20.3793 19.77 20.3751H22.5C22.5995 20.3751 22.6948 20.3356 22.7652 20.2652C22.8355 20.1949 22.875 20.0995 22.875 20.0001V15.8751C22.875 15.7756 22.8355 15.6802 22.7652 15.6099C22.6948 15.5396 22.5995 15.5001 22.5 15.5001ZM4.875 7.25006C4.875 6.75278 5.07254 6.27587 5.42417 5.92424C5.77581 5.57261 6.25272 5.37506 6.75 5.37506H17.25C17.7473 5.37506 18.2242 5.57261 18.5758 5.92424C18.9275 6.27587 19.125 6.75278 19.125 7.25006V12.1251H17.9325C18.045 11.8101 17.9813 11.6713 18 11.0001C18 10.7017 17.8815 10.4155 17.6705 10.2046C17.4595 9.99359 17.1734 9.87506 16.875 9.87506H14.25C13.9516 9.87506 13.6655 9.99359 13.4545 10.2046C13.2435 10.4155 13.125 10.7017 13.125 11.0001C13.125 11.6713 13.08 11.8101 13.1925 12.1251H10.8075C10.92 11.8101 10.8562 11.6713 10.875 11.0001C10.875 10.7017 10.7565 10.4155 10.5455 10.2046C10.3345 9.99359 10.0484 9.87506 9.75 9.87506H7.125C6.82663 9.87506 6.54048 9.99359 6.3295 10.2046C6.11853 10.4155 6 10.7017 6 11.0001C6.01875 11.6713 5.955 11.8101 6.0675 12.1251H4.875V7.25006ZM13.875 11.7501V11.0001C13.875 10.9006 13.9145 10.8052 13.9848 10.7349C14.0552 10.6646 14.1505 10.6251 14.25 10.6251H16.875C16.9745 10.6251 17.0698 10.6646 17.1402 10.7349C17.2105 10.8052 17.25 10.9006 17.25 11.0001V11.7501C17.25 11.8495 17.2105 11.9449 17.1402 12.0152C17.0698 12.0856 16.9745 12.1251 16.875 12.1251H14.25C14.1505 12.1251 14.0552 12.0856 13.9848 12.0152C13.9145 11.9449 13.875 11.8495 13.875 11.7501ZM6.75 11.7501V11.0001C6.75 10.9006 6.78951 10.8052 6.85983 10.7349C6.93016 10.6646 7.02554 10.6251 7.125 10.6251H9.75C9.84946 10.6251 9.94484 10.6646 10.0152 10.7349C10.0855 10.8052 10.125 10.9006 10.125 11.0001V11.7501C10.125 11.8495 10.0855 11.9449 10.0152 12.0152C9.94484 12.0856 9.84946 12.1251 9.75 12.1251H7.125C7.02554 12.1251 6.93016 12.0856 6.85983 12.0152C6.78951 11.9449 6.75 11.8495 6.75 11.7501ZM2.625 14.0001C2.625 13.7017 2.74353 13.4155 2.9545 13.2046C3.16548 12.9936 3.45163 12.8751 3.75 12.8751H20.25C20.5484 12.8751 20.8345 12.9936 21.0455 13.2046C21.2565 13.4155 21.375 13.7017 21.375 14.0001V15.5001H2.625V14.0001ZM22.125 19.6251H20.0212L19.8225 19.0326C19.6982 18.6594 19.4597 18.3347 19.1407 18.1045C18.8217 17.8744 18.4384 17.7504 18.045 17.7501H5.955C5.56164 17.7504 5.17833 17.8744 4.85933 18.1045C4.54033 18.3347 4.3018 18.6594 4.1775 19.0326L3.97875 19.6251H1.875V16.2501H22.125V19.6251Z" fill="#2D3748"/>
</svg>
