<svg width="18" height="19" viewBox="0 0 18 19" fill="none" xmlns="http://www.w3.org/2000/svg">
<g clip-path="url(#clip0_4009_254)">
<path d="M17.1562 0.500061H0.84375C0.620054 0.500322 0.405594 0.5893 0.247416 0.747477C0.089239 0.905655 0.000260524 1.12011 0 1.34381L0 17.6563C0.000260524 17.88 0.089239 18.0945 0.247416 18.2526C0.405594 18.4108 0.620054 18.4998 0.84375 18.5001H17.1562C17.3799 18.4998 17.5944 18.4108 17.7526 18.2526C17.9108 18.0945 17.9997 17.88 18 17.6563V1.34381C17.9997 1.12011 17.9108 0.905655 17.7526 0.747477C17.5944 0.5893 17.3799 0.500322 17.1562 0.500061ZM17.4375 17.6563C17.4374 17.7309 17.4078 17.8024 17.355 17.8551C17.3023 17.9078 17.2308 17.9375 17.1562 17.9376H0.84375C0.769181 17.9375 0.697687 17.9078 0.644958 17.8551C0.59223 17.8024 0.562574 17.7309 0.5625 17.6563V1.34381C0.562574 1.26924 0.59223 1.19775 0.644958 1.14502C0.697687 1.09229 0.769181 1.06264 0.84375 1.06256H17.1562C17.2308 1.06264 17.3023 1.09229 17.355 1.14502C17.4078 1.19775 17.4374 1.26924 17.4375 1.34381V17.6563Z" fill="#2D3748"/>
<path d="M11.5312 6.40631H6.46875C6.31962 6.4065 6.17666 6.46582 6.07121 6.57127C5.96576 6.67672 5.90644 6.81968 5.90625 6.96881V12.0313C5.9064 12.1804 5.96571 12.3234 6.07117 12.4289C6.17662 12.5344 6.31961 12.5937 6.46875 12.5938H11.5312C11.6804 12.5937 11.8234 12.5344 11.9288 12.4289C12.0343 12.3234 12.0936 12.1804 12.0938 12.0313V6.96881C12.0936 6.81968 12.0342 6.67672 11.9288 6.57127C11.8233 6.46582 11.6804 6.4065 11.5312 6.40631ZM6.46875 12.0313V6.96881H11.5312L11.5315 12.0313H6.46875Z" fill="#2D3748"/>
<path d="M10.6877 7.53129H7.31266C7.23807 7.53129 7.16654 7.56092 7.11379 7.61367C7.06105 7.66641 7.03141 7.73795 7.03141 7.81254V11.1875C7.03141 11.2621 7.06105 11.3337 7.11379 11.3864C7.16654 11.4392 7.23807 11.4688 7.31266 11.4688H10.6877C10.7623 11.4688 10.8338 11.4392 10.8865 11.3864C10.9393 11.3337 10.9689 11.2621 10.9689 11.1875V7.81254C10.9689 7.73795 10.9393 7.66641 10.8865 7.61367C10.8338 7.56092 10.7623 7.53129 10.6877 7.53129ZM10.4064 10.9063H7.59391V8.09379H10.4064V10.9063ZM3.1572 3.18921L3.47754 3.21832C3.51433 3.22167 3.55141 3.21773 3.58668 3.20674C3.62194 3.19575 3.6547 3.17792 3.68307 3.15428C3.71145 3.13063 3.73489 3.10162 3.75205 3.06891C3.76922 3.03621 3.77978 3.00044 3.78312 2.96365C3.78646 2.92687 3.78252 2.88978 3.77154 2.85452C3.76055 2.81925 3.74272 2.78649 3.71907 2.75812C3.69542 2.72974 3.66642 2.7063 3.63371 2.68914C3.601 2.67197 3.56523 2.66142 3.52845 2.65807L2.43466 2.55865C2.3936 2.55492 2.35222 2.56025 2.31345 2.57429C2.27467 2.58833 2.23946 2.61071 2.21031 2.63987C2.18115 2.66903 2.15876 2.70424 2.14472 2.74301C2.13069 2.78178 2.12535 2.82317 2.12909 2.86423L2.22851 3.95801C2.23482 4.02789 2.26703 4.09289 2.31881 4.14024C2.37058 4.18759 2.43819 4.21388 2.50835 4.21395C2.51679 4.21395 2.52537 4.21353 2.53409 4.21254C2.60833 4.20576 2.67685 4.16978 2.72458 4.11251C2.7723 4.05524 2.79534 3.98136 2.78862 3.90711L2.75965 3.5869L4.8454 5.67265C4.89844 5.72388 4.96949 5.75223 5.04323 5.75159C5.11697 5.75095 5.18751 5.72137 5.23966 5.66923C5.29181 5.61708 5.32139 5.54654 5.32203 5.4728C5.32267 5.39905 5.29432 5.32801 5.24309 5.27497L3.1572 3.18921ZM4.8454 13.3274L2.75965 15.4132L2.78876 15.0928C2.79547 15.0185 2.7724 14.9446 2.72461 14.8873C2.67682 14.8301 2.60824 14.7941 2.53395 14.7874C2.45965 14.7807 2.38573 14.8038 2.32845 14.8515C2.27117 14.8993 2.23522 14.9679 2.22851 15.0422L2.12909 16.1359C2.12555 16.1748 2.13016 16.214 2.14263 16.251C2.1551 16.2881 2.17516 16.3221 2.20151 16.351C2.22787 16.3798 2.25995 16.4029 2.29571 16.4187C2.33147 16.4344 2.37013 16.4426 2.40921 16.4426C2.41765 16.4426 2.42609 16.4421 2.43466 16.4414L3.52845 16.342C3.60274 16.3353 3.67131 16.2993 3.71907 16.242C3.76683 16.1847 3.78987 16.1107 3.78312 16.0364C3.77637 15.9621 3.74038 15.8936 3.68307 15.8458C3.62577 15.798 3.55183 15.775 3.47754 15.7818L3.15734 15.8109L5.24309 13.7251C5.29432 13.6721 5.32267 13.601 5.32203 13.5273C5.32139 13.4535 5.29181 13.383 5.23966 13.3309C5.18751 13.2787 5.11697 13.2491 5.04323 13.2485C4.96949 13.2479 4.89844 13.2762 4.8454 13.3274ZM15.5657 2.55865L14.4719 2.65807C14.4351 2.66142 14.3993 2.67197 14.3666 2.68914C14.3339 2.7063 14.3049 2.72974 14.2813 2.75812C14.2576 2.78649 14.2398 2.81925 14.2288 2.85452C14.2178 2.88978 14.2139 2.92687 14.2172 2.96365C14.2206 3.00044 14.2311 3.03621 14.2483 3.06891C14.2654 3.10162 14.2889 3.13063 14.3173 3.15428C14.3456 3.17792 14.3784 3.19575 14.4137 3.20674C14.4489 3.21773 14.486 3.22167 14.5228 3.21832L14.843 3.18921L12.7572 5.27497C12.7304 5.30091 12.709 5.33194 12.6942 5.36626C12.6795 5.40057 12.6717 5.43748 12.6714 5.47482C12.6711 5.51216 12.6782 5.5492 12.6923 5.58376C12.7065 5.61833 12.7273 5.64973 12.7538 5.67614C12.7802 5.70255 12.8116 5.72343 12.8461 5.73757C12.8807 5.75171 12.9177 5.75883 12.9551 5.7585C12.9924 5.75818 13.0293 5.75042 13.0636 5.73568C13.098 5.72094 13.129 5.69951 13.1549 5.67265L15.2407 3.5869L15.2116 3.90711C15.2048 3.98138 15.2278 4.0553 15.2756 4.1126C15.3233 4.16991 15.3918 4.20591 15.4661 4.21268C15.4748 4.21353 15.4835 4.21381 15.4921 4.21381C15.5622 4.21371 15.6298 4.18742 15.6815 4.1401C15.7333 4.09278 15.7655 4.02784 15.7718 3.95801L15.8712 2.86423C15.875 2.82317 15.8696 2.78178 15.8556 2.74301C15.8416 2.70424 15.8192 2.66903 15.79 2.63987C15.7609 2.61071 15.7257 2.58833 15.6869 2.57429C15.6481 2.56025 15.6067 2.55492 15.5657 2.55865ZM15.4662 14.7874C15.392 14.7942 15.3235 14.8302 15.2758 14.8874C15.228 14.9447 15.205 15.0186 15.2117 15.0928L15.2407 15.4132L13.1549 13.3274C13.1019 13.2762 13.0308 13.2479 12.9571 13.2485C12.8834 13.2491 12.8128 13.2787 12.7607 13.3309C12.7085 13.383 12.6789 13.4535 12.6783 13.5273C12.6777 13.601 12.706 13.6721 12.7572 13.7251L14.843 15.8109L14.5228 15.7818C14.4485 15.775 14.3746 15.798 14.3173 15.8458C14.2599 15.8936 14.224 15.9621 14.2172 16.0364C14.2105 16.1107 14.2335 16.1847 14.2813 16.242C14.329 16.2993 14.3976 16.3353 14.4719 16.342L15.5657 16.4414C15.5741 16.4421 15.5827 16.4426 15.5911 16.4426C15.6302 16.4426 15.6688 16.4344 15.7046 16.4187C15.7403 16.4029 15.7724 16.3799 15.7988 16.351C15.8251 16.3222 15.8452 16.2882 15.8576 16.2511C15.8701 16.2141 15.8748 16.1749 15.8712 16.136L15.7718 15.0421C15.7647 14.9679 15.7286 14.8996 15.6714 14.8519C15.6142 14.8042 15.5405 14.781 15.4662 14.7874Z" fill="#2D3748"/>
</g>
<defs>
<clipPath id="clip0_4009_254">
<rect width="18" height="18" fill="white" transform="translate(0 0.500061)"/>
</clipPath>
</defs>
</svg>
