<svg width="20" height="20" viewBox="0 0 20 20" fill="none" xmlns="http://www.w3.org/2000/svg">
<g clip-path="url(#clip0_2248_3724)">
<path d="M17.0051 13.6222C16.1124 12.655 15.0291 11.8831 13.8234 11.3552C12.6177 10.8272 11.3158 10.5547 9.99957 10.5547C8.68335 10.5547 7.3814 10.8272 6.17571 11.3552C4.97002 11.8831 3.88671 12.655 2.99401 13.6222C2.85619 13.7746 2.77909 13.9723 2.77734 14.1778V17.5111C2.78027 17.7302 2.86935 17.9393 3.02532 18.0932C3.18128 18.2471 3.39158 18.3333 3.61068 18.3333H16.3885C16.6095 18.3333 16.8214 18.2455 16.9777 18.0893C17.134 17.933 17.2218 17.721 17.2218 17.5V14.1667C17.2174 13.965 17.1404 13.7718 17.0051 13.6222Z" fill="#718096"/>
<path d="M10.0002 9.44428C12.148 9.44428 13.8891 7.70317 13.8891 5.55539C13.8891 3.40762 12.148 1.6665 10.0002 1.6665C7.85244 1.6665 6.11133 3.40762 6.11133 5.55539C6.11133 7.70317 7.85244 9.44428 10.0002 9.44428Z" fill="#718096"/>
</g>
<defs>
<clipPath id="clip0_2248_3724">
<rect width="20" height="20" fill="white"/>
</clipPath>
</defs>
</svg>
