<svg width="20" height="20" viewBox="0 0 20 20" fill="none" xmlns="http://www.w3.org/2000/svg">
<path d="M17.9665 2.08008C17.9094 2.01736 17.8402 1.96687 17.763 1.93165C17.6859 1.89643 17.6024 1.87722 17.5176 1.87517C17.4328 1.87313 17.3485 1.88829 17.2698 1.91975C17.191 1.95121 17.1195 1.99831 17.0594 2.0582L16.5762 2.53906C16.5177 2.59766 16.4848 2.67712 16.4848 2.75996C16.4848 2.84281 16.5177 2.92226 16.5762 2.98086L17.0192 3.42305C17.0482 3.45222 17.0827 3.47537 17.1207 3.49116C17.1588 3.50696 17.1995 3.51509 17.2407 3.51509C17.2818 3.51509 17.3226 3.50696 17.3606 3.49116C17.3986 3.47537 17.4331 3.45222 17.4622 3.42305L17.9333 2.9543C18.1715 2.71641 18.1938 2.32891 17.9665 2.08008ZM15.5993 3.51562L8.5477 10.5547C8.50495 10.5973 8.47387 10.6501 8.45747 10.7082L8.1313 11.6797C8.12348 11.706 8.12293 11.734 8.1297 11.7607C8.13646 11.7873 8.15029 11.8117 8.16973 11.8311C8.18918 11.8505 8.2135 11.8644 8.24015 11.8711C8.2668 11.8779 8.29478 11.8773 8.32114 11.8695L9.29184 11.5434C9.34991 11.527 9.40278 11.4959 9.44536 11.4531L16.4844 4.40078C16.5495 4.33496 16.5861 4.24611 16.5861 4.15352C16.5861 4.06092 16.5495 3.97207 16.4844 3.90625L16.0958 3.51562C16.0298 3.44991 15.9406 3.413 15.8475 3.413C15.7544 3.413 15.6652 3.44991 15.5993 3.51562Z" fill="#718096"/>
<path d="M15.0914 7.56484L10.3301 12.3355C10.1461 12.52 9.91988 12.6569 9.67109 12.7344L8.65937 13.073C8.41927 13.1409 8.16543 13.1434 7.924 13.0805C7.68258 13.0175 7.46231 12.8913 7.28589 12.7149C7.10947 12.5385 6.98328 12.3182 6.92033 12.0768C6.85737 11.8354 6.85993 11.5815 6.92773 11.3414L7.26641 10.3297C7.34365 10.081 7.48026 9.85481 7.66445 9.6707L12.4352 4.90859C12.4789 4.86491 12.5087 4.80924 12.5208 4.74863C12.5329 4.68801 12.5267 4.62517 12.5031 4.56806C12.4795 4.51094 12.4394 4.46211 12.3881 4.42775C12.3367 4.39339 12.2763 4.37503 12.2145 4.375H4.0625C3.48234 4.375 2.92594 4.60547 2.5157 5.0157C2.10547 5.42594 1.875 5.98234 1.875 6.5625V15.9375C1.875 16.5177 2.10547 17.0741 2.5157 17.4843C2.92594 17.8945 3.48234 18.125 4.0625 18.125H13.4375C14.0177 18.125 14.5741 17.8945 14.9843 17.4843C15.3945 17.0741 15.625 16.5177 15.625 15.9375V7.78555C15.625 7.72374 15.6066 7.66333 15.5723 7.61195C15.5379 7.56057 15.4891 7.52054 15.4319 7.49692C15.3748 7.47329 15.312 7.46714 15.2514 7.47923C15.1908 7.49132 15.1351 7.52111 15.0914 7.56484Z" fill="#718096"/>
</svg>
