<svg width="30" height="30" viewBox="0 0 30 30" fill="none" xmlns="http://www.w3.org/2000/svg">
<mask id="mask0_4005_3157" style="mask-type:luminance" maskUnits="userSpaceOnUse" x="0" y="0" width="30" height="30">
<path d="M0 0H30V30H0V0Z" fill="white"/>
</mask>
<g mask="url(#mask0_4005_3157)">
<mask id="mask1_4005_3157" style="mask-type:luminance" maskUnits="userSpaceOnUse" x="0" y="0" width="30" height="30">
<path d="M0 0H30V30H0V0Z" fill="white"/>
</mask>
<g mask="url(#mask1_4005_3157)">
<path d="M20.1486 5.65155C18.5239 5.65155 16.9866 6.28899 15.8368 7.43877C15.5244 7.75125 15.2494 8.11365 14.9995 8.48859C14.762 8.11365 14.4745 7.75119 14.1246 7.40127C11.75 5.06415 7.8881 5.07669 5.52602 7.43877C3.16382 9.80091 3.13886 13.9752 5.48846 16.3499L14.3245 25.3484C14.4996 25.5234 14.737 25.6234 14.9995 25.6234C15.2619 25.6234 15.4869 25.5234 15.6744 25.3484L24.4729 16.3874C26.8476 14.0002 26.8476 9.82587 24.4729 7.43877C23.3106 6.28899 21.7859 5.65155 20.1486 5.65155ZM23.1357 15.0501C23.1357 15.0626 23.1357 15.0626 23.1357 15.0501L14.9995 23.3487L6.83828 15.0375C5.21348 13.3878 5.22608 10.4008 6.86324 8.76357C7.67564 7.93869 8.75048 7.53879 9.82526 7.53879C10.9126 7.53879 12 7.95117 12.8499 8.78859C13.2747 9.21351 13.5872 9.70095 13.7872 10.2884C14.0496 10.9632 14.1871 11.1632 14.1871 11.1632C14.362 11.4507 14.6745 11.6256 14.9995 11.6256C15.3244 11.6256 15.6493 11.4507 15.8119 11.1756C15.8119 11.1756 15.9368 10.9632 16.1992 10.2884C16.4242 9.70095 16.7492 9.18855 17.1741 8.76357C18.7614 7.17633 21.5484 7.17633 23.1481 8.76357C24.7854 10.4133 24.7854 13.4129 23.1357 15.0501Z" fill="white"/>
</g>
</g>
</svg>
