<svg width="20" height="20" viewBox="0 0 20 20" fill="none" xmlns="http://www.w3.org/2000/svg">
<path d="M13.3106 13.4566C13.5414 12.6481 13.6942 11.7086 13.7524 10.8066C13.7537 10.7831 13.7501 10.7595 13.7419 10.7374C13.7337 10.7153 13.721 10.695 13.7047 10.678C13.6884 10.661 13.6687 10.6475 13.6469 10.6384C13.6252 10.6293 13.6018 10.6247 13.5782 10.625H10.8024C10.7797 10.6248 10.7571 10.6291 10.736 10.6376C10.715 10.6461 10.6958 10.6587 10.6796 10.6746C10.6633 10.6905 10.6504 10.7095 10.6415 10.7304C10.6327 10.7513 10.628 10.7738 10.6278 10.7965V12.9566C10.6283 13.0003 10.6452 13.0421 10.6752 13.0738C10.7051 13.1055 10.746 13.1248 10.7895 13.1277C11.5717 13.191 12.3446 13.3402 13.0942 13.5727C13.1383 13.5859 13.1858 13.5812 13.2264 13.5594C13.2669 13.5377 13.2972 13.5007 13.3106 13.4566ZM12.6399 14.7387C12.0452 14.5651 11.4359 14.4462 10.8196 14.3836C10.7958 14.3809 10.7717 14.3833 10.7488 14.3904C10.7259 14.3976 10.7048 14.4094 10.6868 14.4252C10.6687 14.4409 10.6542 14.4603 10.644 14.482C10.6339 14.5037 10.6283 14.5272 10.6278 14.5512V17.0996C10.6287 17.13 10.6376 17.1596 10.6535 17.1856C10.6694 17.2115 10.6918 17.2328 10.7185 17.2474C10.7451 17.262 10.7752 17.2694 10.8056 17.2688C10.836 17.2682 10.8657 17.2597 10.8918 17.2441C11.5129 16.882 12.0247 16.2738 12.4872 15.4695C12.5629 15.3383 12.6782 15.1121 12.7477 14.9738C12.7585 14.9516 12.7642 14.9272 12.7645 14.9025C12.7648 14.8778 12.7596 14.8533 12.7493 14.8308C12.739 14.8083 12.7238 14.7884 12.7049 14.7725C12.686 14.7566 12.6638 14.745 12.6399 14.7387ZM9.19106 14.3906C8.57548 14.4492 7.96664 14.5645 7.37231 14.7352C7.26918 14.7649 7.22582 14.907 7.2727 15.0004C7.34262 15.1395 7.42895 15.3172 7.50277 15.45C8.01059 16.3484 8.55121 16.9149 9.11371 17.2441C9.13982 17.2597 9.16955 17.2682 9.19996 17.2688C9.23037 17.2694 9.2604 17.262 9.28708 17.2474C9.31376 17.2328 9.33616 17.2115 9.35207 17.1856C9.36798 17.1596 9.37684 17.13 9.37777 17.0996V14.55C9.37759 14.5267 9.3724 14.5038 9.36257 14.4827C9.35273 14.4616 9.33848 14.4428 9.32078 14.4277C9.30307 14.4126 9.28233 14.4015 9.25995 14.3951C9.23757 14.3887 9.21407 14.3872 9.19106 14.3906ZM9.20317 10.625H6.42738C6.40382 10.6247 6.38045 10.6292 6.35871 10.6383C6.33697 10.6474 6.31733 10.6609 6.301 10.6779C6.28467 10.6949 6.272 10.715 6.26377 10.7371C6.25554 10.7592 6.25193 10.7827 6.25316 10.8063C6.31098 11.707 6.46293 12.6484 6.69301 13.4563C6.69953 13.4784 6.71038 13.499 6.72492 13.5168C6.73946 13.5347 6.75741 13.5495 6.77772 13.5604C6.79803 13.5713 6.8203 13.5781 6.84324 13.5803C6.86618 13.5826 6.88934 13.5802 6.91137 13.5734C7.66087 13.3409 8.4338 13.1921 9.21606 13.1297C9.25966 13.1268 9.30058 13.1076 9.33064 13.0759C9.36069 13.0442 9.37767 13.0023 9.37816 12.9586V10.7969C9.37801 10.7741 9.37336 10.7516 9.36447 10.7306C9.35558 10.7096 9.34264 10.6906 9.32638 10.6746C9.31012 10.6586 9.29086 10.646 9.26972 10.6375C9.24857 10.629 9.22596 10.6247 9.20317 10.625ZM10.8204 5.61641C11.4363 5.5587 12.0448 5.43909 12.6368 5.25938C12.6605 5.25296 12.6826 5.24139 12.7014 5.2255C12.7202 5.20961 12.7352 5.18979 12.7455 5.16743C12.7558 5.14507 12.7611 5.12072 12.7609 5.09611C12.7607 5.0715 12.7552 5.04723 12.7446 5.02501C12.6746 4.88555 12.5778 4.68594 12.5036 4.55274C12.0235 3.69337 11.4825 3.09376 10.8926 2.75587C10.8665 2.74039 10.8368 2.73198 10.8064 2.73147C10.776 2.73096 10.7461 2.73835 10.7194 2.75294C10.6928 2.76752 10.6704 2.78878 10.6545 2.81463C10.6385 2.84049 10.6296 2.87005 10.6286 2.9004V5.44844C10.6291 5.47241 10.6346 5.49599 10.6448 5.5177C10.655 5.53941 10.6695 5.55878 10.6875 5.57457C10.7056 5.59036 10.7267 5.60224 10.7496 5.60944C10.7724 5.61664 10.7965 5.61902 10.8204 5.61641ZM10.8024 9.37501H13.5782C13.6016 9.3754 13.6248 9.37101 13.6464 9.3621C13.668 9.35318 13.6876 9.33994 13.7039 9.32318C13.7202 9.30643 13.733 9.28651 13.7413 9.26465C13.7496 9.2428 13.7534 9.21947 13.7524 9.1961C13.6946 8.30665 13.5465 7.32891 13.3164 6.53126C13.3097 6.50933 13.2987 6.48894 13.2841 6.47127C13.2695 6.4536 13.2515 6.43899 13.2312 6.42828C13.2109 6.41757 13.1887 6.41098 13.1659 6.40888C13.143 6.40677 13.12 6.4092 13.0981 6.41602C12.3559 6.64024 11.5829 6.82344 10.7899 6.88477C10.7465 6.88723 10.7057 6.906 10.6757 6.9373C10.6456 6.9686 10.6285 7.01012 10.6278 7.05352V9.20626C10.6286 9.25177 10.6474 9.29511 10.6802 9.32674C10.7129 9.35838 10.7569 9.37574 10.8024 9.37501ZM9.11371 2.75626C8.51137 3.09102 7.97426 3.71055 7.49379 4.56758C7.41918 4.70079 7.33012 4.88438 7.25941 5.02344C7.2489 5.04567 7.24339 5.06994 7.24326 5.09453C7.24313 5.11912 7.24839 5.14344 7.25866 5.16577C7.26894 5.18811 7.28398 5.20793 7.30274 5.22383C7.3215 5.23974 7.34351 5.25134 7.36723 5.25782C7.95893 5.44082 8.5683 5.56089 9.1852 5.61602C9.20899 5.61862 9.23307 5.61626 9.2559 5.60908C9.27874 5.6019 9.29984 5.59006 9.31786 5.57431C9.33589 5.55856 9.35045 5.53925 9.36063 5.51758C9.37081 5.49591 9.37638 5.47237 9.37699 5.44844V2.90079C9.37576 2.8706 9.36675 2.84124 9.35083 2.81556C9.33492 2.78988 9.31264 2.76874 9.28615 2.7542C9.25966 2.73966 9.22987 2.73221 9.19966 2.73257C9.16945 2.73293 9.13984 2.74109 9.11371 2.75626ZM9.21566 6.88516C8.4227 6.82462 7.64887 6.64141 6.90746 6.41641C6.88556 6.40959 6.86252 6.40716 6.83968 6.40927C6.81684 6.41137 6.79463 6.41796 6.77434 6.42867C6.75406 6.43938 6.73608 6.45399 6.72145 6.47166C6.70683 6.48933 6.69583 6.50972 6.6891 6.53165C6.45902 7.3293 6.31098 8.30704 6.25316 9.19649C6.25215 9.21986 6.25592 9.24319 6.26426 9.26504C6.27259 9.2869 6.28531 9.30682 6.30163 9.32358C6.31795 9.34033 6.33752 9.35358 6.35915 9.36249C6.38078 9.3714 6.404 9.37579 6.42738 9.3754H9.20317C9.22577 9.37576 9.24822 9.37166 9.26924 9.36333C9.29026 9.355 9.30942 9.34261 9.32564 9.32686C9.34186 9.31111 9.35482 9.29232 9.36376 9.27156C9.37271 9.25079 9.37747 9.22847 9.37777 9.20587V7.05391C9.37705 7.01051 9.35994 6.96899 9.32987 6.93769C9.2998 6.90639 9.259 6.88762 9.21566 6.88516Z" fill="#718096"/>
<path d="M16.1873 3.81307C15.3762 2.994 14.4113 2.34324 13.348 1.8982C12.2847 1.45315 11.1439 1.22259 9.99126 1.21975C8.83858 1.21692 7.69669 1.44186 6.6312 1.88167C5.56571 2.32147 4.59762 2.96747 3.78254 3.78254C2.96747 4.59762 2.32147 5.56571 1.88167 6.6312C1.44186 7.69669 1.21692 8.83858 1.21975 9.99126C1.22259 11.1439 1.45315 12.2847 1.8982 13.348C2.34324 14.4113 2.994 15.3762 3.81307 16.1873C4.62413 17.0064 5.58903 17.6571 6.65234 18.1022C7.71565 18.5472 8.85642 18.7778 10.0091 18.7806C11.1618 18.7834 12.3037 18.5585 13.3692 18.1187C14.4347 17.6789 15.4027 17.0329 16.2178 16.2178C17.0329 15.4027 17.6789 14.4347 18.1187 13.3692C18.5585 12.3037 18.7834 11.1618 18.7806 10.0091C18.7778 8.85642 18.5472 7.71565 18.1022 6.65234C17.6571 5.58903 17.0064 4.62413 16.1873 3.81307ZM6.89862 16.8303C6.72262 16.5831 6.55989 16.3267 6.41112 16.0623C6.33299 15.9182 6.22206 15.7006 6.14823 15.5494C6.13131 15.5135 6.10708 15.4816 6.0771 15.4557C6.04713 15.4297 6.01206 15.4103 5.97415 15.3987C5.93623 15.387 5.89631 15.3835 5.85694 15.3882C5.81756 15.3929 5.77961 15.4057 5.7455 15.426C5.57753 15.5201 5.35487 15.6494 5.19354 15.7553C4.85523 15.4981 4.54644 15.2043 4.27284 14.8791C4.65121 14.612 5.04819 14.3724 5.46073 14.1619C5.53339 14.1228 5.56893 14.0783 5.54589 13.9986C5.24363 12.9525 5.05902 11.8759 4.9955 10.7889C4.9936 10.7454 4.97515 10.7043 4.94391 10.674C4.91268 10.6437 4.87103 10.6265 4.82753 10.626H2.61112C2.59228 10.6262 2.574 10.6196 2.55964 10.6074C2.54528 10.5952 2.53582 10.5782 2.533 10.5596C2.50845 10.3741 2.49748 10.1872 2.50018 10.0002C2.49751 9.81354 2.50874 9.62696 2.53378 9.44198C2.5366 9.42335 2.54606 9.40637 2.56042 9.39417C2.57478 9.38196 2.59306 9.37536 2.6119 9.37557H4.82831C4.91776 9.37557 4.9912 9.32401 4.99589 9.23378C5.05857 8.15124 5.242 7.0791 5.54276 6.03729C5.55396 5.99926 5.55155 5.95852 5.53593 5.92208C5.52031 5.88565 5.49248 5.8558 5.45721 5.83768C5.05353 5.63084 4.66412 5.39724 4.29159 5.13846C4.56374 4.81339 4.86643 4.51515 5.1955 4.24784C5.35487 4.35253 5.56268 4.47089 5.72909 4.56464C5.76576 4.58548 5.80632 4.59858 5.84826 4.60311C5.8902 4.60765 5.93262 4.60353 5.9729 4.591C6.01318 4.57848 6.05046 4.55782 6.08243 4.53031C6.11441 4.50279 6.14039 4.46901 6.15878 4.43104C6.23221 4.27987 6.31503 4.11151 6.3955 3.96698C6.54491 3.69926 6.70842 3.43965 6.88534 3.18925C7.85933 2.73039 8.92353 2.49497 10.0002 2.50018C11.1307 2.50018 12.1838 2.77362 13.1459 3.22128C13.3158 3.45979 13.4723 3.70757 13.6146 3.96346C13.7158 4.1455 13.8232 4.36854 13.9139 4.5619C13.9236 4.58249 13.9374 4.60088 13.9545 4.61595C13.9716 4.63102 13.9915 4.64245 14.0132 4.64954C14.0348 4.65663 14.0577 4.65924 14.0804 4.6572C14.103 4.65516 14.1251 4.64852 14.1451 4.63768C14.3553 4.52401 14.583 4.39315 14.7834 4.26151C15.1134 4.53145 15.4169 4.83229 15.6896 5.15995C15.3273 5.41123 14.948 5.63716 14.5545 5.83612C14.5192 5.85425 14.4913 5.88419 14.4757 5.92072C14.4602 5.95726 14.4579 5.99809 14.4693 6.03612C14.775 7.07085 14.9566 8.13822 15.0103 9.21581C15.0124 9.25903 15.031 9.2998 15.0623 9.32974C15.0935 9.35967 15.135 9.3765 15.1783 9.37675L17.39 9.37401C17.4089 9.3738 17.4272 9.3804 17.4415 9.3926C17.4559 9.40481 17.4653 9.42179 17.4682 9.44042C17.5137 9.81168 17.5137 10.1871 17.4682 10.5584C17.4655 10.5772 17.4561 10.5943 17.4417 10.6067C17.4274 10.619 17.409 10.6258 17.39 10.6256H15.1764C15.1328 10.626 15.0911 10.6432 15.0599 10.6735C15.0286 10.7038 15.0102 10.745 15.0084 10.7885C14.9476 11.864 14.7658 12.9293 14.4666 13.9642C14.4553 14.0027 14.4576 14.0439 14.4732 14.0809C14.4888 14.1178 14.5167 14.1482 14.5521 14.167C14.7474 14.2682 14.965 14.381 15.1525 14.4959C15.34 14.6107 15.5256 14.7334 15.7045 14.8607C15.4338 15.1869 15.133 15.4867 14.806 15.7564C14.7107 15.6935 14.5974 15.6221 14.4998 15.5635C14.4326 15.5244 14.3088 15.4553 14.24 15.4166C14.0908 15.333 13.9322 15.3955 13.8576 15.5494C13.783 15.7033 13.6689 15.924 13.5892 16.067C13.4424 16.3298 13.2814 16.5845 13.1068 16.8299C12.1451 17.2803 11.1307 17.5002 10.0002 17.5002C8.86971 17.5002 7.86073 17.2803 6.89862 16.8303Z" fill="#718096"/>
</svg>
