<svg width="20" height="20" viewBox="0 0 20 20" fill="none" xmlns="http://www.w3.org/2000/svg">
<g clip-path="url(#clip0_2204_4028)">
<mask id="mask0_2204_4028" style="mask-type:luminance" maskUnits="userSpaceOnUse" x="0" y="0" width="20" height="20">
<path d="M0 0H20V20H0V0Z" fill="white"/>
</mask>
<g mask="url(#mask0_2204_4028)">
<mask id="mask1_2204_4028" style="mask-type:luminance" maskUnits="userSpaceOnUse" x="0" y="0" width="20" height="20">
<path d="M0 0H20V20H0V0Z" fill="white"/>
</mask>
<g mask="url(#mask1_2204_4028)">
<path d="M5.85716 16.3247C4.96652 16.3247 4.1292 15.9779 3.49944 15.3481C2.1994 14.0481 2.1994 11.9327 3.49944 10.6327L6.44564 7.68646C7.74572 6.38642 9.86104 6.38642 11.1611 7.68646C11.6928 8.21818 12.022 8.89298 12.113 9.63794C12.155 9.9811 11.9107 10.2933 11.5676 10.3353C11.2242 10.3773 10.9122 10.133 10.8702 9.78978C10.8134 9.32506 10.6079 8.9039 10.2758 8.57178C9.46392 7.7599 8.14284 7.75982 7.33096 8.57178L4.38476 11.518C3.57284 12.3299 3.57284 13.6509 4.38476 14.4629C4.77804 14.8562 5.30096 15.0728 5.85716 15.0728C6.41336 15.0728 6.93632 14.8562 7.3296 14.4629L8.103 13.6895C8.34744 13.445 8.74388 13.445 8.98832 13.6895C9.23276 13.9339 9.23276 14.3303 8.98832 14.5747L8.21492 15.3481C7.58516 15.9779 6.7478 16.3247 5.85716 16.3247Z" fill="#9C9C9C"/>
<path d="M11.1971 13.3403C10.3432 13.3403 9.48938 13.0153 8.83934 12.3653C8.30766 11.8336 7.9785 11.1588 7.8875 10.4139C7.84554 10.0707 8.08978 9.75845 8.43294 9.71653C8.77622 9.67449 9.0883 9.91881 9.13026 10.262C9.18706 10.7268 9.39258 11.1479 9.72466 11.48C10.5366 12.2919 11.8577 12.2919 12.6695 11.48L15.6157 8.53381C16.009 8.14049 16.2256 7.61757 16.2256 7.06137C16.2256 6.50517 16.009 5.98229 15.6157 5.58897C15.2224 5.19565 14.6995 4.97905 14.1433 4.97905C13.5871 4.97905 13.0641 5.19561 12.6709 5.58893L11.8975 6.36237C11.653 6.60681 11.2566 6.60681 11.0121 6.36237C10.7677 6.11789 10.7677 5.72153 11.0121 5.47705L11.7855 4.70365C12.4153 4.07389 13.2527 3.72705 14.1433 3.72705C15.0339 3.72705 15.8713 4.07385 16.501 4.70365C17.1308 5.33341 17.4776 6.17073 17.4776 7.06137C17.4776 7.95201 17.1308 8.78933 16.501 9.41909L13.5548 12.3653C12.9048 13.0153 12.0509 13.3403 11.1971 13.3403Z" fill="#9C9C9C"/>
</g>
</g>
</g>
<defs>
<clipPath id="clip0_2204_4028">
<rect width="20" height="20" fill="white"/>
</clipPath>
</defs>
</svg>
