<svg width="24" height="24" viewBox="0 0 24 24" fill="none" xmlns="http://www.w3.org/2000/svg">
<path d="M4.94644 5.31806H19.0089C19.1732 5.31798 19.3373 5.3284 19.5002 5.34926C19.445 4.96156 19.3118 4.58906 19.1088 4.25423C18.9057 3.91939 18.6369 3.62914 18.3186 3.40099C18.0003 3.17284 17.6391 3.01151 17.2568 2.92672C16.8745 2.84193 16.4789 2.83545 16.094 2.90766L4.52895 4.88212H4.51577C3.78983 5.02094 3.14427 5.43167 2.71094 6.03041C3.36379 5.56605 4.14529 5.31702 4.94644 5.31806Z" fill="white"/>
<path d="M19.0088 6.37471H4.94629C4.20062 6.37552 3.48572 6.6721 2.95845 7.19937C2.43118 7.72664 2.1346 8.44154 2.13379 9.18721V17.6247C2.1346 18.3704 2.43118 19.0853 2.95845 19.6125C3.48572 20.1398 4.20062 20.4364 4.94629 20.4372H19.0088C19.7545 20.4364 20.4694 20.1398 20.9966 19.6125C21.5239 19.0853 21.8205 18.3704 21.8213 17.6247V9.18721C21.8205 8.44154 21.5239 7.72664 20.9966 7.19937C20.4694 6.6721 19.7545 6.37552 19.0088 6.37471ZM16.9214 14.8122C16.6433 14.8122 16.3714 14.7297 16.1401 14.5752C15.9089 14.4207 15.7286 14.2011 15.6222 13.9441C15.5157 13.6871 15.4879 13.4044 15.5422 13.1316C15.5964 12.8588 15.7303 12.6083 15.927 12.4116C16.1237 12.2149 16.3742 12.081 16.647 12.0267C16.9198 11.9725 17.2026 12.0003 17.4595 12.1068C17.7165 12.2132 17.9361 12.3934 18.0906 12.6247C18.2452 12.8559 18.3276 13.1278 18.3276 13.406C18.3276 13.7789 18.1795 14.1366 17.9157 14.4003C17.652 14.664 17.2943 14.8122 16.9214 14.8122Z" fill="white"/>
<path d="M2.15576 12.1513V7.7787C2.15576 6.82641 2.68311 5.22987 4.51343 4.88402C6.06689 4.59267 7.60498 4.59267 7.60498 4.59267C7.60498 4.59267 8.61572 5.29579 7.78076 5.29579C6.9458 5.29579 6.96777 6.37245 7.78076 6.37245C8.59375 6.37245 7.78076 7.40517 7.78076 7.40517L4.50684 11.1185L2.15576 12.1513Z" fill="white"/>
</svg>
