<svg width="24" height="24" viewBox="0 0 24 24" fill="none" xmlns="http://www.w3.org/2000/svg">
<path d="M8.48389 20.4373C9.26054 20.4373 9.89014 19.8077 9.89014 19.031C9.89014 18.2544 9.26054 17.6248 8.48389 17.6248C7.70724 17.6248 7.07764 18.2544 7.07764 19.031C7.07764 19.8077 7.70724 20.4373 8.48389 20.4373Z" fill="white"/>
<path d="M18.3276 20.4373C19.1043 20.4373 19.7339 19.8077 19.7339 19.031C19.7339 18.2544 19.1043 17.6248 18.3276 17.6248C17.551 17.6248 16.9214 18.2544 16.9214 19.031C16.9214 19.8077 17.551 20.4373 18.3276 20.4373Z" fill="white"/>
<path d="M20.8237 6.05781C20.7249 5.93698 20.6005 5.83966 20.4594 5.77292C20.3183 5.70618 20.1642 5.6717 20.0081 5.67197H6.63335L6.36396 4.14355C6.33524 3.98074 6.25007 3.83327 6.12341 3.72702C5.99675 3.62078 5.8367 3.56256 5.67139 3.56259H2.85889C2.67241 3.56259 2.49356 3.63667 2.3617 3.76853C2.22984 3.90039 2.15576 4.07924 2.15576 4.26572C2.15576 4.4522 2.22984 4.63104 2.3617 4.7629C2.49356 4.89476 2.67241 4.96884 2.85889 4.96884H5.08164L7.08818 16.341C7.11691 16.5038 7.20208 16.6513 7.32874 16.7575C7.4554 16.8638 7.61544 16.922 7.78076 16.922H19.0308C19.2172 16.922 19.3961 16.8479 19.5279 16.716C19.6598 16.5842 19.7339 16.4053 19.7339 16.2188C19.7339 16.0324 19.6598 15.8535 19.5279 15.7217C19.3961 15.5898 19.2172 15.5157 19.0308 15.5157H8.37051L8.12265 14.1095H18.7425C18.9863 14.1092 19.2226 14.0246 19.4112 13.8701C19.5999 13.7157 19.7294 13.5007 19.7778 13.2618L21.0434 6.93364C21.0739 6.78049 21.0701 6.62248 21.0321 6.47102C20.9941 6.31956 20.9229 6.17842 20.8237 6.05781Z" fill="white"/>
</svg>
