<svg width="16" height="16" viewBox="0 0 16 16" fill="none" xmlns="http://www.w3.org/2000/svg">
<g clip-path="url(#clip0_2312_2124)">
<path d="M10.5 0H5.5C4.96957 0 4.46086 0.210714 4.08579 0.585786C3.71071 0.960859 3.5 1.46957 3.5 2V14C3.5 14.5304 3.71071 15.0391 4.08579 15.4142C4.46086 15.7893 4.96957 16 5.5 16H10.5C11.0304 16 11.5391 15.7893 11.9142 15.4142C12.2893 15.0391 12.5 14.5304 12.5 14V2C12.5 1.46957 12.2893 0.960859 11.9142 0.585786C11.5391 0.210714 11.0304 0 10.5 0ZM11.5 14C11.5 14.2652 11.3946 14.5196 11.2071 14.7071C11.0196 14.8946 10.7652 15 10.5 15H5.5C5.23478 15 4.98043 14.8946 4.79289 14.7071C4.60536 14.5196 4.5 14.2652 4.5 14V2C4.5 1.73478 4.60536 1.48043 4.79289 1.29289C4.98043 1.10536 5.23478 1 5.5 1H5.85469C5.90304 0.999824 5.95039 1.01378 5.99092 1.04015C6.03145 1.06652 6.06339 1.10416 6.08281 1.14844C6.16045 1.32717 6.28862 1.47932 6.45157 1.58619C6.61451 1.69306 6.80513 1.75 7 1.75H9C9.19487 1.75 9.38549 1.69306 9.54843 1.58619C9.71138 1.47932 9.83955 1.32717 9.91719 1.14844C9.93661 1.10416 9.96855 1.06652 10.0091 1.04015C10.0496 1.01378 10.097 0.999824 10.1453 1H10.5C10.7652 1 11.0196 1.10536 11.2071 1.29289C11.3946 1.48043 11.5 1.73478 11.5 2V14Z" fill="#2D3748"/>
<path d="M10.5 1.5C10.4424 1.49965 10.3855 1.51271 10.3338 1.53814C10.2821 1.56358 10.2371 1.6007 10.2022 1.64656C10.0626 1.83378 9.88124 1.98583 9.67253 2.09059C9.46382 2.19536 9.23353 2.24994 9 2.25H7C6.76647 2.24994 6.53618 2.19536 6.32747 2.09059C6.11876 1.98583 5.93739 1.83378 5.79781 1.64656C5.76295 1.6007 5.71789 1.56358 5.6662 1.53814C5.61451 1.51271 5.55761 1.49965 5.5 1.5C5.36739 1.5 5.24021 1.55268 5.14645 1.64645C5.05268 1.74021 5 1.86739 5 2V14C5 14.1326 5.05268 14.2598 5.14645 14.3536C5.24021 14.4473 5.36739 14.5 5.5 14.5H10.5C10.6326 14.5 10.7598 14.4473 10.8536 14.3536C10.9473 14.2598 11 14.1326 11 14V2C11 1.86739 10.9473 1.74021 10.8536 1.64645C10.7598 1.55268 10.6326 1.5 10.5 1.5Z" fill="#2D3748"/>
<path d="M10.5 0H5.5C4.96957 0 4.46086 0.210714 4.08579 0.585786C3.71071 0.960859 3.5 1.46957 3.5 2V14C3.5 14.5304 3.71071 15.0391 4.08579 15.4142C4.46086 15.7893 4.96957 16 5.5 16H10.5C11.0304 16 11.5391 15.7893 11.9142 15.4142C12.2893 15.0391 12.5 14.5304 12.5 14V2C12.5 1.46957 12.2893 0.960859 11.9142 0.585786C11.5391 0.210714 11.0304 0 10.5 0ZM11.5 14C11.5 14.2652 11.3946 14.5196 11.2071 14.7071C11.0196 14.8946 10.7652 15 10.5 15H5.5C5.23478 15 4.98043 14.8946 4.79289 14.7071C4.60536 14.5196 4.5 14.2652 4.5 14V2C4.5 1.73478 4.60536 1.48043 4.79289 1.29289C4.98043 1.10536 5.23478 1 5.5 1H5.85469C5.90304 0.999824 5.95039 1.01378 5.99092 1.04015C6.03145 1.06652 6.06339 1.10416 6.08281 1.14844C6.16045 1.32717 6.28862 1.47932 6.45157 1.58619C6.61451 1.69306 6.80513 1.75 7 1.75H9C9.19487 1.75 9.38549 1.69306 9.54843 1.58619C9.71138 1.47932 9.83955 1.32717 9.91719 1.14844C9.93661 1.10416 9.96855 1.06652 10.0091 1.04015C10.0496 1.01378 10.097 0.999824 10.1453 1H10.5C10.7652 1 11.0196 1.10536 11.2071 1.29289C11.3946 1.48043 11.5 1.73478 11.5 2V14Z" fill="#2D3748"/>
</g>
<defs>
<clipPath id="clip0_2312_2124">
<rect width="16" height="16" fill="white"/>
</clipPath>
</defs>
</svg>
