<svg width="13" height="13" viewBox="0 0 13 13" fill="none" xmlns="http://www.w3.org/2000/svg">
<g clip-path="url(#clip0_2211_8312)">
<path d="M10.4495 5.96873H7.03149C6.72069 5.96873 6.42262 5.84527 6.20285 5.6255C5.98308 5.40573 5.85962 5.10766 5.85962 4.79686V1.37889C5.85962 1.35299 5.84933 1.32815 5.83102 1.30984C5.8127 1.29152 5.78786 1.28123 5.76196 1.28123H3.51587C3.10147 1.28123 2.70404 1.44585 2.41101 1.73888C2.11799 2.03191 1.95337 2.42933 1.95337 2.84373V10.6562C1.95337 11.0706 2.11799 11.4681 2.41101 11.7611C2.70404 12.0541 3.10147 12.2187 3.51587 12.2187H8.98462C9.39902 12.2187 9.79645 12.0541 10.0895 11.7611C10.3825 11.4681 10.5471 11.0706 10.5471 10.6562V6.06639C10.5471 6.04049 10.5368 6.01565 10.5185 5.99734C10.5002 5.97902 10.4754 5.96873 10.4495 5.96873ZM8.20337 9.87498H4.29712C4.19352 9.87498 4.09416 9.83383 4.02091 9.76057C3.94765 9.68732 3.90649 9.58796 3.90649 9.48436C3.90649 9.38076 3.94765 9.2814 4.02091 9.20815C4.09416 9.13489 4.19352 9.09373 4.29712 9.09373H8.20337C8.30697 9.09373 8.40633 9.13489 8.47958 9.20815C8.55284 9.2814 8.59399 9.38076 8.59399 9.48436C8.59399 9.58796 8.55284 9.68732 8.47958 9.76057C8.40633 9.83383 8.30697 9.87498 8.20337 9.87498ZM8.20337 7.92186H4.29712C4.19352 7.92186 4.09416 7.8807 4.02091 7.80745C3.94765 7.73419 3.90649 7.63483 3.90649 7.53123C3.90649 7.42763 3.94765 7.32828 4.02091 7.25502C4.09416 7.18176 4.19352 7.14061 4.29712 7.14061H8.20337C8.30697 7.14061 8.40633 7.18176 8.47958 7.25502C8.55284 7.32828 8.59399 7.42763 8.59399 7.53123C8.59399 7.63483 8.55284 7.73419 8.47958 7.80745C8.40633 7.8807 8.30697 7.92186 8.20337 7.92186Z" fill="white"/>
<path d="M10.2351 5.10423L6.72412 1.59324C6.71729 1.58645 6.70861 1.58183 6.69917 1.57997C6.68972 1.5781 6.67994 1.57907 6.67104 1.58275C6.66214 1.58642 6.65453 1.59265 6.64916 1.60064C6.6438 1.60864 6.64091 1.61804 6.64087 1.62766V4.79685C6.64087 4.90045 6.68202 4.99981 6.75528 5.07307C6.82854 5.14632 6.92789 5.18748 7.03149 5.18748H10.2007C10.2103 5.18744 10.2197 5.18455 10.2277 5.17918C10.2357 5.17382 10.2419 5.16621 10.2456 5.15731C10.2493 5.14841 10.2502 5.13863 10.2484 5.12918C10.2465 5.11974 10.2419 5.11105 10.2351 5.10423Z" fill="white"/>
</g>
<defs>
<clipPath id="clip0_2211_8312">
<rect width="12.5" height="12.5" fill="white" transform="translate(0.000244141 0.499985)"/>
</clipPath>
</defs>
</svg>
