<svg width="13" height="14" viewBox="0 0 13 14" fill="none" xmlns="http://www.w3.org/2000/svg">
<path d="M2.58228 3.28787H10.3948C10.486 3.28782 10.5772 3.29361 10.6677 3.3052C10.637 3.08981 10.5631 2.88287 10.4502 2.69685C10.3374 2.51083 10.1881 2.34958 10.0113 2.22283C9.83443 2.09608 9.63377 2.00645 9.42136 1.95935C9.20896 1.91224 8.98922 1.90864 8.77539 1.94876L2.35034 3.04568H2.34302C1.93972 3.1228 1.58107 3.35098 1.34033 3.68362C1.70303 3.42564 2.13719 3.28729 2.58228 3.28787Z" fill="white"/>
<path d="M10.3948 3.87492H2.58228C2.16801 3.87538 1.77085 4.04014 1.47792 4.33307C1.18499 4.626 1.02023 5.02316 1.01978 5.43742V10.1249C1.02023 10.5392 1.18499 10.9363 1.47792 11.2293C1.77085 11.5222 2.16801 11.687 2.58228 11.6874H10.3948C10.809 11.687 11.2062 11.5222 11.4991 11.2293C11.7921 10.9363 11.9568 10.5392 11.9573 10.1249V5.43742C11.9568 5.02316 11.7921 4.626 11.4991 4.33307C11.2062 4.04014 10.809 3.87538 10.3948 3.87492ZM9.23511 8.56242C9.08059 8.56242 8.92954 8.5166 8.80107 8.43076C8.67259 8.34491 8.57246 8.2229 8.51332 8.08014C8.45419 7.93739 8.43872 7.78031 8.46887 7.62876C8.49901 7.47721 8.57342 7.33801 8.68268 7.22875C8.79194 7.11949 8.93114 7.04508 9.08269 7.01493C9.23424 6.98479 9.39132 7.00026 9.53408 7.05939C9.67683 7.11852 9.79885 7.21866 9.88469 7.34713C9.97054 7.47561 10.0164 7.62666 10.0164 7.78117C10.0164 7.98837 9.93404 8.18709 9.78753 8.3336C9.64102 8.48011 9.44231 8.56242 9.23511 8.56242Z" fill="white"/>
<path d="M1.03198 7.08409V4.65489C1.03198 4.12584 1.32495 3.23888 2.3418 3.04674C3.20483 2.88487 4.05933 2.88487 4.05933 2.88487C4.05933 2.88487 4.62085 3.2755 4.15698 3.2755C3.69311 3.2755 3.70532 3.87364 4.15698 3.87364C4.60864 3.87364 4.15698 4.44737 4.15698 4.44737L2.33813 6.51036L1.03198 7.08409Z" fill="white"/>
</svg>
