<svg width="20" height="20" viewBox="0 0 20 20" fill="none" xmlns="http://www.w3.org/2000/svg">
<g clip-path="url(#clip0_2252_5342)">
<mask id="mask0_2252_5342" style="mask-type:luminance" maskUnits="userSpaceOnUse" x="0" y="0" width="20" height="20">
<path d="M0 0H20V20H0V0Z" fill="white"/>
</mask>
<g mask="url(#mask0_2252_5342)">
<mask id="mask1_2252_5342" style="mask-type:luminance" maskUnits="userSpaceOnUse" x="0" y="0" width="20" height="20">
<path d="M0 0H20V20H0V0Z" fill="white"/>
</mask>
<g mask="url(#mask1_2252_5342)">
<path d="M18.3339 3.94864C18.3337 3.9374 18.3329 3.92624 18.3322 3.91504C18.3315 3.90532 18.331 3.89556 18.3298 3.88596C18.3287 3.87592 18.3269 3.86596 18.3253 3.856C18.3236 3.84556 18.322 3.83508 18.3197 3.82484C18.3177 3.81568 18.3151 3.80668 18.3127 3.7976C18.3099 3.787 18.3072 3.77636 18.3039 3.766C18.301 3.75692 18.2974 3.74796 18.294 3.739C18.2903 3.72912 18.2868 3.71916 18.2826 3.70952C18.2785 3.70004 18.2738 3.69084 18.2692 3.68156C18.2648 3.6728 18.2607 3.66392 18.2559 3.6554C18.2507 3.64604 18.2449 3.637 18.2392 3.62788C18.2341 3.61972 18.2292 3.61148 18.2238 3.6036C18.2179 3.59512 18.2115 3.58692 18.2052 3.57868C18.1989 3.57052 18.1927 3.56232 18.1861 3.55448C18.1799 3.5472 18.1733 3.54024 18.1668 3.5332C18.1591 3.5248 18.1512 3.51661 18.1431 3.50864C18.1407 3.50636 18.1387 3.50388 18.1363 3.50164C18.1318 3.49748 18.1271 3.49404 18.1226 3.49004C18.114 3.4824 18.1053 3.475 18.0963 3.46784C18.0887 3.46188 18.081 3.45609 18.0731 3.45048C18.0645 3.44422 18.0557 3.43817 18.0467 3.43236C18.0039 3.40495 17.9579 3.38277 17.9098 3.36628C17.9 3.36294 17.8902 3.35985 17.8803 3.357C17.8706 3.35425 17.8608 3.35175 17.8509 3.34948C17.841 3.34713 17.831 3.34502 17.8209 3.34316C17.8105 3.34131 17.8001 3.33973 17.7897 3.3384C17.78 3.33709 17.7702 3.33601 17.7605 3.33516C17.7492 3.33429 17.7379 3.33371 17.7266 3.33344C17.7204 3.33328 17.7145 3.33252 17.7084 3.33252H2.29165C2.28565 3.33252 2.27981 3.33328 2.27385 3.33344C2.26229 3.33376 2.25077 3.33424 2.23925 3.3352C2.22965 3.336 2.22021 3.33712 2.21073 3.33836C2.20005 3.33971 2.18941 3.34133 2.17881 3.3432C2.16896 3.34502 2.15916 3.34709 2.14941 3.3494C2.08969 3.36308 2.03238 3.3857 1.97941 3.41648C1.97053 3.4216 1.96177 3.42688 1.95309 3.43248C1.94421 3.4382 1.93561 3.4442 1.92705 3.45036C1.91913 3.45604 1.91133 3.46176 1.90361 3.46788C1.89465 3.47496 1.88605 3.48244 1.87749 3.49C1.87297 3.494 1.86817 3.49748 1.86373 3.50164C1.86133 3.50388 1.85929 3.50636 1.85693 3.50864C1.84881 3.51661 1.84092 3.5248 1.83325 3.5332C1.82673 3.54024 1.82009 3.5472 1.81393 3.55448C1.80729 3.56232 1.80109 3.57052 1.79485 3.57868C1.78853 3.58692 1.78213 3.59512 1.77625 3.6036C1.77081 3.61148 1.76589 3.61972 1.76081 3.62788C1.75513 3.637 1.74925 3.64604 1.74409 3.6554C1.73933 3.66396 1.73521 3.67284 1.73085 3.68164C1.72629 3.69092 1.72149 3.70008 1.71741 3.70952C1.71321 3.7192 1.70969 3.72916 1.70597 3.73908C1.70261 3.74804 1.69905 3.75692 1.69613 3.766C1.69277 3.77636 1.69009 3.787 1.68729 3.7976C1.68489 3.80668 1.68229 3.81568 1.68029 3.82484C1.67805 3.83508 1.67645 3.84556 1.67473 3.856C1.67309 3.86596 1.67133 3.87592 1.67017 3.88596C1.66905 3.89556 1.66853 3.90532 1.66785 3.91504C1.66709 3.92624 1.66633 3.9374 1.66613 3.94864C1.66609 3.95196 1.66565 3.95516 1.66565 3.95852V16.0419C1.66565 16.3876 1.94589 16.6679 2.29165 16.6679H17.7084C18.0541 16.6679 18.3344 16.3876 18.3344 16.0419V3.95852C18.3344 3.95516 18.3339 3.95196 18.3339 3.94864ZM16.2644 4.58452L11.3567 9.82452C10.9996 10.2059 10.5177 10.4159 9.99997 10.4159C9.48225 10.4159 9.00045 10.2059 8.64329 9.82452L3.73565 4.58452H16.2644ZM2.91765 15.4159V5.54272L7.72945 10.6804C8.32585 11.3172 9.13225 11.6679 9.99997 11.6679C10.8676 11.6679 11.6741 11.3172 12.2706 10.6804L17.0824 5.54272V15.4159H2.91765Z" fill="#718096"/>
</g>
</g>
</g>
<defs>
<clipPath id="clip0_2252_5342">
<rect width="20" height="20" fill="white"/>
</clipPath>
</defs>
</svg>
