<svg width="20" height="20" viewBox="0 0 20 20" fill="none" xmlns="http://www.w3.org/2000/svg">
<path d="M9.99924 6.875C9.38117 6.875 8.77699 7.05828 8.26308 7.40166C7.74918 7.74504 7.34864 8.23309 7.11212 8.80411C6.87559 9.37513 6.81371 10.0035 6.93429 10.6097C7.05487 11.2158 7.35249 11.7727 7.78953 12.2097C8.22657 12.6467 8.78339 12.9444 9.38958 13.065C9.99577 13.1855 10.6241 13.1236 11.1951 12.8871C11.7661 12.6506 12.2542 12.2501 12.5976 11.7362C12.941 11.2223 13.1242 10.6181 13.1242 10C13.1218 9.17196 12.7917 8.37854 12.2062 7.79302C11.6207 7.20751 10.8273 6.87747 9.99924 6.875ZM16.7461 10C16.7445 10.292 16.7231 10.5836 16.6821 10.8727L18.584 12.3617C18.6668 12.4301 18.7227 12.5257 18.7415 12.6315C18.7603 12.7373 18.7409 12.8463 18.6867 12.9391L16.8875 16.0453C16.8328 16.1373 16.7475 16.207 16.6464 16.2422C16.5454 16.2774 16.4352 16.2759 16.3352 16.2379L14.0988 15.3395C13.6332 15.698 13.1236 15.9956 12.5824 16.225L12.2481 18.5992C12.2294 18.7056 12.1743 18.8021 12.0923 18.8724C12.0103 18.9426 11.9064 18.9822 11.7985 18.9844H8.20002C8.09403 18.9823 7.99186 18.9444 7.9102 18.8768C7.82854 18.8092 7.77221 18.7159 7.75041 18.6121L7.41604 16.2379C6.87341 16.0112 6.36344 15.7131 5.89963 15.3516L3.6633 16.25C3.56334 16.288 3.45316 16.2896 3.35213 16.2545C3.25111 16.2193 3.16572 16.1497 3.11096 16.0578L1.31174 12.952C1.25758 12.8592 1.23818 12.7502 1.257 12.6444C1.27582 12.5386 1.33164 12.443 1.41448 12.3746L3.31643 10.8855C3.27586 10.5921 3.25446 10.2963 3.25237 10C3.25399 9.708 3.27539 9.41645 3.31643 9.12734L1.41448 7.63828C1.33164 7.56988 1.27582 7.47425 1.257 7.36849C1.23818 7.26272 1.25758 7.15371 1.31174 7.06094L3.11096 3.95469C3.16566 3.86273 3.25103 3.79301 3.35205 3.75779C3.45308 3.72256 3.56329 3.72409 3.6633 3.76211L5.89963 4.66055C6.3653 4.30196 6.8749 4.00436 7.41604 3.775L7.75041 1.40078C7.76913 1.29443 7.82419 1.19788 7.9062 1.12763C7.9882 1.05738 8.09206 1.01779 8.20002 1.01562H11.7985C11.9045 1.01769 12.0066 1.05562 12.0883 1.12323C12.1699 1.19084 12.2263 1.28414 12.2481 1.38789L12.5824 3.76211C13.1258 3.98866 13.6364 4.28674 14.1008 4.64844L16.3352 3.75C16.4351 3.71195 16.5453 3.71036 16.6463 3.74551C16.7474 3.78066 16.8328 3.8503 16.8875 3.94219L18.6867 7.04844C18.7409 7.14121 18.7603 7.25022 18.7415 7.35599C18.7227 7.46175 18.6668 7.55738 18.584 7.62578L16.6821 9.11484C16.7226 9.40819 16.744 9.70387 16.7461 10Z" fill="#718096"/>
</svg>
