<svg width="12" height="12" viewBox="0 0 12 12" fill="none" xmlns="http://www.w3.org/2000/svg">
<g clip-path="url(#clip0_2211_7827)">
<path d="M11.2283 2.60997C11.223 2.5262 11.1897 2.44663 11.1339 2.384C11.078 2.32136 11.0027 2.27929 10.9201 2.2645C8.89273 1.90075 8.0464 1.63779 6.15452 0.783254C6.10599 0.761316 6.05334 0.749969 6.00007 0.749969C5.94681 0.749969 5.89415 0.761316 5.84562 0.783254C3.95374 1.63779 3.10741 1.90075 1.08007 2.2645C0.997446 2.27929 0.92217 2.32136 0.866293 2.384C0.810415 2.44663 0.777166 2.5262 0.771868 2.60997C0.681633 4.04224 0.874055 5.37677 1.34445 6.57654C1.72965 7.55517 2.29972 8.45045 3.02351 9.21349C4.27671 10.5431 5.60726 11.1206 5.86109 11.2228C5.95129 11.2593 6.05214 11.2593 6.14234 11.2228C6.39616 11.1206 7.72671 10.5431 8.97992 9.21349C9.70253 8.45017 10.2715 7.5549 10.6557 6.57654C11.1261 5.37677 11.3185 4.04224 11.2283 2.60997ZM8.15796 4.37036L5.56109 7.37036C5.5277 7.40905 5.48675 7.4405 5.44076 7.46279C5.39478 7.48508 5.34472 7.49773 5.29366 7.49997H5.2782C5.18005 7.5 5.08581 7.46154 5.0157 7.39286L3.86257 6.26318C3.82739 6.2287 3.79935 6.18764 3.78004 6.14233C3.76073 6.09702 3.75053 6.04835 3.75003 5.9991C3.74902 5.89963 3.78756 5.80383 3.85718 5.73279C3.9268 5.66174 4.02179 5.62125 4.12126 5.62024C4.22073 5.61923 4.31652 5.65777 4.38757 5.72739L5.25476 6.57794L7.59148 3.87958C7.6237 3.84234 7.66295 3.81181 7.70697 3.78973C7.751 3.76766 7.79894 3.75447 7.84806 3.75092C7.89718 3.74738 7.94652 3.75354 7.99326 3.76906C8.03999 3.78458 8.08322 3.80915 8.12046 3.84138C8.1577 3.8736 8.18823 3.91285 8.21031 3.95687C8.23238 4.0009 8.24557 4.04884 8.24912 4.09796C8.25267 4.14708 8.2465 4.19642 8.23098 4.24316C8.21546 4.2899 8.19089 4.33312 8.15866 4.37036H8.15796Z" fill="#219F70"/>
</g>
<defs>
<clipPath id="clip0_2211_7827">
<rect width="12" height="12" fill="white"/>
</clipPath>
</defs>
</svg>
