<svg width="15" height="15" viewBox="0 0 15 15" fill="none" xmlns="http://www.w3.org/2000/svg">
<path d="M12.5391 6.5625H8.4375C8.06454 6.5625 7.70685 6.41434 7.44313 6.15062C7.17941 5.8869 7.03125 5.52921 7.03125 5.15625V1.05469C7.03125 1.02361 7.0189 0.9938 6.99693 0.971823C6.97495 0.949847 6.94514 0.9375 6.91406 0.9375H4.21875C3.72147 0.9375 3.24456 1.13504 2.89292 1.48667C2.54129 1.83831 2.34375 2.31522 2.34375 2.8125V12.1875C2.34375 12.6848 2.54129 13.1617 2.89292 13.5133C3.24456 13.865 3.72147 14.0625 4.21875 14.0625H10.7812C11.2785 14.0625 11.7554 13.865 12.1071 13.5133C12.4587 13.1617 12.6562 12.6848 12.6562 12.1875V6.67969C12.6562 6.64861 12.6439 6.6188 12.6219 6.59682C12.5999 6.57485 12.5701 6.5625 12.5391 6.5625ZM9.84375 11.25H5.15625C5.03193 11.25 4.9127 11.2006 4.82479 11.1127C4.73689 11.0248 4.6875 10.9056 4.6875 10.7812C4.6875 10.6569 4.73689 10.5377 4.82479 10.4498C4.9127 10.3619 5.03193 10.3125 5.15625 10.3125H9.84375C9.96807 10.3125 10.0873 10.3619 10.1752 10.4498C10.2631 10.5377 10.3125 10.6569 10.3125 10.7812C10.3125 10.9056 10.2631 11.0248 10.1752 11.1127C10.0873 11.2006 9.96807 11.25 9.84375 11.25ZM9.84375 8.90625H5.15625C5.03193 8.90625 4.9127 8.85686 4.82479 8.76896C4.73689 8.68105 4.6875 8.56182 4.6875 8.4375C4.6875 8.31318 4.73689 8.19395 4.82479 8.10604C4.9127 8.01814 5.03193 7.96875 5.15625 7.96875H9.84375C9.96807 7.96875 10.0873 8.01814 10.1752 8.10604C10.2631 8.19395 10.3125 8.31318 10.3125 8.4375C10.3125 8.56182 10.2631 8.68105 10.1752 8.76896C10.0873 8.85686 9.96807 8.90625 9.84375 8.90625Z" fill="#A0AEC0"/>
<path d="M12.2818 5.5251L8.06865 1.31192C8.06046 1.30377 8.05004 1.29823 8.03871 1.29599C8.02737 1.29375 8.01563 1.29491 8.00495 1.29932C7.99428 1.30374 7.98514 1.31121 7.9787 1.3208C7.97226 1.33039 7.9688 1.34167 7.96875 1.35322V5.15625C7.96875 5.28057 8.01814 5.3998 8.10604 5.48771C8.19395 5.57562 8.31318 5.625 8.4375 5.625H12.2405C12.2521 5.62495 12.2634 5.62149 12.273 5.61505C12.2825 5.60861 12.29 5.59947 12.2944 5.5888C12.2988 5.57812 12.3 5.56638 12.2978 5.55504C12.2955 5.54371 12.29 5.53329 12.2818 5.5251Z" fill="#A0AEC0"/>
</svg>
