<svg width="24" height="25" viewBox="0 0 24 25" fill="none" xmlns="http://www.w3.org/2000/svg">
<path d="M11.9999 3.49994C7.03113 3.49994 2.99988 7.53119 2.99988 12.4999C2.99988 17.4687 7.03113 21.4999 11.9999 21.4999C16.9686 21.4999 20.9999 17.4687 20.9999 12.4999C20.9999 7.53119 16.9686 3.49994 11.9999 3.49994ZM11.7186 17.7499C11.5332 17.7499 11.3519 17.695 11.1978 17.5919C11.0436 17.4889 10.9234 17.3425 10.8525 17.1712C10.7815 16.9999 10.763 16.8114 10.7991 16.6295C10.8353 16.4477 10.9246 16.2806 11.0557 16.1495C11.1868 16.0184 11.3539 15.9291 11.5357 15.893C11.7176 15.8568 11.9061 15.8753 12.0774 15.9463C12.2487 16.0173 12.3951 16.1374 12.4981 16.2916C12.6011 16.4458 12.6561 16.627 12.6561 16.8124C12.6561 17.0611 12.5574 17.2995 12.3815 17.4753C12.2057 17.6512 11.9673 17.7499 11.7186 17.7499ZM13.2861 12.9687C12.5263 13.4787 12.4218 13.946 12.4218 14.3749C12.4218 14.549 12.3526 14.7159 12.2295 14.839C12.1065 14.962 11.9395 15.0312 11.7655 15.0312C11.5915 15.0312 11.4245 14.962 11.3015 14.839C11.1784 14.7159 11.1093 14.549 11.1093 14.3749C11.1093 13.3479 11.5818 12.5313 12.5539 11.8784C13.4577 11.2718 13.9686 10.8874 13.9686 10.0423C13.9686 9.46759 13.6405 9.03119 12.9613 8.70822C12.8014 8.63228 12.4457 8.55822 12.0078 8.56338C11.4585 8.57041 11.0319 8.70166 10.7033 8.96603C10.0836 9.46478 10.0311 10.0076 10.0311 10.0156C10.027 10.1017 10.0059 10.1863 9.96906 10.2643C9.93225 10.3423 9.88042 10.4123 9.81654 10.4703C9.75267 10.5283 9.67799 10.5732 9.59678 10.6023C9.51557 10.6315 9.42942 10.6443 9.34324 10.6402C9.25706 10.636 9.17254 10.6149 9.09451 10.5781C9.01648 10.5413 8.94647 10.4895 8.88846 10.4256C8.83046 10.3617 8.78561 10.287 8.75647 10.2058C8.72733 10.1246 8.71447 10.0385 8.71863 9.95228C8.72378 9.83837 8.803 8.81228 9.87972 7.94603C10.438 7.49697 11.1482 7.26353 11.9891 7.25322C12.5844 7.24619 13.1436 7.34697 13.5228 7.52603C14.6577 8.06275 15.2811 8.95759 15.2811 10.0423C15.2811 11.6281 14.2213 12.3401 13.2861 12.9687Z" fill="#E488CC"/>
</svg>
