<svg width="16" height="16" viewBox="0 0 16 16" fill="none" xmlns="http://www.w3.org/2000/svg">
<path d="M12.2187 15C11.6087 15 10.7519 14.7794 9.46873 14.0625C7.90842 13.1875 6.70154 12.3797 5.14967 10.8319C3.65342 9.33656 2.9253 8.36844 1.90623 6.51406C0.754983 4.42031 0.951233 3.32281 1.17061 2.85375C1.43186 2.29312 1.81748 1.95781 2.31592 1.625C2.59903 1.43951 2.89863 1.28051 3.21092 1.15C3.24217 1.13656 3.27123 1.12375 3.29717 1.11219C3.45186 1.0425 3.68623 0.937187 3.98311 1.04969C4.18123 1.12406 4.35811 1.27625 4.63498 1.54969C5.2028 2.10969 5.97873 3.35687 6.26498 3.96937C6.45717 4.38219 6.58436 4.65469 6.58467 4.96031C6.58467 5.31812 6.40467 5.59406 6.18623 5.89187C6.1453 5.94781 6.10467 6.00125 6.06529 6.05312C5.82748 6.36562 5.7753 6.45594 5.80967 6.61719C5.87936 6.94125 6.39904 7.90594 7.25311 8.75812C8.10717 9.61031 9.04405 10.0972 9.36936 10.1666C9.53748 10.2025 9.62967 10.1481 9.95217 9.90187C9.99842 9.86656 10.0459 9.83 10.0956 9.79344C10.4287 9.54562 10.6919 9.37031 11.0412 9.37031H11.0431C11.3472 9.37031 11.6075 9.50219 12.0387 9.71969C12.6012 10.0034 13.8859 10.7694 14.4494 11.3378C14.7234 11.6141 14.8762 11.7903 14.9509 11.9881C15.0634 12.2859 14.9575 12.5194 14.8884 12.6756C14.8769 12.7016 14.864 12.73 14.8506 12.7616C14.7191 13.0733 14.5591 13.3723 14.3728 13.6547C14.0406 14.1516 13.704 14.5362 13.1422 14.7978C12.8536 14.9343 12.5379 15.0034 12.2187 15Z" fill="#2D3748"/>
</svg>
