<svg width="24" height="25" viewBox="0 0 24 25" fill="none" xmlns="http://www.w3.org/2000/svg">
<path d="M16.0372 3.50006C15.1447 3.50006 14.4075 4.16531 14.2778 5.02331C13.9403 5.06906 13.611 5.18231 13.308 5.36156C12.9071 5.60278 12.5757 5.94404 12.3464 6.35189C12.1171 6.75974 11.9978 7.22018 12 7.68806V8.06306H12.75V8.75006H13.5V8.06306H14.25V8.75006H15V8.06306H15.75V8.75006H16.5V8.06306H17.25V7.68806C17.2522 7.22018 17.1329 6.75974 16.9036 6.35189C16.6743 5.94404 16.3429 5.60278 15.942 5.36156C15.6625 5.19654 15.3544 5.08584 15.0338 5.03531C15.0875 4.81021 15.216 4.61 15.3983 4.46737C15.5806 4.32474 15.8058 4.24814 16.0372 4.25006H19.2127C19.7933 4.25006 20.25 4.70756 20.25 5.29031V12.5001H10.497C10.5015 12.4553 10.498 12.4101 10.4865 12.3666C10.287 11.6016 9.615 11.0841 8.859 11.0841C8.748 11.0841 8.64525 11.1253 8.5365 11.1478C8.25075 10.5943 7.749 10.1766 7.113 10.1766V10.1781C6.50325 10.1781 5.97825 10.5216 5.6835 11.0181C5.47428 11.0632 5.27728 11.153 5.106 11.2813C4.7175 10.8808 4.1925 10.6318 3.621 10.6311C2.55375 10.6311 1.683 11.4523 1.53075 12.5001H1.5C1.09125 12.5001 0.75 12.8413 0.75 13.2501V14.7501C0.75 15.1588 1.09125 15.5001 1.5 15.5001V18.5001C1.5 20.1553 2.84475 21.5001 4.5 21.5001V22.2501H5.25V21.5001H18.75V22.2501H19.5V21.5001C21.1553 21.5001 22.5 20.1553 22.5 18.5001V15.5001C22.9088 15.5001 23.25 15.1588 23.25 14.7501V13.2501C23.25 12.8413 22.9088 12.5001 22.5 12.5001H21V5.29031C20.9992 4.81627 20.8108 4.36183 20.4758 4.02635C20.1409 3.69087 19.6868 3.50165 19.2127 3.50006H16.0372ZM14.625 5.74856C14.9467 5.74856 15.2685 5.83556 15.558 6.00806C16.026 6.28556 16.293 6.77606 16.4017 7.31306H12.8475C12.9562 6.77606 13.224 6.28556 13.692 6.00806C13.9815 5.83556 14.3033 5.74856 14.625 5.74856ZM12.75 9.50006V10.2501H13.5V9.50006H12.75ZM14.25 9.50006V10.2501H15V9.50006H14.25ZM15.75 9.50006V10.2501H16.5V9.50006H15.75ZM7.113 10.9281C7.53 10.9281 7.9005 11.2153 8.0145 11.6503C8.02804 11.702 8.05247 11.7502 8.08614 11.7916C8.11981 11.8331 8.16195 11.8669 8.20974 11.8907C8.25753 11.9146 8.30987 11.928 8.36325 11.93C8.41662 11.932 8.46981 11.9225 8.51925 11.9023C8.6295 11.8573 8.74425 11.8333 8.85975 11.8333C9.2655 11.8333 9.6 12.0778 9.735 12.5001H2.28525C2.42325 11.8521 2.97075 11.3811 3.621 11.3811C4.05 11.3811 4.4475 11.5911 4.70475 11.9436C4.70997 11.9513 4.71547 11.9588 4.72125 11.9661C4.74498 12.0314 4.78637 12.0888 4.84082 12.1319C4.89527 12.175 4.96063 12.2022 5.02961 12.2104C5.0986 12.2185 5.1685 12.2074 5.23151 12.1782C5.29453 12.1489 5.34819 12.1028 5.3865 12.0448C5.45098 11.953 5.53529 11.8769 5.63318 11.8221C5.73107 11.7673 5.84004 11.7353 5.952 11.7283C6.03711 11.7254 6.11868 11.6935 6.1833 11.638C6.24791 11.5826 6.29171 11.5067 6.3075 11.4231C6.471 11.1253 6.768 10.9281 7.113 10.9281ZM12.75 11.0001V11.7501H13.5V11.0001H12.75ZM14.25 11.0001V11.7501H15V11.0001H14.25ZM15.75 11.0001V11.7501H16.5V11.0001H15.75ZM1.5 13.2501H22.5V14.7501H1.5V13.2501ZM2.25 15.5001H21.75V18.5001C21.75 19.7526 20.7525 20.7501 19.5 20.7501H4.5C3.2475 20.7501 2.25 19.7526 2.25 18.5001V15.5001Z" fill="#2D3748"/>
</svg>
