<svg width="24" height="24" viewBox="0 0 24 24" fill="none" xmlns="http://www.w3.org/2000/svg">
<g clip-path="url(#clip0_2207_6802)">
<mask id="mask0_2207_6802" style="mask-type:luminance" maskUnits="userSpaceOnUse" x="0" y="0" width="24" height="24">
<path d="M0 0H24V24H0V0Z" fill="white"/>
</mask>
<g mask="url(#mask0_2207_6802)">
<mask id="mask1_2207_6802" style="mask-type:luminance" maskUnits="userSpaceOnUse" x="0" y="0" width="24" height="24">
<path d="M0 0H24V24H0V0Z" fill="white"/>
</mask>
<g mask="url(#mask1_2207_6802)">
<path d="M15.7792 8.22037C15.4892 7.93045 15.0093 7.93045 14.7194 8.22037L11.9998 10.9399L9.28021 8.22037C8.99029 7.93045 8.51034 7.93045 8.22037 8.22037C7.93045 8.51029 7.93045 8.99024 8.22037 9.28021L10.94 11.9997L8.22042 14.7193C7.93045 15.0093 7.93045 15.4892 8.22042 15.7792C8.37037 15.9291 8.56035 15.9991 8.75034 15.9991C8.94027 15.9991 9.13026 15.9291 9.28026 15.7792L11.9998 13.0596L14.7194 15.7792C14.8693 15.9291 15.0593 15.9991 15.2493 15.9991C15.4392 15.9991 15.6292 15.9291 15.7792 15.7792C16.0691 15.4892 16.0691 15.0093 15.7792 14.7193L13.0596 11.9997L15.7792 9.28021C16.0691 8.99024 16.0692 8.51029 15.7792 8.22037Z" fill="#121330"/>
<path d="M11.7601 2.00113C9.0905 2.06113 6.60088 3.17094 4.76119 5.10064C2.92149 7.04032 1.94167 9.56992 2.00162 12.2395C2.06162 14.9091 3.17143 17.3987 5.10112 19.2384C6.9808 21.0281 9.41042 21.9979 11.99 21.9979H12.2399C14.9095 21.9379 17.3991 20.8281 19.2388 18.8984C21.0785 16.9687 22.0583 14.4291 21.9983 11.7596C21.9384 9.09001 20.8286 6.6004 18.8989 4.7607C16.9592 2.921 14.4196 1.94118 11.76 2.00113H11.7601ZM18.149 17.8586C16.5793 19.4983 14.4696 20.4382 12.2 20.4882C9.94034 20.5482 7.77069 19.7083 6.13096 18.1485C4.49124 16.5788 3.55135 14.4691 3.50138 12.1995C3.45136 9.93985 4.28124 7.78019 5.85098 6.14046C7.42077 4.50073 9.53042 3.56089 11.8001 3.51088H12.01C14.1997 3.51088 16.2693 4.3408 17.8691 5.86048C19.5088 7.43027 20.4486 9.53992 20.4987 11.8096C20.5486 14.0592 19.7188 16.2189 18.1491 17.8586L18.149 17.8586Z" fill="#121330"/>
</g>
</g>
</g>
<defs>
<clipPath id="clip0_2207_6802">
<rect width="24" height="24" fill="white"/>
</clipPath>
</defs>
</svg>
