<svg width="24" height="25" viewBox="0 0 24 25" fill="none" xmlns="http://www.w3.org/2000/svg">
<path d="M10.9999 20.5C10.7166 20.5 10.4792 20.404 10.2879 20.212C10.0966 20.02 10.0006 19.7827 9.99991 19.5V13.5L4.19991 6.1C3.94991 5.76667 3.91257 5.41667 4.08791 5.05C4.26324 4.68333 4.56724 4.5 4.99991 4.5H18.9999C19.4332 4.5 19.7376 4.68333 19.9129 5.05C20.0882 5.41667 20.0506 5.76667 19.7999 6.1L13.9999 13.5V19.5C13.9999 19.7833 13.9039 20.021 13.7119 20.213C13.5199 20.405 13.2826 20.5007 12.9999 20.5H10.9999Z" fill="#E488CC"/>
</svg>
