<svg width="16" height="16" viewBox="0 0 16 16" fill="none" xmlns="http://www.w3.org/2000/svg">
<path d="M5 8C5 7.86739 5.05268 7.74021 5.14645 7.64645C5.24021 7.55268 5.36739 7.5 5.5 7.5H10V4.25C10 3.25 8.94406 2.5 8 2.5H3.25C2.78602 2.5005 2.34119 2.68503 2.01311 3.01311C1.68503 3.34119 1.5005 3.78602 1.5 4.25V11.75C1.5005 12.214 1.68503 12.6588 2.01311 12.9869C2.34119 13.315 2.78602 13.4995 3.25 13.5H8.25C8.71398 13.4995 9.15881 13.315 9.48689 12.9869C9.81497 12.6588 9.9995 12.214 10 11.75V8.5H5.5C5.36739 8.5 5.24021 8.44732 5.14645 8.35355C5.05268 8.25979 5 8.13261 5 8ZM14.3534 7.64656L11.8534 5.14656C11.7589 5.05675 11.633 5.00742 11.5027 5.00909C11.3723 5.01076 11.2477 5.0633 11.1555 5.1555C11.0633 5.2477 11.0108 5.37227 11.0091 5.50265C11.0074 5.63303 11.0568 5.75891 11.1466 5.85344L12.7928 7.5H10V8.5H12.7928L11.1466 10.1466C11.0982 10.1925 11.0595 10.2477 11.0328 10.3089C11.006 10.37 10.9918 10.4359 10.991 10.5027C10.9901 10.5694 11.0026 10.6356 11.0278 10.6974C11.0529 10.7593 11.0902 10.8154 11.1374 10.8626C11.1846 10.9098 11.2407 10.9471 11.3026 10.9722C11.3644 10.9974 11.4306 11.0099 11.4973 11.009C11.5641 11.0082 11.63 10.994 11.6911 10.9672C11.7523 10.9405 11.8075 10.9018 11.8534 10.8534L14.3534 8.35344C14.4471 8.25968 14.4998 8.13255 14.4998 8C14.4998 7.86745 14.4471 7.74032 14.3534 7.64656Z" fill="#2D3748"/>
</svg>
