<svg width="20" height="20" viewBox="0 0 20 20" fill="none" xmlns="http://www.w3.org/2000/svg">
<path d="M17.1912 13.3319C17.1263 13.2538 17.0627 13.1757 17.0002 13.1003C16.1408 12.0608 15.6209 11.4335 15.6209 8.49092C15.6209 6.96748 15.2564 5.71748 14.5381 4.77998C14.0084 4.0874 13.2924 3.56201 12.3486 3.17373C12.3365 3.16697 12.3256 3.15811 12.3166 3.14756C11.9771 2.01084 11.0482 1.24951 10.0006 1.24951C8.9529 1.24951 8.02439 2.01084 7.68494 3.14639C7.67588 3.15655 7.66518 3.16513 7.6533 3.17178C5.45095 4.07842 4.38064 5.81787 4.38064 8.48974C4.38064 11.4335 3.8615 12.0608 3.00134 13.0991C2.93884 13.1745 2.87517 13.2511 2.81033 13.3308C2.64283 13.5328 2.5367 13.7785 2.50451 14.0389C2.47232 14.2994 2.51542 14.5636 2.62869 14.8003C2.8697 15.3081 3.38338 15.6233 3.9697 15.6233H16.0357C16.6193 15.6233 17.1295 15.3085 17.3713 14.803C17.485 14.5663 17.5285 14.3018 17.4966 14.0411C17.4647 13.7804 17.3587 13.5343 17.1912 13.3319Z" fill="#718096"/>
<path d="M9.99977 18.75C10.5642 18.7495 11.1181 18.5963 11.6025 18.3066C12.0869 18.0168 12.4839 17.6014 12.7513 17.1043C12.7639 17.0805 12.7701 17.0538 12.7694 17.0269C12.7686 16.9999 12.7609 16.9736 12.747 16.9506C12.7331 16.9275 12.7134 16.9084 12.69 16.8952C12.6665 16.8819 12.64 16.875 12.613 16.875H7.38727C7.36028 16.8749 7.33374 16.8818 7.31021 16.895C7.28668 16.9082 7.26698 16.9273 7.25302 16.9504C7.23905 16.9735 7.23131 16.9998 7.23053 17.0268C7.22976 17.0537 7.23598 17.0804 7.2486 17.1043C7.51599 17.6013 7.91291 18.0167 8.39727 18.3065C8.88163 18.5962 9.43537 18.7495 9.99977 18.75Z" fill="#718096"/>
</svg>
