<svg width="24" height="24" viewBox="0 0 24 24" fill="none" xmlns="http://www.w3.org/2000/svg">
<path d="M13.4058 10.6056H19.5581C19.6016 10.6056 19.6433 10.6228 19.6741 10.6536C19.7049 10.6844 19.7222 10.7261 19.7222 10.7696V19.0313C19.7222 19.7742 19.4271 20.4865 18.9018 21.0118C18.3766 21.537 17.6642 21.8321 16.9214 21.8321H7.07764C6.33482 21.8321 5.62243 21.537 5.09719 21.0118C4.57194 20.4865 4.27686 19.7742 4.27686 19.0313V4.96884C4.27686 4.22603 4.57194 3.51364 5.09719 2.98839C5.62243 2.46314 6.33482 2.16806 7.07764 2.16806H11.1206C11.1641 2.16806 11.2058 2.18535 11.2366 2.21611C11.2674 2.24688 11.2847 2.28861 11.2847 2.33212V8.48447C11.2847 9.04701 11.5081 9.58652 11.9059 9.9843C12.3037 10.3821 12.8432 10.6056 13.4058 10.6056ZM8.48389 17.6368H15.5151C15.7047 17.6368 15.8865 17.5615 16.0206 17.4274C16.1547 17.2934 16.23 17.1116 16.23 16.922C16.23 16.7324 16.1547 16.5506 16.0206 16.4165C15.8865 16.2824 15.7047 16.2071 15.5151 16.2071H8.48389C8.2943 16.2071 8.11247 16.2824 7.97842 16.4165C7.84436 16.5506 7.76904 16.7324 7.76904 16.922C7.76904 17.1116 7.84436 17.2934 7.97842 17.4274C8.11247 17.5615 8.2943 17.6368 8.48389 17.6368ZM8.48389 14.1212H15.5151C15.7047 14.1212 15.8865 14.0459 16.0206 13.9118C16.1547 13.7778 16.23 13.5959 16.23 13.4063C16.23 13.2168 16.1547 13.0349 16.0206 12.9009C15.8865 12.7668 15.7047 12.6915 15.5151 12.6915H8.48389C8.2943 12.6915 8.11247 12.7668 7.97842 12.9009C7.84436 13.0349 7.76904 13.2168 7.76904 13.4063C7.76904 13.5959 7.84436 13.7778 7.97842 13.9118C8.11247 14.0459 8.2943 14.1212 8.48389 14.1212Z" fill="white" stroke="#E488CC" stroke-width="0.0234375"/>
<path d="M12.8442 2.72738L19.164 9.04711L12.8442 2.72738ZM12.8442 2.72738C12.8442 2.72738 12.8442 2.72737 12.8442 2.72737M12.8442 2.72738L12.8442 2.72737M12.8442 2.72737C12.8336 2.71679 12.82 2.70959 12.8053 2.70668C12.7906 2.70376 12.7753 2.70527 12.7614 2.71101C12.7475 2.71675 12.7357 2.72646 12.7273 2.73893C12.7189 2.75139 12.7144 2.76605 12.7144 2.78106V8.48558C12.7144 8.66895 12.7872 8.84481 12.9169 8.97447C13.0465 9.10414 13.2224 9.17698 13.4058 9.17698H19.1103C19.1253 9.17692 19.1399 9.17242 19.1524 9.16404C19.1649 9.15567 19.1746 9.1438 19.1803 9.12992C19.1861 9.11604 19.1876 9.10077 19.1847 9.08604C19.1817 9.07132 19.1746 9.05778 19.164 9.04713L12.8442 2.72737Z" fill="white" stroke="#E488CC" stroke-width="0.0234375"/>
</svg>
