<svg width="12" height="13" viewBox="0 0 12 13" fill="none" xmlns="http://www.w3.org/2000/svg">
<path d="M6.13021 2.87402C6.09532 2.84064 6.04889 2.82201 6.0006 2.82201C5.95231 2.82201 5.90589 2.84064 5.87099 2.87402L1.55615 6.99597C1.53783 7.0135 1.52325 7.03456 1.5133 7.05788C1.50335 7.08121 1.49823 7.10631 1.49826 7.13167L1.49756 11.0003C1.49756 11.1992 1.57658 11.3899 1.71723 11.5306C1.85788 11.6712 2.04865 11.7503 2.24756 11.7503H4.4999C4.59936 11.7503 4.69474 11.7108 4.76507 11.6404C4.83539 11.5701 4.8749 11.4747 4.8749 11.3753V8.18776C4.8749 8.13803 4.89465 8.09034 4.92982 8.05518C4.96498 8.02002 5.01267 8.00026 5.0624 8.00026H6.9374C6.98713 8.00026 7.03482 8.02002 7.06998 8.05518C7.10514 8.09034 7.1249 8.13803 7.1249 8.18776V11.3753C7.1249 11.4747 7.16441 11.5701 7.23473 11.6404C7.30506 11.7108 7.40044 11.7503 7.4999 11.7503H9.7513C9.95022 11.7503 10.141 11.6712 10.2816 11.5306C10.4223 11.3899 10.5013 11.1992 10.5013 11.0003V7.13167C10.5013 7.10631 10.4962 7.08121 10.4863 7.05788C10.4763 7.03456 10.4617 7.0135 10.4434 6.99597L6.13021 2.87402Z" fill="white"/>
<path d="M11.5059 6.22298L9.75282 4.54579V2.00072C9.75282 1.90126 9.71332 1.80588 9.64299 1.73555C9.57266 1.66523 9.47728 1.62572 9.37782 1.62572H8.25283C8.15337 1.62572 8.05799 1.66523 7.98766 1.73555C7.91734 1.80588 7.87783 1.90126 7.87783 2.00072V2.75072L6.52033 1.45275C6.3933 1.32431 6.20439 1.25072 6.00025 1.25072C5.79681 1.25072 5.60837 1.32431 5.48134 1.45298L0.49619 6.22251C0.350409 6.36314 0.332128 6.59447 0.464784 6.74681C0.498096 6.78526 0.538884 6.81654 0.584667 6.83872C0.630449 6.86091 0.680267 6.87356 0.73109 6.87588C0.781913 6.8782 0.832678 6.87016 0.880294 6.85224C0.92791 6.83433 0.971383 6.80691 1.00807 6.77165L5.87134 2.12447C5.90624 2.09109 5.95266 2.07246 6.00095 2.07246C6.04924 2.07246 6.09567 2.09109 6.13056 2.12447L10.9943 6.77165C11.066 6.84036 11.1619 6.87786 11.2612 6.87592C11.3604 6.87399 11.4548 6.83278 11.5238 6.76134C11.6677 6.61228 11.6557 6.36618 11.5059 6.22298Z" fill="white"/>
</svg>
