<svg width="17" height="10" viewBox="0 0 17 10" fill="none" xmlns="http://www.w3.org/2000/svg">
<path d="M5.12273 10V5.8075C5.12273 5.0925 4.80423 4.436 3.90073 4.436C2.99723 4.436 2.66573 5.0925 2.66573 5.8075V10H0.897732V2.98H2.66573V3.8185C2.94523 3.253 3.45223 2.785 4.38173 2.785C5.43473 2.785 6.16273 3.149 6.55273 3.851C6.92973 3.253 7.57323 2.785 8.48973 2.785C10.2252 2.785 11.1287 3.7015 11.1287 5.411V10H9.36073V5.8075C9.36073 5.0925 9.04223 4.436 8.13873 4.436C7.23523 4.436 6.90373 5.0925 6.90373 5.8075L6.89073 5.7945V10H5.12273ZM12.6434 6.49V5.45L15.1134 3.318C15.5424 2.9475 15.7114 2.707 15.7114 2.33C15.7114 1.7515 15.3019 1.5435 14.8014 1.5435C14.2359 1.5435 13.8784 1.862 13.7549 2.434L12.5589 2.226C12.8319 1.1275 13.6379 0.51 14.7884 0.51C15.9389 0.51 16.9009 1.0365 16.8749 2.343C16.8619 3.136 16.3614 3.721 16.0234 4.0135L14.3529 5.45H16.8749V6.49H12.6434Z" fill="white"/>
</svg>
