<svg width="20" height="20" viewBox="0 0 20 20" fill="none" xmlns="http://www.w3.org/2000/svg">
<g clip-path="url(#clip0_2928_7499)">
<mask id="mask0_2928_7499" style="mask-type:luminance" maskUnits="userSpaceOnUse" x="0" y="0" width="20" height="20">
<path d="M0 0H20V20H0V0Z" fill="white"/>
</mask>
<g mask="url(#mask0_2928_7499)">
<mask id="mask1_2928_7499" style="mask-type:luminance" maskUnits="userSpaceOnUse" x="0" y="0" width="20" height="20">
<path d="M0 0H20V20H0V0Z" fill="white"/>
</mask>
<g mask="url(#mask1_2928_7499)">
<path d="M8.97985 12.5852C8.98145 12.602 8.98345 12.6188 8.98625 12.6352C8.98865 12.6516 8.99145 12.6684 8.99465 12.6848C9.00145 12.7172 9.00985 12.75 9.01945 12.782C9.02901 12.814 9.04065 12.8456 9.05345 12.8764C9.06585 12.9072 9.08025 12.938 9.09625 12.9672C9.11185 12.9968 9.12901 13.0256 9.14741 13.0536C9.15661 13.0672 9.16665 13.0812 9.17625 13.0948C9.18625 13.108 9.19661 13.1216 9.20741 13.1344C9.21785 13.1472 9.22905 13.1604 9.24025 13.1728C9.25145 13.1852 9.26305 13.1976 9.27505 13.2092C9.28665 13.2212 9.29901 13.2328 9.31145 13.244C9.32385 13.2552 9.33665 13.2664 9.34985 13.2768C9.35765 13.2834 9.36585 13.2896 9.37401 13.2958V14.3944C9.37401 14.7401 9.65429 15.0204 10 15.0204C10.3458 15.0204 10.626 14.7401 10.626 14.3944V13.2952C10.6339 13.2891 10.6419 13.2832 10.6494 13.2768C10.6886 13.2449 10.7254 13.2101 10.7594 13.1728C10.7706 13.1604 10.7814 13.1472 10.7922 13.1344C10.8026 13.1216 10.813 13.108 10.823 13.0948C10.8529 13.0543 10.8797 13.0116 10.9034 12.9672C10.919 12.938 10.9334 12.9072 10.9462 12.8764C10.959 12.8456 10.9702 12.814 10.9802 12.782C10.9948 12.7339 11.0059 12.6849 11.0134 12.6352C11.0158 12.6188 11.0178 12.602 11.0198 12.5852C11.0263 12.5182 11.0263 12.4506 11.0198 12.3836C11.0178 12.3672 11.0158 12.3504 11.0134 12.3336C11.0058 12.2839 10.9947 12.2349 10.9802 12.1868C10.9702 12.1548 10.959 12.1232 10.9462 12.0924C10.9334 12.0616 10.919 12.0312 10.9034 12.0016C10.8878 11.9724 10.8702 11.9432 10.8518 11.9156C10.8426 11.9016 10.833 11.8876 10.823 11.8744C10.813 11.8608 10.8026 11.8476 10.7922 11.8344C10.7814 11.8216 10.7706 11.8088 10.7594 11.7964C10.7482 11.784 10.7362 11.7716 10.7246 11.7596C10.7126 11.748 10.7002 11.736 10.6878 11.7248C10.6754 11.7136 10.6626 11.7024 10.6494 11.692C10.6366 11.6816 10.6234 11.6712 10.6098 11.6612C10.5966 11.6512 10.5826 11.6416 10.5686 11.6324C10.5411 11.614 10.5118 11.5964 10.4826 11.5808C10.453 11.5652 10.4226 11.5508 10.3918 11.538C10.361 11.5252 10.329 11.514 10.2974 11.504C10.2654 11.4944 10.2326 11.486 10.1998 11.4796C10.1838 11.4764 10.167 11.4732 10.1506 11.4708C10.1338 11.4684 10.117 11.466 10.1006 11.4644C10.0336 11.458 9.96606 11.458 9.89901 11.4644C9.86559 11.4678 9.83236 11.4729 9.79945 11.4796C9.76666 11.4862 9.73421 11.4943 9.70221 11.504C9.67021 11.514 9.63865 11.5252 9.60785 11.538C9.57701 11.5508 9.54625 11.5652 9.51705 11.5808C9.47264 11.6045 9.43 11.6314 9.38945 11.6612C9.37625 11.6712 9.36261 11.6816 9.34985 11.692C9.33665 11.7024 9.32385 11.7136 9.31145 11.7248C9.28649 11.7474 9.26273 11.7713 9.24025 11.7964C9.21762 11.8213 9.19626 11.8473 9.17625 11.8744C9.14654 11.9148 9.1198 11.9573 9.09625 12.0016C9.08025 12.0312 9.06585 12.0616 9.05345 12.0924C9.04065 12.1232 9.02901 12.1548 9.01945 12.1868C9.00985 12.2188 9.00145 12.2516 8.99465 12.284C8.99145 12.3004 8.98865 12.3172 8.98625 12.3336C8.98345 12.3504 8.98145 12.3672 8.97985 12.3836C8.97825 12.4004 8.97701 12.4172 8.97581 12.434C8.97421 12.4676 8.97421 12.5012 8.97581 12.5348C8.97701 12.5516 8.97825 12.5684 8.97985 12.5852Z" fill="#718096"/>
<path d="M16.0413 8.33228H15.0007V6.4584C15.0007 3.81572 12.8507 1.66572 10.208 1.66572H9.79139C7.14871 1.66572 4.99871 3.81572 4.99871 6.4584V8.33228H3.95803C3.61227 8.33228 3.33203 8.61256 3.33203 8.95828V16.0418C3.33203 17.3059 4.36055 18.3344 5.62471 18.3344H14.3747C15.6388 18.3344 16.6673 17.3059 16.6673 16.0418V8.95828C16.6673 8.61256 16.3871 8.33228 16.0413 8.33228ZM6.25071 6.4584C6.25071 4.50604 7.83903 2.91772 9.79139 2.91772H10.208C12.1604 2.91772 13.7487 4.50604 13.7487 6.4584V8.33228H6.25071V6.4584ZM15.4153 16.0418C15.4153 16.6156 14.9485 17.0824 14.3747 17.0824H5.62471C5.05087 17.0824 4.58403 16.6156 4.58403 16.0418V9.58428H15.4153V16.0418Z" fill="#718096"/>
</g>
</g>
</g>
<defs>
<clipPath id="clip0_2928_7499">
<rect width="20" height="20" fill="white"/>
</clipPath>
</defs>
</svg>
