<svg width="20" height="20" viewBox="0 0 20 20" fill="none" xmlns="http://www.w3.org/2000/svg">
<g clip-path="url(#clip0_2928_7484)">
<mask id="mask0_2928_7484" style="mask-type:luminance" maskUnits="userSpaceOnUse" x="0" y="0" width="20" height="20">
<path d="M0 0H20V20H0V0Z" fill="white"/>
</mask>
<g mask="url(#mask0_2928_7484)">
<mask id="mask1_2928_7484" style="mask-type:luminance" maskUnits="userSpaceOnUse" x="0" y="0" width="20" height="20">
<path d="M0 0H20V20H0V0Z" fill="white"/>
</mask>
<g mask="url(#mask1_2928_7484)">
<path d="M18.3338 3.94852C18.3336 3.93728 18.3328 3.92612 18.332 3.91492C18.3314 3.9052 18.3308 3.89544 18.3297 3.88584C18.3286 3.8758 18.3268 3.86584 18.3252 3.85588C18.3234 3.84544 18.3218 3.83496 18.3196 3.82472C18.3176 3.81556 18.315 3.80656 18.3126 3.79748C18.3098 3.78688 18.3071 3.77624 18.3038 3.76588C18.3008 3.7568 18.2972 3.74784 18.2939 3.73888C18.2902 3.729 18.2867 3.71904 18.2825 3.7094C18.2784 3.69992 18.2736 3.69072 18.269 3.68144C18.2647 3.67268 18.2605 3.6638 18.2558 3.65528C18.2506 3.64592 18.2448 3.63688 18.2391 3.62776C18.234 3.6196 18.2291 3.61136 18.2236 3.60348C18.2178 3.595 18.2114 3.5868 18.205 3.57856C18.1988 3.5704 18.1926 3.5622 18.186 3.55436C18.1798 3.54708 18.1732 3.54012 18.1666 3.53308C18.159 3.52468 18.1511 3.51649 18.143 3.50852C18.1406 3.50624 18.1386 3.50376 18.1362 3.50152C18.1317 3.49736 18.127 3.49392 18.1224 3.48992C18.1139 3.48228 18.1052 3.47488 18.0962 3.46772C18.0886 3.46176 18.0809 3.45597 18.073 3.45036C18.0644 3.4441 18.0556 3.43805 18.0466 3.43224C18.0038 3.40483 17.9578 3.38265 17.9097 3.36616C17.8999 3.36282 17.8901 3.35973 17.8802 3.35688C17.8704 3.35413 17.8607 3.35163 17.8508 3.34936C17.8408 3.34701 17.8308 3.3449 17.8208 3.34304C17.8104 3.34119 17.8 3.33961 17.7896 3.33828C17.7799 3.33697 17.7701 3.33589 17.7604 3.33504C17.7491 3.33417 17.7378 3.33359 17.7264 3.33332C17.7203 3.33316 17.7144 3.3324 17.7082 3.3324H2.29153C2.28553 3.3324 2.27969 3.33316 2.27373 3.33332C2.26217 3.33364 2.25065 3.33412 2.23913 3.33508C2.22953 3.33588 2.22009 3.337 2.21061 3.33824C2.19993 3.33959 2.18929 3.34121 2.17869 3.34308C2.16884 3.3449 2.15903 3.34697 2.14929 3.34928C2.08957 3.36296 2.03226 3.38558 1.97929 3.41636C1.97041 3.42148 1.96165 3.42676 1.95297 3.43236C1.94409 3.43808 1.93549 3.44408 1.92693 3.45024C1.91901 3.45592 1.91121 3.46164 1.90349 3.46776C1.89453 3.47484 1.88593 3.48232 1.87737 3.48988C1.87285 3.49388 1.86805 3.49736 1.86361 3.50152C1.86121 3.50376 1.85917 3.50624 1.85681 3.50852C1.84869 3.51649 1.8408 3.52468 1.83313 3.53308C1.82661 3.54012 1.81997 3.54708 1.81381 3.55436C1.80717 3.5622 1.80097 3.5704 1.79473 3.57856C1.78841 3.5868 1.78201 3.595 1.77613 3.60348C1.77069 3.61136 1.76577 3.6196 1.76069 3.62776C1.75501 3.63688 1.74913 3.64592 1.74397 3.65528C1.73921 3.66384 1.73509 3.67272 1.73073 3.68152C1.72617 3.6908 1.72137 3.69996 1.71729 3.7094C1.71309 3.71908 1.70957 3.72904 1.70585 3.73896C1.70249 3.74792 1.69893 3.7568 1.69601 3.76588C1.69265 3.77624 1.68997 3.78688 1.68717 3.79748C1.68477 3.80656 1.68217 3.81556 1.68017 3.82472C1.67793 3.83496 1.67633 3.84544 1.67461 3.85588C1.67297 3.86584 1.67121 3.8758 1.67005 3.88584C1.66893 3.89544 1.66841 3.9052 1.66773 3.91492C1.66697 3.92612 1.66621 3.93728 1.66601 3.94852C1.66597 3.95184 1.66553 3.95504 1.66553 3.9584V16.0418C1.66553 16.3875 1.94577 16.6678 2.29153 16.6678H17.7082C18.054 16.6678 18.3342 16.3875 18.3342 16.0418V3.9584C18.3342 3.95504 18.3338 3.95184 18.3338 3.94852ZM16.2642 4.5844L11.3566 9.8244C10.9994 10.2058 10.5176 10.4158 9.99985 10.4158C9.48213 10.4158 9.00033 10.2058 8.64317 9.8244L3.73553 4.5844H16.2642ZM2.91753 15.4158V5.5426L7.72933 10.6802C8.32573 11.317 9.13213 11.6678 9.99985 11.6678C10.8675 11.6678 11.674 11.317 12.2704 10.6803L17.0822 5.5426V15.4158H2.91753Z" fill="#718096"/>
</g>
</g>
</g>
<defs>
<clipPath id="clip0_2928_7484">
<rect width="20" height="20" fill="white"/>
</clipPath>
</defs>
</svg>
