<svg width="16" height="16" viewBox="0 0 16 16" fill="none" xmlns="http://www.w3.org/2000/svg">
<path d="M13.6296 12.8458L10.873 10.0893C11.5367 9.2058 11.895 8.13041 11.8937 7.02542C11.8937 4.20297 9.59746 1.90668 6.775 1.90668C3.95254 1.90668 1.65625 4.20297 1.65625 7.02542C1.65625 9.84788 3.95254 12.1442 6.775 12.1442C7.87998 12.1454 8.95537 11.7871 9.83886 11.1235L12.5954 13.88C12.7349 14.0047 12.9169 14.0713 13.104 14.0661C13.2911 14.0609 13.4691 13.9842 13.6014 13.8519C13.7338 13.7195 13.8104 13.5415 13.8157 13.3544C13.8209 13.1674 13.7543 12.9854 13.6296 12.8458ZM3.11875 7.02542C3.11875 6.30229 3.33318 5.59539 3.73494 4.99412C4.13669 4.39286 4.70772 3.92422 5.37581 3.64749C6.0439 3.37076 6.77905 3.29835 7.4883 3.43943C8.19754 3.58051 8.84902 3.92873 9.36036 4.44007C9.87169 4.9514 10.2199 5.60288 10.361 6.31213C10.5021 7.02137 10.4297 7.75652 10.1529 8.42461C9.8762 9.0927 9.40757 9.66373 8.8063 10.0655C8.20503 10.4672 7.49814 10.6817 6.775 10.6817C5.80566 10.6805 4.87635 10.2949 4.19092 9.6095C3.5055 8.92407 3.11991 7.99477 3.11875 7.02542Z" fill="#2D3748"/>
</svg>
