<svg width="20" height="20" viewBox="0 0 20 20" fill="none" xmlns="http://www.w3.org/2000/svg">
<g clip-path="url(#clip0_2312_2727)">
<mask id="mask0_2312_2727" style="mask-type:luminance" maskUnits="userSpaceOnUse" x="0" y="0" width="20" height="20">
<path d="M0 0H20V20H0V0Z" fill="white"/>
</mask>
<g mask="url(#mask0_2312_2727)">
<mask id="mask1_2312_2727" style="mask-type:luminance" maskUnits="userSpaceOnUse" x="0" y="0" width="20" height="20">
<path d="M0 0H20V20H0V0Z" fill="white"/>
</mask>
<g mask="url(#mask1_2312_2727)">
<path d="M8.98021 12.5852C8.98181 12.602 8.98381 12.6188 8.98661 12.6352C8.98901 12.6516 8.99181 12.6684 8.99501 12.6848C9.00181 12.7172 9.01021 12.75 9.01981 12.782C9.02937 12.814 9.04101 12.8456 9.05381 12.8764C9.06621 12.9072 9.08061 12.938 9.09661 12.9672C9.11221 12.9968 9.12937 13.0256 9.14777 13.0536C9.15697 13.0672 9.16701 13.0812 9.17661 13.0948C9.18661 13.108 9.19697 13.1216 9.20777 13.1344C9.21821 13.1472 9.22941 13.1604 9.24061 13.1728C9.25181 13.1852 9.26341 13.1976 9.27541 13.2092C9.28701 13.2212 9.29937 13.2328 9.31181 13.244C9.32421 13.2552 9.33701 13.2664 9.35021 13.2768C9.35801 13.2834 9.36621 13.2896 9.37437 13.2958V14.3944C9.37437 14.7401 9.65465 15.0204 10.0004 15.0204C10.3462 15.0204 10.6264 14.7401 10.6264 14.3944V13.2952C10.6343 13.2891 10.6423 13.2832 10.6498 13.2768C10.689 13.2449 10.7257 13.2101 10.7598 13.1728C10.771 13.1604 10.7818 13.1472 10.7926 13.1344C10.803 13.1216 10.8134 13.108 10.8234 13.0948C10.8532 13.0543 10.8801 13.0116 10.9038 12.9672C10.9194 12.938 10.9338 12.9072 10.9466 12.8764C10.9594 12.8456 10.9706 12.814 10.9806 12.782C10.9952 12.7339 11.0063 12.6849 11.0138 12.6352C11.0162 12.6188 11.0182 12.602 11.0202 12.5852C11.0266 12.5182 11.0266 12.4506 11.0202 12.3836C11.0182 12.3672 11.0162 12.3504 11.0138 12.3336C11.0062 12.2839 10.9951 12.2349 10.9806 12.1868C10.9706 12.1548 10.9594 12.1232 10.9466 12.0924C10.9338 12.0616 10.9194 12.0312 10.9038 12.0016C10.8882 11.9724 10.8706 11.9432 10.8522 11.9156C10.843 11.9016 10.8334 11.8876 10.8234 11.8744C10.8134 11.8608 10.803 11.8476 10.7926 11.8344C10.7818 11.8216 10.771 11.8088 10.7598 11.7964C10.7486 11.784 10.7366 11.7716 10.725 11.7596C10.713 11.748 10.7006 11.736 10.6882 11.7248C10.6758 11.7136 10.663 11.7024 10.6498 11.692C10.637 11.6816 10.6238 11.6712 10.6102 11.6612C10.597 11.6512 10.583 11.6416 10.569 11.6324C10.5415 11.614 10.5122 11.5964 10.483 11.5808C10.4534 11.5652 10.423 11.5508 10.3922 11.538C10.3614 11.5252 10.3294 11.514 10.2978 11.504C10.2658 11.4944 10.233 11.486 10.2002 11.4796C10.1842 11.4764 10.1674 11.4732 10.151 11.4708C10.1342 11.4684 10.1174 11.466 10.101 11.4644C10.0339 11.458 9.96642 11.458 9.89937 11.4644C9.86595 11.4678 9.83273 11.4729 9.79981 11.4796C9.76703 11.4862 9.73458 11.4943 9.70257 11.504C9.67057 11.514 9.63901 11.5252 9.60821 11.538C9.57737 11.5508 9.54661 11.5652 9.51741 11.5808C9.47301 11.6045 9.43036 11.6314 9.38981 11.6612C9.37661 11.6712 9.36297 11.6816 9.35021 11.692C9.33701 11.7024 9.32421 11.7136 9.31181 11.7248C9.28686 11.7474 9.26309 11.7713 9.24061 11.7964C9.21799 11.8213 9.19663 11.8473 9.17661 11.8744C9.1469 11.9148 9.12017 11.9573 9.09661 12.0016C9.08061 12.0312 9.06621 12.0616 9.05381 12.0924C9.04101 12.1232 9.02937 12.1548 9.01981 12.1868C9.01021 12.2188 9.00181 12.2516 8.99501 12.284C8.99181 12.3004 8.98901 12.3172 8.98661 12.3336C8.98381 12.3504 8.98181 12.3672 8.98021 12.3836C8.97861 12.4004 8.97738 12.4172 8.97618 12.434C8.97458 12.4676 8.97458 12.5012 8.97618 12.5348C8.97738 12.5516 8.97861 12.5684 8.98021 12.5852Z" fill="#718096"/>
<path d="M16.0416 8.33228H15.001V6.4584C15.001 3.81572 12.851 1.66572 10.2083 1.66572H9.79164C7.14896 1.66572 4.99896 3.81572 4.99896 6.4584V8.33228H3.95828C3.61252 8.33228 3.33228 8.61256 3.33228 8.95828V16.0418C3.33228 17.3059 4.3608 18.3344 5.62496 18.3344H14.3749C15.6391 18.3344 16.6676 17.3059 16.6676 16.0418V8.95828C16.6676 8.61256 16.3873 8.33228 16.0416 8.33228ZM6.25096 6.4584C6.25096 4.50604 7.83927 2.91772 9.79164 2.91772H10.2083C12.1606 2.91772 13.749 4.50604 13.749 6.4584V8.33228H6.25096V6.4584ZM15.4156 16.0418C15.4156 16.6156 14.9488 17.0824 14.3749 17.0824H5.62496C5.05112 17.0824 4.58428 16.6156 4.58428 16.0418V9.58428H15.4156V16.0418Z" fill="#718096"/>
</g>
</g>
</g>
<defs>
<clipPath id="clip0_2312_2727">
<rect width="20" height="20" fill="white"/>
</clipPath>
</defs>
</svg>
