<svg width="40" height="40" viewBox="0 0 40 40" fill="none" xmlns="http://www.w3.org/2000/svg">
<circle cx="20" cy="20" r="20" fill="#DF87F1"/>
<g clip-path="url(#clip0_5013_7948)">
<mask id="mask0_5013_7948" style="mask-type:luminance" maskUnits="userSpaceOnUse" x="10" y="10" width="20" height="20">
<path d="M10 10H30V30H10V10Z" fill="white"/>
</mask>
<g mask="url(#mask0_5013_7948)">
<mask id="mask1_5013_7948" style="mask-type:luminance" maskUnits="userSpaceOnUse" x="10" y="10" width="20" height="20">
<path d="M10 10H30V30H10V10Z" fill="white"/>
</mask>
<g mask="url(#mask1_5013_7948)">
<path d="M27.318 22.8905C27.0736 22.6461 26.6771 22.646 26.4327 22.8905L23.9595 25.3636L23.9597 17.2915C23.9597 16.9458 23.6794 16.6655 23.3337 16.6655C22.9879 16.6655 22.7077 16.9458 22.7077 17.2915L22.7074 25.3636L20.2346 22.8909C19.9901 22.6464 19.5938 22.6464 19.3493 22.8909C19.1049 23.1354 19.1049 23.5317 19.3493 23.7762L22.8907 27.3176C22.8919 27.3187 22.8931 27.3196 22.8942 27.3206C22.9077 27.334 22.9218 27.3468 22.9365 27.3589C22.9441 27.3652 22.9522 27.3706 22.96 27.3765C22.9685 27.3828 22.9769 27.3894 22.9857 27.3954C22.9949 27.4015 23.0044 27.4069 23.0138 27.4125C23.0219 27.4173 23.0299 27.4224 23.0382 27.4269C23.0478 27.432 23.0576 27.4363 23.0673 27.4409C23.0761 27.445 23.0847 27.4494 23.0937 27.4532C23.1032 27.4571 23.1129 27.4603 23.1226 27.4637C23.1322 27.4672 23.1417 27.4708 23.1515 27.4738C23.1612 27.4768 23.171 27.4789 23.1807 27.4814C23.1908 27.4839 23.2007 27.4867 23.211 27.4888C23.2221 27.491 23.2333 27.4923 23.2446 27.4939C23.2536 27.4952 23.2625 27.4969 23.2716 27.4978C23.2921 27.4998 23.3127 27.5009 23.3334 27.5009C23.354 27.5009 23.3746 27.4998 23.3952 27.4978C23.4045 27.4968 23.4135 27.4951 23.4226 27.4938C23.4337 27.4922 23.4447 27.4909 23.4557 27.4888C23.4661 27.4867 23.4763 27.4838 23.4865 27.4812C23.4961 27.4788 23.5057 27.4768 23.5152 27.4739C23.5251 27.4709 23.5347 27.4671 23.5444 27.4636C23.554 27.4602 23.5636 27.457 23.573 27.4532C23.582 27.4494 23.5907 27.445 23.5995 27.4409C23.6092 27.4363 23.619 27.432 23.6285 27.4269C23.6369 27.4224 23.6449 27.4173 23.653 27.4124C23.6624 27.4068 23.6719 27.4015 23.6811 27.3954C23.69 27.3894 23.6984 27.3827 23.707 27.3763C23.7147 27.3705 23.7227 27.3651 23.7302 27.359C23.7461 27.3459 23.7615 27.3321 23.7761 27.3175L27.3179 23.7758C27.5624 23.5314 27.5624 23.135 27.318 22.8905Z" fill="white"/>
<path d="M19.7657 17.1089C20.0102 17.3534 20.4065 17.3534 20.651 17.1089C20.8954 16.8644 20.8954 16.4681 20.651 16.2236L17.1096 12.6823C17.1085 12.6812 17.1073 12.6803 17.1062 12.6792C17.0926 12.6658 17.0785 12.653 17.0638 12.6409C17.0563 12.6347 17.0484 12.6294 17.0407 12.6236C17.032 12.6172 17.0235 12.6104 17.0146 12.6044C17.0055 12.5984 16.9961 12.5931 16.9869 12.5876C16.9786 12.5827 16.9705 12.5775 16.962 12.5729C16.9526 12.5679 16.9429 12.5636 16.9333 12.5591C16.9244 12.5549 16.9157 12.5505 16.9065 12.5467C16.8971 12.5428 16.8875 12.5396 16.878 12.5362C16.8683 12.5328 16.8587 12.529 16.8487 12.526C16.8391 12.5231 16.8293 12.5209 16.8195 12.5185C16.8095 12.516 16.7996 12.5132 16.7893 12.5111C16.7779 12.5088 16.7663 12.5075 16.7548 12.5058C16.7461 12.5046 16.7376 12.503 16.7288 12.5021C16.6876 12.498 16.6462 12.498 16.605 12.5021C16.5965 12.5029 16.5883 12.5045 16.5799 12.5057C16.5681 12.5073 16.5562 12.5088 16.5444 12.5111C16.5345 12.5131 16.525 12.5158 16.5153 12.5182C16.5052 12.5207 16.495 12.523 16.4849 12.526C16.4755 12.5289 16.4663 12.5325 16.457 12.5358C16.447 12.5394 16.437 12.5426 16.4271 12.5467C16.4185 12.5503 16.4102 12.5546 16.4017 12.5586C16.3916 12.5633 16.3815 12.5677 16.3717 12.573C16.3636 12.5773 16.3559 12.5823 16.348 12.587C16.3384 12.5927 16.3286 12.5982 16.3192 12.6045C16.3104 12.6104 16.3021 12.617 16.2937 12.6233C16.2858 12.6291 16.2778 12.6346 16.2701 12.6409C16.2542 12.654 16.2388 12.6678 16.2243 12.6824L12.6824 16.224C12.4379 16.4684 12.4379 16.8648 12.6823 17.1093C12.7404 17.1675 12.8094 17.2137 12.8854 17.2452C12.9613 17.2766 13.0428 17.2928 13.125 17.2927C13.2852 17.2927 13.4454 17.2316 13.5676 17.1093L16.0409 14.6362L16.0407 22.7083C16.0407 23.054 16.3209 23.3343 16.6667 23.3343C17.0124 23.3343 17.2926 23.0541 17.2927 22.7084L17.2929 14.6362L19.7657 17.1089Z" fill="white"/>
</g>
</g>
</g>
<defs>
<clipPath id="clip0_5013_7948">
<rect width="20" height="20" fill="white" transform="translate(10 10)"/>
</clipPath>
</defs>
</svg>
