<svg width="16" height="16" viewBox="0 0 16 16" fill="none" xmlns="http://www.w3.org/2000/svg">
<path d="M10.3949 2.01813C9.78681 1.36156 8.93743 1 7.99993 1C7.05743 1 6.20525 1.35937 5.59993 2.01187C4.98806 2.67156 4.68993 3.56813 4.75993 4.53625C4.89868 6.44625 6.35212 8 7.99993 8C9.64775 8 11.0987 6.44656 11.2396 4.53687C11.3106 3.5775 11.0106 2.68281 10.3949 2.01813ZM13.4999 15H2.49993C2.35595 15.0019 2.21337 14.9716 2.08255 14.9115C1.95173 14.8513 1.83597 14.7627 1.74368 14.6522C1.54056 14.4094 1.45868 14.0778 1.51931 13.7425C1.78306 12.2794 2.60618 11.0503 3.89993 10.1875C5.04931 9.42156 6.50525 9 7.99993 9C9.49462 9 10.9506 9.42188 12.0999 10.1875C13.3937 11.05 14.2168 12.2791 14.4806 13.7422C14.5412 14.0775 14.4593 14.4091 14.2562 14.6519C14.1639 14.7625 14.0482 14.8511 13.9174 14.9113C13.7865 14.9715 13.6439 15.0018 13.4999 15Z" fill="#2D3748"/>
</svg>
