<svg width="16" height="16" viewBox="0 0 16 16" fill="none" xmlns="http://www.w3.org/2000/svg">
<path d="M11.5 0.5H4.5C3.96974 0.500579 3.46137 0.711479 3.08643 1.08643C2.71148 1.46137 2.50058 1.96974 2.5 2.5V13.5C2.50058 14.0303 2.71148 14.5386 3.08643 14.9136C3.46137 15.2885 3.96974 15.4994 4.5 15.5H11.5C12.0303 15.4994 12.5386 15.2885 12.9136 14.9136C13.2885 14.5386 13.4994 14.0303 13.5 13.5V2.5C13.4994 1.96974 13.2885 1.46137 12.9136 1.08643C12.5386 0.711479 12.0303 0.500579 11.5 0.5ZM10.4213 8.89094C10.6578 9.14625 10.7734 9.48969 10.7459 9.85781C10.6919 10.5909 10.1328 11.1875 9.5 11.1875C8.86719 11.1875 8.30719 10.5909 8.25375 9.85781C8.22687 9.48594 8.34156 9.14188 8.57687 8.88906C8.81219 8.63625 9.1375 8.5 9.5 8.5C9.6723 8.49752 9.84322 8.53101 10.0018 8.59832C10.1605 8.66564 10.3033 8.7653 10.4213 8.89094ZM6 2.5C6 2.36739 6.05268 2.24021 6.14645 2.14645C6.24021 2.05268 6.36739 2 6.5 2H9.5C9.63261 2 9.75979 2.05268 9.85355 2.14645C9.94732 2.24021 10 2.36739 10 2.5C10 2.63261 9.94732 2.75979 9.85355 2.85355C9.75979 2.94732 9.63261 3 9.5 3H6.5C6.36739 3 6.24021 2.94732 6.14645 2.85355C6.05268 2.75979 6 2.63261 6 2.5ZM11.9062 13.8697C11.8702 13.9114 11.8255 13.9446 11.7753 13.9671C11.725 13.9897 11.6704 14.0009 11.6153 14H7.38469C7.32961 14.0009 7.27502 13.9897 7.22475 13.9671C7.17448 13.9446 7.12976 13.9114 7.09375 13.8697C7.0547 13.8229 7.02668 13.768 7.01175 13.7089C6.99682 13.6498 6.99537 13.5881 7.0075 13.5284C7.10906 12.9797 7.42562 12.5188 7.92312 12.1953C8.365 11.9081 8.925 11.75 9.5 11.75C10.075 11.75 10.635 11.9081 11.0769 12.1953C11.5744 12.5188 11.8909 12.9797 11.9925 13.5284C12.0046 13.5881 12.0032 13.6498 11.9883 13.7089C11.9733 13.768 11.9453 13.8229 11.9062 13.8697Z" fill="#2D3748"/>
</svg>
