<svg width="36" height="36" viewBox="0 0 36 36" fill="none" xmlns="http://www.w3.org/2000/svg">
<path d="M18 3.375C26.0768 3.375 32.625 9.9232 32.625 18C32.625 26.0768 26.0768 32.625 18 32.625C9.9232 32.625 3.375 26.0768 3.375 18C3.375 9.9232 9.9232 3.375 18 3.375ZM11.5763 18.327C11.6803 18.4319 11.804 18.5152 11.9403 18.5723C12.0766 18.6294 12.2228 18.6591 12.3705 18.6597C12.5183 18.6603 12.6647 18.6318 12.8014 18.5758C12.9382 18.5198 13.0625 18.4374 13.1674 18.3333L16.875 14.6545V24.0469C16.875 24.3452 16.9935 24.6314 17.2045 24.8424C17.4155 25.0533 17.7016 25.1719 18 25.1719C18.2984 25.1719 18.5845 25.0533 18.7955 24.8424C19.0065 24.6314 19.125 24.3452 19.125 24.0469V14.6545L22.8326 18.3333C23.0446 18.5434 23.3314 18.6608 23.63 18.6595C23.9285 18.6581 24.2143 18.5383 24.4245 18.3263C24.6346 18.1142 24.7519 17.8274 24.7506 17.5289C24.7493 17.2303 24.6294 16.9445 24.4174 16.7344L18.7924 11.1523C18.5817 10.9432 18.2969 10.8258 18 10.8258C17.7031 10.8258 17.4183 10.9432 17.2076 11.1523L11.5826 16.7344C11.4775 16.8385 11.3939 16.9622 11.3367 17.0987C11.2795 17.2351 11.2497 17.3814 11.2491 17.5294C11.2485 17.6773 11.2771 17.8239 11.3332 17.9607C11.3894 18.0976 11.472 18.222 11.5763 18.327Z" fill="#E488CC"/>
</svg>
