<svg width="36" height="36" viewBox="0 0 36 36" fill="none" xmlns="http://www.w3.org/2000/svg">
<path d="M18 32.625C26.0768 32.625 32.625 26.0768 32.625 18C32.625 9.9232 26.0768 3.375 18 3.375C9.9232 3.375 3.375 9.9232 3.375 18C3.375 26.0768 9.9232 32.625 18 32.625ZM11.5763 17.673C11.6803 17.5681 11.804 17.4848 11.9403 17.4277C12.0766 17.3706 12.2228 17.3409 12.3705 17.3403C12.5183 17.3397 12.6647 17.3682 12.8014 17.4242C12.9382 17.4802 13.0625 17.5626 13.1674 17.6667L16.875 21.3455V11.9531C16.875 11.6548 16.9935 11.3686 17.2045 11.1576C17.4155 10.9467 17.7016 10.8281 18 10.8281C18.2984 10.8281 18.5845 10.9467 18.7955 11.1576C19.0065 11.3686 19.125 11.6548 19.125 11.9531V21.3455L22.8326 17.6667C23.0446 17.4566 23.3314 17.3392 23.63 17.3405C23.9285 17.3419 24.2143 17.4617 24.4245 17.6737C24.6346 17.8858 24.7519 18.1726 24.7506 18.4711C24.7493 18.7697 24.6294 19.0555 24.4174 19.2656L18.7924 24.8477C18.5817 25.0568 18.2969 25.1742 18 25.1742C17.7031 25.1742 17.4183 25.0568 17.2076 24.8477L11.5826 19.2656C11.4775 19.1615 11.3939 19.0378 11.3367 18.9013C11.2795 18.7649 11.2497 18.6186 11.2491 18.4706C11.2485 18.3227 11.2771 18.1761 11.3332 18.0393C11.3894 17.9024 11.472 17.778 11.5763 17.673Z" fill="#E488CC"/>
</svg>
