<svg width="100" height="22" viewBox="0 0 100 22" fill="none" xmlns="http://www.w3.org/2000/svg">
<g clip-path="url(#clip0_2207_6778)">
<path fill-rule="evenodd" clip-rule="evenodd" d="M9.28535 -0.000488281L0 5.463V11.6049H5.58965L0.00012718 14.8938V21.0408H6.14203L15.4326 15.5773V9.43027H9.83978L15.4324 6.1414V-0.000488281H9.28535Z" fill="url(#paint0_linear_2207_6778)"/>
<path fill-rule="evenodd" clip-rule="evenodd" d="M9.28535 -0.000488281L0 5.463V11.6049H5.58965L0.00012718 14.8938V21.0408H6.14203L15.4326 15.5773V9.43027H9.83978L15.4324 6.1414V-0.000488281H9.28535Z" fill="url(#paint1_linear_2207_6778)"/>
<path d="M15.4271 0H9.28516V6.1419H15.4271V0Z" fill="#251725"/>
<path d="M58.0836 15.536C57.5295 15.5671 57.0686 15.5723 56.6957 15.5567C56.3228 15.5257 56.038 15.4221 55.8464 15.246C55.6548 15.0648 55.5564 14.7851 55.5564 14.3967V9.74626H58.0836V6.9705H55.5564V3.8374L52.6719 5.54118V14.3967C52.6719 15.9348 53.0758 16.9964 53.8785 17.5971C54.6967 18.1927 56.1002 18.3791 58.0836 18.1564V15.5412V15.536Z" fill="#251725"/>
<path d="M35.5828 3.8374L32.6982 5.536V14.3967C32.6982 15.9348 33.1022 16.9964 33.9049 17.5971C34.7231 18.1927 36.1265 18.3791 38.1099 18.1564V15.5412C37.5558 15.5723 37.0949 15.5774 36.7221 15.5619C36.3492 15.5308 36.0644 15.4273 35.8728 15.2512C35.6812 15.0699 35.5828 14.7903 35.5828 14.4019V9.75144H38.1099V6.97567H35.5828V3.84258V3.8374Z" fill="#251725"/>
<path d="M48.141 8.29046C47.2762 7.20294 46.0592 6.65918 44.4952 6.65918C42.9313 6.65918 41.7195 7.23401 40.6475 8.38367C39.591 9.5178 39.0576 10.9109 39.0576 12.568C39.0576 14.2252 39.5858 15.6234 40.6475 16.7731C41.7195 17.9072 43.0038 18.4717 44.4952 18.4717C46.0592 18.4717 47.2762 17.9279 48.141 16.8404V18.161H51.0255V6.9699H48.141V8.29046ZM47.2451 14.8466C46.6651 15.4266 45.9245 15.7167 45.0286 15.7167C44.1327 15.7167 43.3973 15.4266 42.8122 14.8466C42.2321 14.2511 41.9421 13.4898 41.9421 12.5629C41.9421 11.6359 42.2321 10.885 42.8122 10.305C43.3922 9.70941 44.1327 9.40905 45.0286 9.40905C45.9245 9.40905 46.6599 9.70941 47.2451 10.305C47.8406 10.885 48.141 11.641 48.141 12.5629C48.141 13.4847 47.8406 14.2459 47.2451 14.8466Z" fill="#251725"/>
<path d="M31.0102 11.5327C30.86 11.2635 30.6373 11.0045 30.3369 10.7508C30.0366 10.497 29.7725 10.295 29.5342 10.1449C29.3116 9.99468 28.9801 9.83932 28.5503 9.6736C28.1308 9.49235 27.7994 9.36806 27.5456 9.29556C27.3074 9.20752 26.9501 9.08841 26.4737 8.93823C25.3085 8.5809 24.5213 8.25465 24.1018 7.95428C23.6979 7.64356 23.4959 7.23963 23.4959 6.74765C23.4959 6.28675 23.6772 5.91389 24.0345 5.62906C24.4074 5.3287 24.9149 5.1837 25.557 5.1837C26.9294 5.1837 27.9289 5.85692 28.5555 7.1982L31.15 5.70156C30.6114 4.59851 29.8605 3.73885 28.8921 3.12777C27.9392 2.50115 26.8258 2.19043 25.557 2.19043C24.1381 2.19043 22.9263 2.61508 21.9113 3.46438C20.9118 4.29815 20.4146 5.42709 20.4146 6.84087C20.4146 7.55553 20.5389 8.18215 20.7927 8.72073C21.0464 9.25931 21.4089 9.70467 21.8905 10.062C22.3825 10.4038 22.8693 10.6834 23.3457 10.8906C23.8377 11.0977 24.4333 11.3101 25.1376 11.5172C26.4063 11.8745 27.2867 12.2111 27.7787 12.5219C28.2707 12.8222 28.5192 13.2469 28.5192 13.7958C28.5192 14.2723 28.3173 14.6658 27.9133 14.9817C27.5094 15.2925 26.8776 15.453 26.0128 15.453C24.2209 15.453 23.0247 14.6555 22.4136 13.0604L19.7725 14.6037C20.2075 15.7948 20.948 16.7425 22.0096 17.4468C23.0661 18.1304 24.3711 18.4773 25.9247 18.4773C27.6078 18.4773 28.9749 18.0527 30.0159 17.2034C31.0723 16.3541 31.6057 15.2044 31.6057 13.7596C31.6057 13.3142 31.5436 12.8999 31.4245 12.527C31.3209 12.1386 31.1862 11.8124 31.0205 11.5431L31.0102 11.5327Z" fill="#251725"/>
<path d="M87.3484 6.9707H84.4639V18.1566H87.3484V6.9707Z" fill="#251725"/>
<path d="M95.9086 12.429L99.8185 6.9707H96.5094L94.2515 10.1245L91.9936 6.9707H88.6585L92.5736 12.4497L88.4824 18.1566H91.8123L94.2515 14.7542L96.6647 18.1566H99.9998L95.9086 12.429Z" fill="#251725"/>
<path d="M81.7195 4.01862C80.689 3.0036 79.4254 2.49609 77.9184 2.49609H72.082V18.1512H75.1685V13.0088H77.9184C79.4254 13.0088 80.6941 12.5013 81.7195 11.4863C82.7501 10.4712 83.2628 9.22835 83.2628 7.75244C83.2628 6.27652 82.7501 5.02846 81.7195 4.01862ZM79.5393 9.45622C79.1043 9.90158 78.5605 10.1294 77.908 10.1294H75.1582V5.38579H77.908C78.5657 5.38579 79.1095 5.60847 79.5393 6.05901C79.9743 6.50438 80.1866 7.07403 80.1866 7.75761C80.1866 8.4412 79.9691 8.99531 79.5393 9.45622Z" fill="#251725"/>
<path d="M67.7159 14.7327C67.1514 15.4784 66.3124 15.8513 65.2094 15.8513C63.4953 15.8513 62.444 15.1522 62.0556 13.7488H70.4864C70.5589 13.3293 70.6004 12.9357 70.6004 12.5629C70.6004 10.8901 70.0618 9.49191 68.9898 8.35778C67.9334 7.22365 66.5817 6.65918 64.9401 6.65918C63.2104 6.65918 61.7915 7.22365 60.6884 8.35778C59.5854 9.47637 59.0312 10.8798 59.0312 12.5629C59.0312 14.2459 59.5905 15.67 60.7091 16.7886C61.8277 17.9072 63.3088 18.4665 65.1628 18.4665C67.3119 18.4665 68.938 17.669 70.0411 16.074L67.7159 14.7327ZM63.0188 9.85441C63.5263 9.45048 64.1685 9.24851 64.9401 9.24851C65.5978 9.24851 66.1778 9.43494 66.6853 9.8078C67.2084 10.1807 67.5501 10.7451 67.7159 11.5064H62.0142C62.1799 10.7917 62.5113 10.2376 63.0188 9.84923V9.85441Z" fill="#251725"/>
<path d="M87.3484 2.62598H84.4639V5.51049H87.3484V2.62598Z" fill="#251725"/>
</g>
<defs>
<linearGradient id="paint0_linear_2207_6778" x1="-2.85167" y1="8.10231" x2="17.2894" y2="12.4137" gradientUnits="userSpaceOnUse">
<stop stop-color="#DF87F1"/>
<stop offset="1" stop-color="#219F70"/>
</linearGradient>
<linearGradient id="paint1_linear_2207_6778" x1="15.5891" y1="-0.000488696" x2="6.21559" y2="23.5182" gradientUnits="userSpaceOnUse">
<stop offset="0.2" stop-color="#DF87F1"/>
<stop offset="0.8" stop-color="#219F70"/>
</linearGradient>
<clipPath id="clip0_2207_6778">
<rect width="100" height="21.0409" fill="white"/>
</clipPath>
</defs>
</svg>
