<svg width="884" height="297" viewBox="0 0 884 297" fill="none" xmlns="http://www.w3.org/2000/svg">
<path d="M867.722 286.553V291.25H869.108C869.818 291.25 870.313 290.9 870.593 290.2C870.746 289.816 870.822 289.359 870.822 288.828C870.822 288.096 870.707 287.534 870.476 287.144C870.248 286.75 869.792 286.553 869.108 286.553H867.722ZM869.362 285.303C869.808 285.309 870.179 285.361 870.476 285.459C870.98 285.625 871.389 285.929 871.701 286.372C871.952 286.73 872.123 287.118 872.214 287.534C872.305 287.951 872.351 288.348 872.351 288.726C872.351 289.683 872.159 290.493 871.774 291.157C871.254 292.052 870.45 292.5 869.362 292.5H866.262V285.303H869.362ZM875.476 288.184C875.153 288.184 874.903 288.285 874.724 288.486C874.548 288.688 874.437 288.962 874.392 289.307H876.555C876.532 288.939 876.42 288.66 876.218 288.472C876.019 288.28 875.772 288.184 875.476 288.184ZM875.476 287.036C875.918 287.036 876.317 287.119 876.672 287.285C877.027 287.451 877.32 287.713 877.551 288.071C877.759 288.387 877.894 288.753 877.956 289.17C877.992 289.414 878.007 289.766 878 290.225H874.357C874.377 290.758 874.545 291.133 874.86 291.348C875.052 291.481 875.284 291.548 875.554 291.548C875.84 291.548 876.073 291.466 876.252 291.304C876.35 291.216 876.436 291.094 876.511 290.938H877.932C877.896 291.253 877.731 291.574 877.438 291.899C876.983 292.417 876.345 292.676 875.524 292.676C874.847 292.676 874.25 292.458 873.732 292.021C873.215 291.585 872.956 290.876 872.956 289.893C872.956 288.971 873.189 288.265 873.654 287.773C874.123 287.282 874.73 287.036 875.476 287.036ZM882.121 289.087C882.095 288.888 882.028 288.709 881.921 288.55C881.765 288.335 881.522 288.228 881.193 288.228C880.725 288.228 880.404 288.46 880.231 288.926C880.14 289.173 880.095 289.502 880.095 289.912C880.095 290.303 880.14 290.617 880.231 290.854C880.397 291.297 880.71 291.519 881.169 291.519C881.494 291.519 881.726 291.431 881.862 291.255C881.999 291.079 882.082 290.851 882.111 290.571H883.532C883.5 290.994 883.347 291.395 883.073 291.772C882.637 292.381 881.991 292.686 881.135 292.686C880.279 292.686 879.649 292.432 879.245 291.924C878.841 291.416 878.64 290.757 878.64 289.946C878.64 289.032 878.863 288.32 879.309 287.812C879.755 287.305 880.37 287.051 881.154 287.051C881.822 287.051 882.367 287.201 882.79 287.5C883.216 287.799 883.469 288.328 883.547 289.087H882.121Z" fill="#CBD5E0"/>
<path d="M790.237 285.303H791.814L794.681 290.327V285.303H796.082V292.5H794.578L791.639 287.388V292.5H790.237V285.303ZM799.764 291.519C800.171 291.519 800.483 291.374 800.701 291.084C800.919 290.794 801.028 290.382 801.028 289.849C801.028 289.315 800.919 288.905 800.701 288.618C800.483 288.328 800.171 288.184 799.764 288.184C799.357 288.184 799.043 288.328 798.821 288.618C798.603 288.905 798.494 289.315 798.494 289.849C798.494 290.382 798.603 290.794 798.821 291.084C799.043 291.374 799.357 291.519 799.764 291.519ZM802.488 289.849C802.488 290.63 802.264 291.299 801.814 291.855C801.365 292.409 800.683 292.686 799.769 292.686C798.854 292.686 798.172 292.409 797.723 291.855C797.273 291.299 797.049 290.63 797.049 289.849C797.049 289.08 797.273 288.415 797.723 287.852C798.172 287.288 798.854 287.007 799.769 287.007C800.683 287.007 801.365 287.288 801.814 287.852C802.264 288.415 802.488 289.08 802.488 289.849ZM806.771 287.178H808.265L806.346 292.5H804.876L802.967 287.178H804.529L805.638 291.104L806.771 287.178Z" fill="#CBD5E0"/>
<path d="M719.445 291.426C720.041 291.426 720.513 291.206 720.861 290.767C721.213 290.327 721.389 289.702 721.389 288.892C721.389 288.084 721.213 287.461 720.861 287.021C720.513 286.579 720.041 286.357 719.445 286.357C718.85 286.357 718.374 286.577 718.02 287.017C717.665 287.456 717.487 288.081 717.487 288.892C717.487 289.702 717.665 290.327 718.02 290.767C718.374 291.206 718.85 291.426 719.445 291.426ZM722.893 288.892C722.893 290.184 722.53 291.174 721.804 291.86C721.26 292.42 720.474 292.7 719.445 292.7C718.417 292.7 717.631 292.42 717.087 291.86C716.358 291.174 715.993 290.184 715.993 288.892C715.993 287.573 716.358 286.584 717.087 285.923C717.631 285.363 718.417 285.083 719.445 285.083C720.474 285.083 721.26 285.363 721.804 285.923C722.53 286.584 722.893 287.573 722.893 288.892ZM727.111 289.087C727.085 288.888 727.019 288.709 726.911 288.55C726.755 288.335 726.512 288.228 726.184 288.228C725.715 288.228 725.394 288.46 725.222 288.926C725.131 289.173 725.085 289.502 725.085 289.912C725.085 290.303 725.131 290.617 725.222 290.854C725.388 291.297 725.7 291.519 726.159 291.519C726.485 291.519 726.716 291.431 726.853 291.255C726.989 291.079 727.072 290.851 727.102 290.571H728.522C728.49 290.994 728.337 291.395 728.063 291.772C727.627 292.381 726.981 292.686 726.125 292.686C725.269 292.686 724.639 292.432 724.235 291.924C723.832 291.416 723.63 290.757 723.63 289.946C723.63 289.032 723.853 288.32 724.299 287.812C724.745 287.305 725.36 287.051 726.145 287.051C726.812 287.051 727.357 287.201 727.78 287.5C728.207 287.799 728.459 288.328 728.537 289.087H727.111ZM728.952 288.218V287.227H729.694V285.742H731.071V287.227H731.936V288.218H731.071V291.03C731.071 291.248 731.099 291.385 731.154 291.44C731.21 291.493 731.379 291.519 731.662 291.519C731.704 291.519 731.748 291.519 731.794 291.519C731.843 291.515 731.89 291.512 731.936 291.509V292.549L731.276 292.573C730.619 292.596 730.17 292.482 729.929 292.231C729.772 292.072 729.694 291.826 729.694 291.494V288.218H728.952Z" fill="#CBD5E0"/>
<path d="M641.851 290.278C641.896 290.607 641.986 290.853 642.119 291.016C642.363 291.312 642.782 291.46 643.374 291.46C643.729 291.46 644.017 291.421 644.238 291.343C644.658 291.193 644.868 290.915 644.868 290.508C644.868 290.27 644.764 290.086 644.556 289.956C644.347 289.829 644.02 289.717 643.574 289.619L642.812 289.448C642.064 289.279 641.546 289.095 641.26 288.896C640.775 288.564 640.532 288.045 640.532 287.339C640.532 286.694 640.767 286.159 641.235 285.732C641.704 285.306 642.393 285.093 643.301 285.093C644.059 285.093 644.705 285.295 645.239 285.698C645.776 286.099 646.058 286.681 646.084 287.446H644.639C644.613 287.013 644.424 286.706 644.072 286.523C643.838 286.403 643.547 286.343 643.198 286.343C642.811 286.343 642.502 286.421 642.271 286.577C642.039 286.733 641.924 286.951 641.924 287.231C641.924 287.489 642.038 287.681 642.266 287.808C642.412 287.892 642.725 287.992 643.203 288.105L644.443 288.403C644.987 288.534 645.397 288.708 645.674 288.926C646.104 289.264 646.318 289.754 646.318 290.396C646.318 291.053 646.066 291.6 645.562 292.036C645.06 292.469 644.351 292.686 643.433 292.686C642.495 292.686 641.758 292.472 641.221 292.046C640.684 291.616 640.415 291.027 640.415 290.278H641.851ZM649.419 288.184C649.097 288.184 648.846 288.285 648.667 288.486C648.491 288.688 648.381 288.962 648.335 289.307H650.498C650.475 288.939 650.363 288.66 650.161 288.472C649.963 288.28 649.715 288.184 649.419 288.184ZM649.419 287.036C649.862 287.036 650.26 287.119 650.615 287.285C650.97 287.451 651.263 287.713 651.494 288.071C651.702 288.387 651.838 288.753 651.899 289.17C651.935 289.414 651.95 289.766 651.943 290.225H648.301C648.32 290.758 648.488 291.133 648.804 291.348C648.996 291.481 649.227 291.548 649.497 291.548C649.784 291.548 650.016 291.466 650.195 291.304C650.293 291.216 650.379 291.094 650.454 290.938H651.875C651.839 291.253 651.675 291.574 651.382 291.899C650.926 292.417 650.288 292.676 649.468 292.676C648.791 292.676 648.193 292.458 647.676 292.021C647.158 291.585 646.899 290.876 646.899 289.893C646.899 288.971 647.132 288.265 647.598 287.773C648.066 287.282 648.674 287.036 649.419 287.036ZM656.553 289.839C656.553 289.429 656.458 289.066 656.27 288.75C656.084 288.434 655.781 288.276 655.361 288.276C654.857 288.276 654.51 288.516 654.321 288.994C654.224 289.248 654.175 289.57 654.175 289.961C654.175 290.579 654.339 291.014 654.668 291.265C654.863 291.411 655.094 291.484 655.361 291.484C655.749 291.484 656.043 291.335 656.245 291.035C656.45 290.736 656.553 290.337 656.553 289.839ZM655.762 287.061C656.383 287.061 656.909 287.29 657.339 287.749C657.772 288.208 657.988 288.882 657.988 289.771C657.988 290.708 657.777 291.423 657.354 291.914C656.934 292.406 656.392 292.651 655.728 292.651C655.304 292.651 654.953 292.546 654.673 292.334C654.52 292.217 654.37 292.046 654.224 291.821V294.595H652.847V287.178H654.18V287.964C654.329 287.733 654.489 287.55 654.658 287.417C654.967 287.179 655.335 287.061 655.762 287.061Z" fill="#CBD5E0"/>
<path d="M566.229 289.78H568.056L567.157 286.948L566.229 289.78ZM566.322 285.303H568.021L570.57 292.5H568.939L568.476 291.021H565.824L565.326 292.5H563.754L566.322 285.303ZM572.763 287.178V290.386C572.763 290.688 572.799 290.916 572.87 291.069C572.997 291.34 573.246 291.475 573.617 291.475C574.092 291.475 574.418 291.283 574.594 290.898C574.685 290.69 574.73 290.415 574.73 290.073V287.178H576.142V292.5H574.789V291.748C574.776 291.764 574.743 291.813 574.691 291.895C574.639 291.976 574.577 292.048 574.506 292.109C574.288 292.305 574.076 292.438 573.871 292.51C573.669 292.581 573.432 292.617 573.158 292.617C572.37 292.617 571.84 292.334 571.566 291.768C571.413 291.455 571.337 290.994 571.337 290.386V287.178H572.763ZM579.774 291.357C580.1 291.357 580.375 291.235 580.6 290.991C580.824 290.744 580.937 290.352 580.937 289.814C580.937 289.31 580.829 288.926 580.614 288.662C580.403 288.398 580.118 288.267 579.76 288.267C579.271 288.267 578.935 288.496 578.749 288.955C578.651 289.199 578.603 289.5 578.603 289.858C578.603 290.168 578.655 290.443 578.759 290.684C578.948 291.133 579.286 291.357 579.774 291.357ZM579.428 287.051C579.695 287.051 579.927 287.091 580.126 287.173C580.465 287.313 580.738 287.57 580.946 287.944V287.178H582.299V292.227C582.299 292.913 582.183 293.431 581.952 293.779C581.555 294.378 580.793 294.678 579.667 294.678C578.987 294.678 578.432 294.544 578.002 294.277C577.572 294.01 577.335 293.612 577.289 293.081H578.803C578.842 293.244 578.905 293.361 578.993 293.433C579.143 293.56 579.395 293.623 579.75 293.623C580.251 293.623 580.587 293.455 580.756 293.12C580.867 292.905 580.922 292.544 580.922 292.036V291.694C580.788 291.922 580.645 292.093 580.492 292.207C580.215 292.419 579.856 292.524 579.413 292.524C578.729 292.524 578.183 292.285 577.772 291.807C577.366 291.325 577.162 290.674 577.162 289.854C577.162 289.062 577.359 288.398 577.753 287.861C578.147 287.321 578.705 287.051 579.428 287.051Z" fill="#CBD5E0"/>
<path d="M493.641 289.771V289.937C493.654 290.493 493.714 290.885 493.821 291.113C493.932 291.338 494.166 291.45 494.524 291.45C494.879 291.45 495.114 291.326 495.228 291.079C495.296 290.933 495.33 290.685 495.33 290.337V285.303H496.834V290.312C496.834 290.924 496.728 291.41 496.517 291.768C496.159 292.373 495.512 292.676 494.578 292.676C493.644 292.676 493.017 292.432 492.698 291.943C492.379 291.452 492.22 290.783 492.22 289.937V289.771H493.641ZM499.603 287.178V290.386C499.603 290.688 499.638 290.916 499.71 291.069C499.837 291.34 500.086 291.475 500.457 291.475C500.932 291.475 501.258 291.283 501.434 290.898C501.525 290.69 501.57 290.415 501.57 290.073V287.178H502.981V292.5H501.629V291.748C501.616 291.764 501.583 291.813 501.531 291.895C501.479 291.976 501.417 292.048 501.346 292.109C501.128 292.305 500.916 292.438 500.711 292.51C500.509 292.581 500.271 292.617 499.998 292.617C499.21 292.617 498.68 292.334 498.406 291.768C498.253 291.455 498.177 290.994 498.177 290.386V287.178H499.603ZM505.75 292.5H504.358V285.303H505.75V292.5Z" fill="#CBD5E0"/>
<path d="M418.641 289.771V289.937C418.654 290.493 418.714 290.885 418.821 291.113C418.932 291.338 419.166 291.45 419.524 291.45C419.879 291.45 420.114 291.326 420.228 291.079C420.296 290.933 420.33 290.685 420.33 290.337V285.303H421.834V290.312C421.834 290.924 421.728 291.41 421.517 291.768C421.159 292.373 420.512 292.676 419.578 292.676C418.644 292.676 418.017 292.432 417.698 291.943C417.379 291.452 417.22 290.783 417.22 289.937V289.771H418.641ZM424.603 287.178V290.386C424.603 290.688 424.638 290.916 424.71 291.069C424.837 291.34 425.086 291.475 425.457 291.475C425.932 291.475 426.258 291.283 426.434 290.898C426.525 290.69 426.57 290.415 426.57 290.073V287.178H427.981V292.5H426.629V291.748C426.616 291.764 426.583 291.813 426.531 291.895C426.479 291.976 426.417 292.048 426.346 292.109C426.128 292.305 425.916 292.438 425.711 292.51C425.509 292.581 425.271 292.617 424.998 292.617C424.21 292.617 423.68 292.334 423.406 291.768C423.253 291.455 423.177 290.994 423.177 290.386V287.178H424.603ZM432.278 287.051C432.828 287.051 433.278 287.196 433.626 287.485C433.978 287.772 434.153 288.249 434.153 288.916V292.5H432.728V289.263C432.728 288.983 432.69 288.768 432.615 288.618C432.479 288.345 432.218 288.208 431.834 288.208C431.362 288.208 431.038 288.408 430.862 288.809C430.771 289.02 430.726 289.29 430.726 289.619V292.5H429.339V287.188H430.682V287.964C430.861 287.69 431.03 287.493 431.189 287.373C431.476 287.158 431.839 287.051 432.278 287.051Z" fill="#CBD5E0"/>
<path d="M346.032 285.303H348.195V292.5H346.794V287.632C346.794 287.492 346.796 287.297 346.799 287.046C346.802 286.792 346.804 286.597 346.804 286.46L345.441 292.5H343.981L342.629 286.46C342.629 286.597 342.631 286.792 342.634 287.046C342.637 287.297 342.639 287.492 342.639 287.632V292.5H341.237V285.303H343.425L344.733 290.962L346.032 285.303ZM352.414 289.912C352.326 289.967 352.237 290.013 352.146 290.049C352.058 290.081 351.936 290.112 351.779 290.142L351.467 290.2C351.174 290.252 350.964 290.316 350.837 290.391C350.622 290.518 350.515 290.715 350.515 290.981C350.515 291.219 350.58 291.392 350.71 291.499C350.843 291.603 351.005 291.655 351.193 291.655C351.493 291.655 351.768 291.567 352.019 291.392C352.272 291.216 352.404 290.895 352.414 290.43V289.912ZM351.569 289.263C351.826 289.23 352.01 289.189 352.121 289.141C352.32 289.056 352.419 288.924 352.419 288.745C352.419 288.527 352.342 288.377 352.189 288.296C352.04 288.211 351.818 288.169 351.525 288.169C351.197 288.169 350.964 288.25 350.827 288.413C350.729 288.534 350.664 288.696 350.632 288.901H349.289C349.318 288.436 349.449 288.053 349.68 287.754C350.048 287.285 350.679 287.051 351.574 287.051C352.157 287.051 352.674 287.166 353.127 287.397C353.579 287.629 353.806 288.065 353.806 288.706V291.147C353.806 291.317 353.809 291.522 353.815 291.763C353.825 291.945 353.853 292.069 353.898 292.134C353.944 292.199 354.012 292.253 354.104 292.295V292.5H352.59C352.548 292.393 352.518 292.292 352.502 292.197C352.486 292.103 352.473 291.995 352.463 291.875C352.271 292.083 352.049 292.261 351.799 292.407C351.499 292.58 351.161 292.666 350.783 292.666C350.301 292.666 349.903 292.529 349.587 292.256C349.274 291.979 349.118 291.589 349.118 291.084C349.118 290.43 349.37 289.956 349.875 289.663C350.152 289.504 350.559 289.39 351.096 289.321L351.569 289.263ZM355.261 293.521L355.437 293.53C355.573 293.537 355.703 293.532 355.827 293.516C355.951 293.499 356.055 293.462 356.14 293.403C356.221 293.348 356.296 293.232 356.364 293.057C356.436 292.881 356.465 292.773 356.452 292.734L354.499 287.178H356.047L357.209 291.104L358.308 287.178H359.787L357.961 292.412C357.609 293.421 357.331 294.046 357.126 294.287C356.921 294.531 356.511 294.653 355.896 294.653C355.772 294.653 355.673 294.652 355.598 294.648C355.523 294.648 355.41 294.644 355.261 294.634V293.521Z" fill="#CBD5E0"/>
<path d="M268.729 289.78H270.556L269.657 286.948L268.729 289.78ZM268.822 285.303H270.521L273.07 292.5H271.439L270.976 291.021H268.324L267.826 292.5H266.254L268.822 285.303ZM277.543 289.839C277.543 289.429 277.449 289.066 277.26 288.75C277.074 288.434 276.771 288.276 276.352 288.276C275.847 288.276 275.5 288.516 275.312 288.994C275.214 289.248 275.165 289.57 275.165 289.961C275.165 290.579 275.329 291.014 275.658 291.265C275.854 291.411 276.085 291.484 276.352 291.484C276.739 291.484 277.034 291.335 277.235 291.035C277.44 290.736 277.543 290.337 277.543 289.839ZM276.752 287.061C277.374 287.061 277.899 287.29 278.329 287.749C278.762 288.208 278.979 288.882 278.979 289.771C278.979 290.708 278.767 291.423 278.344 291.914C277.924 292.406 277.382 292.651 276.718 292.651C276.295 292.651 275.943 292.546 275.663 292.334C275.51 292.217 275.36 292.046 275.214 291.821V294.595H273.837V287.178H275.17V287.964C275.32 287.733 275.479 287.55 275.648 287.417C275.958 287.179 276.326 287.061 276.752 287.061ZM282.88 287.051C282.906 287.051 282.927 287.052 282.943 287.056C282.963 287.056 283.004 287.057 283.065 287.061V288.486C282.978 288.477 282.899 288.47 282.831 288.467C282.763 288.464 282.707 288.462 282.665 288.462C282.105 288.462 281.729 288.644 281.537 289.009C281.43 289.214 281.376 289.53 281.376 289.956V292.5H279.975V287.178H281.303V288.105C281.518 287.751 281.705 287.508 281.864 287.378C282.125 287.16 282.463 287.051 282.88 287.051Z" fill="#CBD5E0"/>
<path d="M196.532 285.303H198.695V292.5H197.294V287.632C197.294 287.492 197.296 287.297 197.299 287.046C197.302 286.792 197.304 286.597 197.304 286.46L195.941 292.5H194.481L193.129 286.46C193.129 286.597 193.131 286.792 193.134 287.046C193.137 287.297 193.139 287.492 193.139 287.632V292.5H191.737V285.303H193.925L195.233 290.962L196.532 285.303ZM202.914 289.912C202.826 289.967 202.737 290.013 202.646 290.049C202.558 290.081 202.436 290.112 202.279 290.142L201.967 290.2C201.674 290.252 201.464 290.316 201.337 290.391C201.122 290.518 201.015 290.715 201.015 290.981C201.015 291.219 201.08 291.392 201.21 291.499C201.343 291.603 201.505 291.655 201.693 291.655C201.993 291.655 202.268 291.567 202.519 291.392C202.772 291.216 202.904 290.895 202.914 290.43V289.912ZM202.069 289.263C202.326 289.23 202.51 289.189 202.621 289.141C202.82 289.056 202.919 288.924 202.919 288.745C202.919 288.527 202.842 288.377 202.689 288.296C202.54 288.211 202.318 288.169 202.025 288.169C201.697 288.169 201.464 288.25 201.327 288.413C201.229 288.534 201.164 288.696 201.132 288.901H199.789C199.818 288.436 199.949 288.053 200.18 287.754C200.548 287.285 201.179 287.051 202.074 287.051C202.657 287.051 203.174 287.166 203.627 287.397C204.079 287.629 204.306 288.065 204.306 288.706V291.147C204.306 291.317 204.309 291.522 204.315 291.763C204.325 291.945 204.353 292.069 204.398 292.134C204.444 292.199 204.512 292.253 204.604 292.295V292.5H203.09C203.048 292.393 203.018 292.292 203.002 292.197C202.986 292.103 202.973 291.995 202.963 291.875C202.771 292.083 202.549 292.261 202.299 292.407C201.999 292.58 201.661 292.666 201.283 292.666C200.801 292.666 200.403 292.529 200.087 292.256C199.774 291.979 199.618 291.589 199.618 291.084C199.618 290.43 199.87 289.956 200.375 289.663C200.652 289.504 201.059 289.39 201.596 289.321L202.069 289.263ZM208.437 287.051C208.463 287.051 208.484 287.052 208.5 287.056C208.52 287.056 208.56 287.057 208.622 287.061V288.486C208.534 288.477 208.456 288.47 208.388 288.467C208.319 288.464 208.264 288.462 208.222 288.462C207.662 288.462 207.286 288.644 207.094 289.009C206.986 289.214 206.933 289.53 206.933 289.956V292.5H205.531V287.178H206.859V288.105C207.074 287.751 207.261 287.508 207.421 287.378C207.681 287.16 208.02 287.051 208.437 287.051Z" fill="#CBD5E0"/>
<path d="M116.762 285.312H121.864V286.577H118.256V288.232H121.415V289.482H118.256V292.5H116.762V285.312ZM124.862 288.184C124.54 288.184 124.289 288.285 124.11 288.486C123.935 288.688 123.824 288.962 123.778 289.307H125.941C125.919 288.939 125.806 288.66 125.604 288.472C125.406 288.28 125.159 288.184 124.862 288.184ZM124.862 287.036C125.305 287.036 125.704 287.119 126.059 287.285C126.413 287.451 126.706 287.713 126.938 288.071C127.146 288.387 127.281 288.753 127.343 289.17C127.379 289.414 127.393 289.766 127.387 290.225H123.744C123.764 290.758 123.931 291.133 124.247 291.348C124.439 291.481 124.67 291.548 124.94 291.548C125.227 291.548 125.46 291.466 125.639 291.304C125.736 291.216 125.823 291.094 125.897 290.938H127.318C127.283 291.253 127.118 291.574 126.825 291.899C126.369 292.417 125.731 292.676 124.911 292.676C124.234 292.676 123.637 292.458 123.119 292.021C122.602 291.585 122.343 290.876 122.343 289.893C122.343 288.971 122.576 288.265 123.041 287.773C123.51 287.282 124.117 287.036 124.862 287.036ZM131.205 287.061C131.905 287.061 132.452 287.313 132.846 287.817C133.243 288.322 133.441 288.973 133.441 289.771C133.441 290.597 133.246 291.283 132.855 291.826C132.465 292.37 131.92 292.642 131.22 292.642C130.78 292.642 130.427 292.554 130.16 292.378C130.001 292.274 129.828 292.091 129.643 291.831V292.5H128.28V285.312H129.667V287.871C129.843 287.624 130.036 287.435 130.248 287.305C130.499 287.142 130.818 287.061 131.205 287.061ZM130.849 291.494C131.207 291.494 131.485 291.349 131.684 291.06C131.882 290.77 131.981 290.389 131.981 289.917C131.981 289.539 131.933 289.227 131.835 288.979C131.649 288.511 131.308 288.276 130.81 288.276C130.305 288.276 129.958 288.506 129.77 288.965C129.672 289.209 129.623 289.525 129.623 289.912C129.623 290.368 129.724 290.745 129.926 291.045C130.128 291.344 130.435 291.494 130.849 291.494Z" fill="#CBD5E0"/>
<path d="M43.1406 289.771V289.937C43.1536 290.493 43.2139 290.885 43.3213 291.113C43.432 291.338 43.6663 291.45 44.0244 291.45C44.3792 291.45 44.6136 291.326 44.7275 291.079C44.7959 290.933 44.8301 290.685 44.8301 290.337V285.303H46.334V290.312C46.334 290.924 46.2282 291.41 46.0166 291.768C45.6585 292.373 45.0124 292.676 44.0781 292.676C43.1439 292.676 42.5173 292.432 42.1982 291.943C41.8792 291.452 41.7197 290.783 41.7197 289.937V289.771H43.1406ZM50.6504 289.912C50.5625 289.967 50.473 290.013 50.3818 290.049C50.2939 290.081 50.1719 290.112 50.0156 290.142L49.7031 290.2C49.4102 290.252 49.2002 290.316 49.0732 290.391C48.8584 290.518 48.751 290.715 48.751 290.981C48.751 291.219 48.8161 291.392 48.9463 291.499C49.0798 291.603 49.2409 291.655 49.4297 291.655C49.7292 291.655 50.0042 291.567 50.2549 291.392C50.5088 291.216 50.6406 290.895 50.6504 290.43V289.912ZM49.8057 289.263C50.0628 289.23 50.2467 289.189 50.3574 289.141C50.556 289.056 50.6553 288.924 50.6553 288.745C50.6553 288.527 50.5788 288.377 50.4258 288.296C50.276 288.211 50.0547 288.169 49.7617 288.169C49.4329 288.169 49.2002 288.25 49.0635 288.413C48.9658 288.534 48.9007 288.696 48.8682 288.901H47.5254C47.5547 288.436 47.6849 288.053 47.916 287.754C48.2839 287.285 48.9154 287.051 49.8105 287.051C50.3932 287.051 50.9108 287.166 51.3633 287.397C51.8158 287.629 52.042 288.065 52.042 288.706V291.147C52.042 291.317 52.0452 291.522 52.0518 291.763C52.0615 291.945 52.0892 292.069 52.1348 292.134C52.1803 292.199 52.2487 292.253 52.3398 292.295V292.5H50.8262C50.7839 292.393 50.7546 292.292 50.7383 292.197C50.722 292.103 50.709 291.995 50.6992 291.875C50.5072 292.083 50.2858 292.261 50.0352 292.407C49.7357 292.58 49.3971 292.666 49.0195 292.666C48.5378 292.666 48.139 292.529 47.8232 292.256C47.5107 291.979 47.3545 291.589 47.3545 291.084C47.3545 290.43 47.6068 289.956 48.1113 289.663C48.388 289.504 48.7949 289.39 49.332 289.321L49.8057 289.263ZM56.2314 287.051C56.7816 287.051 57.2308 287.196 57.5791 287.485C57.9307 287.772 58.1064 288.249 58.1064 288.916V292.5H56.6807V289.263C56.6807 288.983 56.6432 288.768 56.5684 288.618C56.4316 288.345 56.1712 288.208 55.7871 288.208C55.3151 288.208 54.9912 288.408 54.8154 288.809C54.7243 289.02 54.6787 289.29 54.6787 289.619V292.5H53.292V287.188H54.6348V287.964C54.8138 287.69 54.9831 287.493 55.1426 287.373C55.429 287.158 55.792 287.051 56.2314 287.051Z" fill="#CBD5E0"/>
<path d="M13.2334 257.528C13.2334 258.342 13.3001 258.965 13.4336 259.398C13.5671 259.828 13.8405 260.043 14.2539 260.043C14.6673 260.043 14.9375 259.828 15.0645 259.398C15.1947 258.965 15.2598 258.342 15.2598 257.528C15.2598 256.675 15.1947 256.044 15.0645 255.634C14.9375 255.224 14.6673 255.019 14.2539 255.019C13.8405 255.019 13.5671 255.224 13.4336 255.634C13.3001 256.044 13.2334 256.675 13.2334 257.528ZM14.2539 253.871C15.1556 253.871 15.7871 254.188 16.1484 254.823C16.513 255.458 16.6953 256.36 16.6953 257.528C16.6953 258.697 16.513 259.597 16.1484 260.229C15.7871 260.86 15.1556 261.176 14.2539 261.176C13.3522 261.176 12.7191 260.86 12.3545 260.229C11.9932 259.597 11.8125 258.697 11.8125 257.528C11.8125 256.36 11.9932 255.458 12.3545 254.823C12.7191 254.188 13.3522 253.871 14.2539 253.871Z" fill="#CBD5E0"/>
<path d="M1.19336 206.117V205.17C1.63281 205.15 1.94043 205.121 2.11621 205.082C2.39616 205.02 2.62402 204.896 2.7998 204.711C2.92025 204.584 3.01139 204.415 3.07324 204.203C3.10905 204.076 3.12695 203.982 3.12695 203.92H4.28418V211H2.8584V206.117H1.19336ZM7.7998 207.528C7.7998 208.342 7.86654 208.965 8 209.398C8.13346 209.828 8.4069 210.043 8.82031 210.043C9.23372 210.043 9.50391 209.828 9.63086 209.398C9.76107 208.965 9.82617 208.342 9.82617 207.528C9.82617 206.675 9.76107 206.044 9.63086 205.634C9.50391 205.224 9.23372 205.019 8.82031 205.019C8.4069 205.019 8.13346 205.224 8 205.634C7.86654 206.044 7.7998 206.675 7.7998 207.528ZM8.82031 203.871C9.72201 203.871 10.3535 204.188 10.7148 204.823C11.0794 205.458 11.2617 206.36 11.2617 207.528C11.2617 208.697 11.0794 209.597 10.7148 210.229C10.3535 210.86 9.72201 211.176 8.82031 211.176C7.91862 211.176 7.28548 210.86 6.9209 210.229C6.55957 209.597 6.37891 208.697 6.37891 207.528C6.37891 206.36 6.55957 205.458 6.9209 204.823C7.28548 204.188 7.91862 203.871 8.82031 203.871ZM13.3662 207.528C13.3662 208.342 13.4329 208.965 13.5664 209.398C13.6999 209.828 13.9733 210.043 14.3867 210.043C14.8001 210.043 15.0703 209.828 15.1973 209.398C15.3275 208.965 15.3926 208.342 15.3926 207.528C15.3926 206.675 15.3275 206.044 15.1973 205.634C15.0703 205.224 14.8001 205.019 14.3867 205.019C13.9733 205.019 13.6999 205.224 13.5664 205.634C13.4329 206.044 13.3662 206.675 13.3662 207.528ZM14.3867 203.871C15.2884 203.871 15.9199 204.188 16.2812 204.823C16.6458 205.458 16.8281 206.36 16.8281 207.528C16.8281 208.697 16.6458 209.597 16.2812 210.229C15.9199 210.86 15.2884 211.176 14.3867 211.176C13.485 211.176 12.8519 210.86 12.4873 210.229C12.126 209.597 11.9453 208.697 11.9453 207.528C11.9453 206.36 12.126 205.458 12.4873 204.823C12.8519 204.188 13.485 203.871 14.3867 203.871Z" fill="#CBD5E0"/>
<path d="M0.8125 161C0.825521 160.492 0.93457 160.028 1.13965 159.608C1.33822 159.136 1.80697 158.637 2.5459 158.109C3.18717 157.65 3.60221 157.322 3.79102 157.123C4.08073 156.814 4.22559 156.475 4.22559 156.107C4.22559 155.808 4.14258 155.559 3.97656 155.36C3.81055 155.162 3.57292 155.062 3.26367 155.062C2.84049 155.062 2.55241 155.22 2.39941 155.536C2.31152 155.718 2.25944 156.008 2.24316 156.405H0.890625C0.913411 155.803 1.02246 155.316 1.21777 154.945C1.58887 154.239 2.24805 153.886 3.19531 153.886C3.94401 153.886 4.53971 154.094 4.98242 154.511C5.42513 154.924 5.64648 155.473 5.64648 156.156C5.64648 156.68 5.49023 157.146 5.17773 157.553C4.97266 157.823 4.63574 158.124 4.16699 158.456L3.61035 158.852C3.26204 159.099 3.02279 159.278 2.89258 159.389C2.76562 159.499 2.6582 159.628 2.57031 159.774H5.66113V161H0.8125ZM7.7998 157.528C7.7998 158.342 7.86654 158.965 8 159.398C8.13346 159.828 8.4069 160.043 8.82031 160.043C9.23372 160.043 9.50391 159.828 9.63086 159.398C9.76107 158.965 9.82617 158.342 9.82617 157.528C9.82617 156.675 9.76107 156.044 9.63086 155.634C9.50391 155.224 9.23372 155.019 8.82031 155.019C8.4069 155.019 8.13346 155.224 8 155.634C7.86654 156.044 7.7998 156.675 7.7998 157.528ZM8.82031 153.871C9.72201 153.871 10.3535 154.188 10.7148 154.823C11.0794 155.458 11.2617 156.36 11.2617 157.528C11.2617 158.697 11.0794 159.597 10.7148 160.229C10.3535 160.86 9.72201 161.176 8.82031 161.176C7.91862 161.176 7.28548 160.86 6.9209 160.229C6.55957 159.597 6.37891 158.697 6.37891 157.528C6.37891 156.36 6.55957 155.458 6.9209 154.823C7.28548 154.188 7.91862 153.871 8.82031 153.871ZM13.3662 157.528C13.3662 158.342 13.4329 158.965 13.5664 159.398C13.6999 159.828 13.9733 160.043 14.3867 160.043C14.8001 160.043 15.0703 159.828 15.1973 159.398C15.3275 158.965 15.3926 158.342 15.3926 157.528C15.3926 156.675 15.3275 156.044 15.1973 155.634C15.0703 155.224 14.8001 155.019 14.3867 155.019C13.9733 155.019 13.6999 155.224 13.5664 155.634C13.4329 156.044 13.3662 156.675 13.3662 157.528ZM14.3867 153.871C15.2884 153.871 15.9199 154.188 16.2812 154.823C16.6458 155.458 16.8281 156.36 16.8281 157.528C16.8281 158.697 16.6458 159.597 16.2812 160.229C15.9199 160.86 15.2884 161.176 14.3867 161.176C13.485 161.176 12.8519 160.86 12.4873 160.229C12.126 159.597 11.9453 158.697 11.9453 157.528C11.9453 156.36 12.126 155.458 12.4873 154.823C12.8519 154.188 13.485 153.871 14.3867 153.871Z" fill="#CBD5E0"/>
<path d="M2.13086 108.827C2.13086 109.11 2.17643 109.345 2.26758 109.53C2.43685 109.872 2.74447 110.043 3.19043 110.043C3.46387 110.043 3.7015 109.95 3.90332 109.765C4.1084 109.576 4.21094 109.306 4.21094 108.954C4.21094 108.489 4.02214 108.178 3.64453 108.021C3.42969 107.934 3.09115 107.89 2.62891 107.89V106.894C3.08138 106.887 3.39714 106.843 3.57617 106.762C3.88542 106.625 4.04004 106.348 4.04004 105.932C4.04004 105.661 3.96029 105.442 3.80078 105.272C3.64453 105.103 3.42318 105.019 3.13672 105.019C2.80794 105.019 2.56543 105.123 2.40918 105.331C2.25618 105.539 2.18294 105.818 2.18945 106.166H0.890625C0.903646 105.814 0.963867 105.481 1.07129 105.165C1.18522 104.888 1.36426 104.633 1.6084 104.398C1.79069 104.232 2.00716 104.105 2.25781 104.018C2.50846 103.93 2.81608 103.886 3.18066 103.886C3.85775 103.886 4.40299 104.062 4.81641 104.413C5.23307 104.761 5.44141 105.23 5.44141 105.819C5.44141 106.236 5.31771 106.588 5.07031 106.874C4.91406 107.053 4.7513 107.175 4.58203 107.24C4.70898 107.24 4.89128 107.349 5.12891 107.567C5.48372 107.896 5.66113 108.345 5.66113 108.915C5.66113 109.514 5.4528 110.041 5.03613 110.497C4.62272 110.95 4.00911 111.176 3.19531 111.176C2.19271 111.176 1.49609 110.849 1.10547 110.194C0.900391 109.846 0.786458 109.39 0.763672 108.827H2.13086ZM7.7998 107.528C7.7998 108.342 7.86654 108.965 8 109.398C8.13346 109.828 8.4069 110.043 8.82031 110.043C9.23372 110.043 9.50391 109.828 9.63086 109.398C9.76107 108.965 9.82617 108.342 9.82617 107.528C9.82617 106.675 9.76107 106.044 9.63086 105.634C9.50391 105.224 9.23372 105.019 8.82031 105.019C8.4069 105.019 8.13346 105.224 8 105.634C7.86654 106.044 7.7998 106.675 7.7998 107.528ZM8.82031 103.871C9.72201 103.871 10.3535 104.188 10.7148 104.823C11.0794 105.458 11.2617 106.36 11.2617 107.528C11.2617 108.697 11.0794 109.597 10.7148 110.229C10.3535 110.86 9.72201 111.176 8.82031 111.176C7.91862 111.176 7.28548 110.86 6.9209 110.229C6.55957 109.597 6.37891 108.697 6.37891 107.528C6.37891 106.36 6.55957 105.458 6.9209 104.823C7.28548 104.188 7.91862 103.871 8.82031 103.871ZM13.3662 107.528C13.3662 108.342 13.4329 108.965 13.5664 109.398C13.6999 109.828 13.9733 110.043 14.3867 110.043C14.8001 110.043 15.0703 109.828 15.1973 109.398C15.3275 108.965 15.3926 108.342 15.3926 107.528C15.3926 106.675 15.3275 106.044 15.1973 105.634C15.0703 105.224 14.8001 105.019 14.3867 105.019C13.9733 105.019 13.6999 105.224 13.5664 105.634C13.4329 106.044 13.3662 106.675 13.3662 107.528ZM14.3867 103.871C15.2884 103.871 15.9199 104.188 16.2812 104.823C16.6458 105.458 16.8281 106.36 16.8281 107.528C16.8281 108.697 16.6458 109.597 16.2812 110.229C15.9199 110.86 15.2884 111.176 14.3867 111.176C13.485 111.176 12.8519 110.86 12.4873 110.229C12.126 109.597 11.9453 108.697 11.9453 107.528C11.9453 106.36 12.126 105.458 12.4873 104.823C12.8519 104.188 13.485 103.871 14.3867 103.871Z" fill="#CBD5E0"/>
<path d="M5.72949 59.4766H4.92871V61H3.56641V59.4766H0.763672V58.2607L3.36621 53.9639H4.92871V58.3877H5.72949V59.4766ZM3.56641 58.3877V55.3311L1.79395 58.3877H3.56641ZM7.7998 57.5283C7.7998 58.3421 7.86654 58.9655 8 59.3984C8.13346 59.8281 8.4069 60.043 8.82031 60.043C9.23372 60.043 9.50391 59.8281 9.63086 59.3984C9.76107 58.9655 9.82617 58.3421 9.82617 57.5283C9.82617 56.6755 9.76107 56.0439 9.63086 55.6338C9.50391 55.2236 9.23372 55.0186 8.82031 55.0186C8.4069 55.0186 8.13346 55.2236 8 55.6338C7.86654 56.0439 7.7998 56.6755 7.7998 57.5283ZM8.82031 53.8711C9.72201 53.8711 10.3535 54.1885 10.7148 54.8232C11.0794 55.458 11.2617 56.3597 11.2617 57.5283C11.2617 58.6969 11.0794 59.597 10.7148 60.2285C10.3535 60.86 9.72201 61.1758 8.82031 61.1758C7.91862 61.1758 7.28548 60.86 6.9209 60.2285C6.55957 59.597 6.37891 58.6969 6.37891 57.5283C6.37891 56.3597 6.55957 55.458 6.9209 54.8232C7.28548 54.1885 7.91862 53.8711 8.82031 53.8711ZM13.3662 57.5283C13.3662 58.3421 13.4329 58.9655 13.5664 59.3984C13.6999 59.8281 13.9733 60.043 14.3867 60.043C14.8001 60.043 15.0703 59.8281 15.1973 59.3984C15.3275 58.9655 15.3926 58.3421 15.3926 57.5283C15.3926 56.6755 15.3275 56.0439 15.1973 55.6338C15.0703 55.2236 14.8001 55.0186 14.3867 55.0186C13.9733 55.0186 13.6999 55.2236 13.5664 55.6338C13.4329 56.0439 13.3662 56.6755 13.3662 57.5283ZM14.3867 53.8711C15.2884 53.8711 15.9199 54.1885 16.2812 54.8232C16.6458 55.458 16.8281 56.3597 16.8281 57.5283C16.8281 58.6969 16.6458 59.597 16.2812 60.2285C15.9199 60.86 15.2884 61.1758 14.3867 61.1758C13.485 61.1758 12.8519 60.86 12.4873 60.2285C12.126 59.597 11.9453 58.6969 11.9453 57.5283C11.9453 56.3597 12.126 55.458 12.4873 54.8232C12.8519 54.1885 13.485 53.8711 14.3867 53.8711Z" fill="#CBD5E0"/>
<path d="M2.15039 9.10548C2.20573 9.40821 2.31152 9.64259 2.46777 9.8086C2.62402 9.97136 2.85189 10.0527 3.15137 10.0527C3.49642 10.0527 3.75846 9.9323 3.9375 9.69141C4.11979 9.44727 4.21094 9.14128 4.21094 8.77345C4.21094 8.41212 4.1263 8.10776 3.95703 7.86036C3.78776 7.60971 3.52409 7.48438 3.16602 7.48438C2.99674 7.48438 2.85026 7.50554 2.72656 7.54786C2.50846 7.62598 2.34408 7.77084 2.2334 7.98243L0.983398 7.92384L1.48145 4.0127H5.38281V5.19434H2.4873L2.2334 6.7422C2.44824 6.60222 2.61589 6.50945 2.73633 6.46387C2.93815 6.38901 3.18392 6.35157 3.47363 6.35157C4.05957 6.35157 4.57064 6.54851 5.00684 6.94239C5.44303 7.33627 5.66113 7.90919 5.66113 8.66114C5.66113 9.31544 5.45117 9.89975 5.03125 10.4141C4.61133 10.9284 3.98307 11.1856 3.14648 11.1856C2.47266 11.1856 1.91927 11.0049 1.48633 10.6436C1.05339 10.2822 0.8125 9.76954 0.763672 9.10548H2.15039ZM7.7998 7.52833C7.7998 8.34213 7.86654 8.9655 8 9.39845C8.13346 9.82813 8.4069 10.043 8.82031 10.043C9.23372 10.043 9.50391 9.82813 9.63086 9.39845C9.76107 8.9655 9.82617 8.34213 9.82617 7.52833C9.82617 6.67546 9.76107 6.04395 9.63086 5.6338C9.50391 5.22364 9.23372 5.01856 8.82031 5.01856C8.4069 5.01856 8.13346 5.22364 8 5.6338C7.86654 6.04395 7.7998 6.67546 7.7998 7.52833ZM8.82031 3.8711C9.72201 3.8711 10.3535 4.18848 10.7148 4.82325C11.0794 5.45802 11.2617 6.35971 11.2617 7.52833C11.2617 8.69695 11.0794 9.59701 10.7148 10.2285C10.3535 10.86 9.72201 11.1758 8.82031 11.1758C7.91862 11.1758 7.28548 10.86 6.9209 10.2285C6.55957 9.59701 6.37891 8.69695 6.37891 7.52833C6.37891 6.35971 6.55957 5.45802 6.9209 4.82325C7.28548 4.18848 7.91862 3.8711 8.82031 3.8711ZM13.3662 7.52833C13.3662 8.34213 13.4329 8.9655 13.5664 9.39845C13.6999 9.82813 13.9733 10.043 14.3867 10.043C14.8001 10.043 15.0703 9.82813 15.1973 9.39845C15.3275 8.9655 15.3926 8.34213 15.3926 7.52833C15.3926 6.67546 15.3275 6.04395 15.1973 5.6338C15.0703 5.22364 14.8001 5.01856 14.3867 5.01856C13.9733 5.01856 13.6999 5.22364 13.5664 5.6338C13.4329 6.04395 13.3662 6.67546 13.3662 7.52833ZM14.3867 3.8711C15.2884 3.8711 15.9199 4.18848 16.2812 4.82325C16.6458 5.45802 16.8281 6.35971 16.8281 7.52833C16.8281 8.69695 16.6458 9.59701 16.2812 10.2285C15.9199 10.86 15.2884 11.1758 14.3867 11.1758C13.485 11.1758 12.8519 10.86 12.4873 10.2285C12.126 9.59701 11.9453 8.69695 11.9453 7.52833C11.9453 6.35971 12.126 5.45802 12.4873 4.82325C12.8519 4.18848 13.485 3.8711 14.3867 3.8711Z" fill="#CBD5E0"/>
<line x1="42" y1="257" x2="881" y2="257" stroke="#E2E8F0" stroke-linecap="round" stroke-linejoin="round" stroke-dasharray="3.5 3.5"/>
<line x1="42" y1="207" x2="881" y2="207" stroke="#E2E8F0" stroke-linecap="round" stroke-linejoin="round" stroke-dasharray="3.5 3.5"/>
<line x1="42" y1="157" x2="881" y2="157" stroke="#E2E8F0" stroke-linecap="round" stroke-linejoin="round" stroke-dasharray="3.5 3.5"/>
<line x1="42" y1="107" x2="881" y2="107" stroke="#E2E8F0" stroke-linecap="round" stroke-linejoin="round" stroke-dasharray="3.5 3.5"/>
<line x1="42" y1="57" x2="881" y2="57.0001" stroke="#E2E8F0" stroke-linecap="round" stroke-linejoin="round" stroke-dasharray="3.5 3.5"/>
<line x1="42" y1="7" x2="881" y2="7.00008" stroke="#E2E8F0" stroke-linecap="round" stroke-linejoin="round" stroke-dasharray="3.5 3.5"/>
<path d="M766.704 177.045C810.311 163.948 861.405 182.503 881.5 193.417V257.25H41.5005V7.49999C83.7014 14.9922 110.831 76.5946 117.613 115.72C123.145 147.632 123.39 170.386 152.78 177.045C182.328 183.74 217.359 162.436 247 133.577C270.713 110.49 306.115 123.957 320.852 133.577C346.977 150.319 390.01 161.672 424.575 144.579C467.78 123.213 491.644 129.317 546.154 144.579C600.663 159.841 595.137 169.553 640.603 193.417C686.07 217.281 712.194 193.417 766.704 177.045Z" fill="url(#paint0_linear_2058_935)"/>
<path d="M881.5 193.417C861.405 182.503 810.311 163.948 766.704 177.045C712.194 193.417 686.07 217.281 640.603 193.417C595.137 169.553 600.663 159.841 546.154 144.579C491.644 129.317 467.78 123.213 424.575 144.579C390.01 161.672 346.977 150.319 320.852 133.577C306.115 123.957 270.713 110.49 247 133.577C217.359 162.436 182.328 183.74 152.78 177.045C123.39 170.386 123.145 147.632 117.613 115.72C110.831 76.5946 83.7014 14.9922 41.5005 7.49999" stroke="url(#paint1_linear_2058_935)" stroke-width="3"/>
<defs>
<linearGradient id="paint0_linear_2058_935" x1="461.5" y1="7.49999" x2="461.5" y2="257.25" gradientUnits="userSpaceOnUse">
<stop stop-color="#CE34D4" stop-opacity="0.36"/>
<stop offset="1" stop-color="#CE34D4" stop-opacity="0"/>
</linearGradient>
<linearGradient id="paint1_linear_2058_935" x1="881.5" y1="105.5" x2="41.5005" y2="105.5" gradientUnits="userSpaceOnUse">
<stop stop-color="#E488CC"/>
<stop offset="1" stop-color="#CE34D4"/>
</linearGradient>
</defs>
</svg>
