<svg width="24" height="24" viewBox="0 0 24 24" fill="none" xmlns="http://www.w3.org/2000/svg">
<g clip-path="url(#clip0_2241_2279)">
<path d="M23.641 14.9019C22.0377 21.3339 15.521 25.2439 9.09824 23.6405C2.66605 22.0371 -1.24389 15.5208 0.359518 9.09805C1.96283 2.66605 8.47002 -1.24389 14.9022 0.359519C21.325 1.95346 25.2444 8.46983 23.641 14.9019Z" fill="url(#paint0_linear_2241_2279)"/>
<path d="M17.7141 10.5047C17.9484 8.91099 16.7391 8.04849 15.0703 7.47661L15.6141 5.31099L14.3016 4.98286L13.7766 7.09224C13.4297 7.00786 13.0734 6.92349 12.7172 6.84849L13.2422 4.72974L11.9297 4.40161L11.3953 6.55786C11.1047 6.49224 10.8234 6.42661 10.5516 6.36099V6.35161L8.73281 5.90161L8.38594 7.30786C8.38594 7.30786 9.36094 7.53286 9.34219 7.54224C9.87656 7.67349 9.97031 8.02974 9.95156 8.31099L9.33281 10.7766C9.37031 10.786 9.41719 10.7954 9.47344 10.8235C9.42656 10.8141 9.37969 10.8047 9.33281 10.786L8.47031 14.236C8.40469 14.3954 8.23594 14.6391 7.87031 14.5454C7.87969 14.5641 6.91406 14.311 6.91406 14.311L6.25781 15.8204L7.97344 16.2516C8.29219 16.336 8.60156 16.411 8.91094 16.4954L8.36719 18.6797L9.67969 19.0079L10.2234 16.8422C10.5797 16.936 10.9359 17.0297 11.2734 17.1141L10.7391 19.2704L12.0516 19.5985L12.5953 17.4141C14.8453 17.836 16.5328 17.6672 17.2359 15.6329C17.8078 14.0016 17.2078 13.0547 16.0266 12.436C16.8984 12.2391 17.5453 11.6672 17.7141 10.5047ZM14.7047 14.7235C14.3016 16.3547 11.5453 15.4735 10.6547 15.2485L11.3766 12.3516C12.2672 12.5766 15.1359 13.0172 14.7047 14.7235ZM15.1172 10.4766C14.7422 11.9672 12.4547 11.2079 11.7141 11.0204L12.3703 8.39536C13.1109 8.58286 15.5016 8.92974 15.1172 10.4766Z" fill="white"/>
</g>
<defs>
<linearGradient id="paint0_linear_2241_2279" x1="1199.35" y1="-0.575999" x2="1199.35" y2="2399.76" gradientUnits="userSpaceOnUse">
<stop stop-color="#F9AA4B"/>
<stop offset="1" stop-color="#F7931A"/>
</linearGradient>
<clipPath id="clip0_2241_2279">
<rect width="24" height="24" fill="white"/>
</clipPath>
</defs>
</svg>
