<svg width="160" height="160" viewBox="0 0 160 160" fill="none" xmlns="http://www.w3.org/2000/svg">
<mask id="mask0_2337_3803" style="mask-type:luminance" maskUnits="userSpaceOnUse" x="0" y="0" width="160" height="160">
<path d="M0 0H160V160H0V0Z" fill="white"/>
</mask>
<g mask="url(#mask0_2337_3803)">
<path d="M104.263 61.4021L71.0683 94.5963L57.8702 81.4651C55.9374 79.532 52.7377 79.532 50.8046 81.4651C48.8718 83.3979 48.8718 86.5976 50.8046 88.5307L67.5355 105.195C68.5351 106.194 69.8017 106.661 71.0683 106.661C72.3348 106.661 73.6011 106.194 74.6011 105.195L111.328 68.4674C113.328 66.5345 113.328 63.4017 111.328 61.4017C109.395 59.4689 106.262 59.4689 104.262 61.4017L104.263 61.4021Z" fill="url(#paint0_linear_2337_3803)"/>
<path d="M78.4 13.3425C41.6726 14.2756 12.4774 44.8708 13.344 81.5985C13.744 99.3953 21.1427 115.993 34.0074 128.258C46.5386 140.189 62.736 146.655 79.9334 146.655H81.5997C99.3968 146.255 115.994 138.856 128.259 125.991C140.524 113.127 147.056 96.1959 146.656 78.3988C146.256 60.6017 138.857 44.0043 125.993 31.7396C113.061 19.475 96.1974 12.9428 78.4003 13.3425H78.4ZM120.993 119.059C110.528 129.99 96.464 136.256 81.3331 136.59C66.1357 136.99 51.871 131.39 40.873 120.992C29.8746 110.594 23.6755 96.4625 23.3424 81.3316C22.6093 50.0699 47.4051 24.074 78.6 23.3409H80C94.5978 23.3409 108.396 28.8734 119.06 39.0049C129.992 49.4702 136.258 63.5345 136.591 78.6654C136.991 93.7297 131.458 108.127 120.993 119.059Z" fill="url(#paint1_linear_2337_3803)"/>
</g>
<defs>
<linearGradient id="paint0_linear_2337_3803" x1="81.0914" y1="59.9521" x2="81.0914" y2="106.661" gradientUnits="userSpaceOnUse">
<stop stop-color="#219F70"/>
<stop offset="1" stop-color="#DF87F1"/>
</linearGradient>
<linearGradient id="paint1_linear_2337_3803" x1="79.9993" y1="13.3252" x2="79.9993" y2="146.655" gradientUnits="userSpaceOnUse">
<stop stop-color="#219F70"/>
<stop offset="1" stop-color="#DF87F1"/>
</linearGradient>
</defs>
</svg>
