<svg width="100" height="22" viewBox="0 0 100 22" fill="none" xmlns="http://www.w3.org/2000/svg">
<g clip-path="url(#clip0_2241_2211)">
<path fill-rule="evenodd" clip-rule="evenodd" d="M9.28535 -0.000488281L0 5.463V11.6049H5.58965L0.00012718 14.8938V21.0408H6.14203L15.4326 15.5773V9.43027H9.83978L15.4324 6.1414V-0.000488281H9.28535Z" fill="white"/>
<path fill-rule="evenodd" clip-rule="evenodd" d="M9.28535 -0.000488281L0 5.463V11.6049H5.58965L0.00012718 14.8938V21.0408H6.14203L15.4326 15.5773V9.43027H9.83978L15.4324 6.1414V-0.000488281H9.28535Z" fill="white"/>
<path d="M15.4271 -0.000244141H9.28516V6.14165H15.4271V-0.000244141Z" fill="white"/>
<path d="M58.0836 15.5359C57.5295 15.567 57.0686 15.5721 56.6957 15.5566C56.3228 15.5255 56.038 15.422 55.8464 15.2459C55.6548 15.0646 55.5564 14.785 55.5564 14.3966V9.74614H58.0836V6.97037H55.5564V3.83728L52.6719 5.54106V14.3966C52.6719 15.9346 53.0758 16.9963 53.8785 17.597C54.6967 18.1925 56.1002 18.379 58.0836 18.1563V15.5411V15.5359Z" fill="white"/>
<path d="M35.5828 3.83728L32.6982 5.53588V14.3966C32.6982 15.9346 33.1022 16.9963 33.9049 17.597C34.7231 18.1925 36.1265 18.379 38.1099 18.1563V15.5411C37.5558 15.5721 37.0949 15.5773 36.7221 15.5618C36.3492 15.5307 36.0644 15.4271 35.8728 15.2511C35.6812 15.0698 35.5828 14.7902 35.5828 14.4018V9.75132H38.1099V6.97555H35.5828V3.84246V3.83728Z" fill="white"/>
<path d="M48.141 8.29046C47.2762 7.20294 46.0592 6.65918 44.4952 6.65918C42.9313 6.65918 41.7195 7.23401 40.6475 8.38367C39.591 9.5178 39.0576 10.9109 39.0576 12.568C39.0576 14.2252 39.5858 15.6234 40.6475 16.7731C41.7195 17.9072 43.0038 18.4717 44.4952 18.4717C46.0592 18.4717 47.2762 17.9279 48.141 16.8404V18.161H51.0255V6.9699H48.141V8.29046ZM47.2451 14.8466C46.6651 15.4266 45.9245 15.7167 45.0286 15.7167C44.1327 15.7167 43.3973 15.4266 42.8122 14.8466C42.2321 14.2511 41.9421 13.4898 41.9421 12.5629C41.9421 11.6359 42.2321 10.885 42.8122 10.305C43.3922 9.70941 44.1327 9.40905 45.0286 9.40905C45.9245 9.40905 46.6599 9.70941 47.2451 10.305C47.8406 10.885 48.141 11.641 48.141 12.5629C48.141 13.4847 47.8406 14.2459 47.2451 14.8466Z" fill="white"/>
<path d="M31.0102 11.533C30.86 11.2637 30.6373 11.0048 30.3369 10.751C30.0366 10.4973 29.7725 10.2953 29.5342 10.1451C29.3116 9.99492 28.9801 9.83956 28.5503 9.67384C28.1308 9.49259 27.7994 9.3683 27.5456 9.2958C27.3074 9.20777 26.9501 9.08866 26.4737 8.93847C25.3085 8.58115 24.5213 8.25489 24.1018 7.95453C23.6979 7.64381 23.4959 7.23987 23.4959 6.7479C23.4959 6.287 23.6772 5.91413 24.0345 5.62931C24.4074 5.32894 24.9149 5.18394 25.557 5.18394C26.9294 5.18394 27.9289 5.85717 28.5555 7.19844L31.15 5.70181C30.6114 4.59875 29.8605 3.73909 28.8921 3.12801C27.9392 2.50139 26.8258 2.19067 25.557 2.19067C24.1381 2.19067 22.9263 2.61532 21.9113 3.46463C20.9118 4.29839 20.4146 5.42734 20.4146 6.84111C20.4146 7.55577 20.5389 8.18239 20.7927 8.72097C21.0464 9.25955 21.4089 9.70492 21.8905 10.0622C22.3825 10.404 22.8693 10.6837 23.3457 10.8908C23.8377 11.098 24.4333 11.3103 25.1376 11.5174C26.4063 11.8748 27.2867 12.2114 27.7787 12.5221C28.2707 12.8225 28.5192 13.2471 28.5192 13.7961C28.5192 14.2725 28.3173 14.6661 27.9133 14.982C27.5094 15.2927 26.8776 15.4532 26.0128 15.4532C24.2209 15.4532 23.0247 14.6557 22.4136 13.0607L19.7725 14.6039C20.2075 15.795 20.948 16.7427 22.0096 17.447C23.0661 18.1306 24.3711 18.4776 25.9247 18.4776C27.6078 18.4776 28.9749 18.0529 30.0159 17.2036C31.0723 16.3543 31.6057 15.2047 31.6057 13.7598C31.6057 13.3144 31.5436 12.9002 31.4245 12.5273C31.3209 12.1389 31.1862 11.8126 31.0205 11.5433L31.0102 11.533Z" fill="white"/>
<path d="M87.3484 6.9707H84.4639V18.1566H87.3484V6.9707Z" fill="white"/>
<path d="M95.9086 12.429L99.8185 6.9707H96.5094L94.2515 10.1245L91.9936 6.9707H88.6585L92.5736 12.4497L88.4824 18.1566H91.8123L94.2515 14.7542L96.6647 18.1566H99.9998L95.9086 12.429Z" fill="white"/>
<path d="M81.7195 4.01862C80.689 3.0036 79.4254 2.49609 77.9184 2.49609H72.082V18.1512H75.1685V13.0088H77.9184C79.4254 13.0088 80.6941 12.5013 81.7195 11.4863C82.7501 10.4712 83.2628 9.22835 83.2628 7.75244C83.2628 6.27652 82.7501 5.02846 81.7195 4.01862ZM79.5393 9.45622C79.1043 9.90158 78.5605 10.1294 77.908 10.1294H75.1582V5.38579H77.908C78.5657 5.38579 79.1095 5.60847 79.5393 6.05901C79.9743 6.50438 80.1866 7.07403 80.1866 7.75761C80.1866 8.4412 79.9691 8.99531 79.5393 9.45622Z" fill="white"/>
<path d="M67.7159 14.7327C67.1514 15.4784 66.3124 15.8513 65.2094 15.8513C63.4953 15.8513 62.444 15.1522 62.0556 13.7488H70.4864C70.5589 13.3293 70.6004 12.9357 70.6004 12.5629C70.6004 10.8901 70.0618 9.49191 68.9898 8.35778C67.9334 7.22365 66.5817 6.65918 64.9401 6.65918C63.2104 6.65918 61.7915 7.22365 60.6884 8.35778C59.5854 9.47637 59.0312 10.8798 59.0312 12.5629C59.0312 14.2459 59.5905 15.67 60.7091 16.7886C61.8277 17.9072 63.3088 18.4665 65.1628 18.4665C67.3119 18.4665 68.938 17.669 70.0411 16.074L67.7159 14.7327ZM63.0188 9.85441C63.5263 9.45048 64.1685 9.24851 64.9401 9.24851C65.5978 9.24851 66.1778 9.43494 66.6853 9.8078C67.2084 10.1807 67.5501 10.7451 67.7159 11.5064H62.0142C62.1799 10.7917 62.5113 10.2376 63.0188 9.84923V9.85441Z" fill="white"/>
<path d="M87.3484 2.62573H84.4639V5.51025H87.3484V2.62573Z" fill="white"/>
</g>
<defs>
<clipPath id="clip0_2241_2211">
<rect width="100" height="21.0409" fill="white"/>
</clipPath>
</defs>
</svg>
