<svg width="100" height="22" viewBox="0 0 100 22" fill="none" xmlns="http://www.w3.org/2000/svg">
<g clip-path="url(#clip0_2252_5564)">
<path fill-rule="evenodd" clip-rule="evenodd" d="M9.2851 -0.000518799L-0.000244141 5.46297V11.6049H5.58941L-0.00011696 14.8937V21.0408H6.14178L15.4323 15.5773V9.43024H9.83954L15.4322 6.14137V-0.000518799H9.2851Z" fill="url(#paint0_linear_2252_5564)"/>
<path fill-rule="evenodd" clip-rule="evenodd" d="M9.2851 -0.000518799L-0.000244141 5.46297V11.6049H5.58941L-0.00011696 14.8937V21.0408H6.14178L15.4323 15.5773V9.43024H9.83954L15.4322 6.14137V-0.000518799H9.2851Z" fill="url(#paint1_linear_2252_5564)"/>
<path d="M15.4272 -0.000244141H9.28528V6.14165H15.4272V-0.000244141Z" fill="#251725"/>
<path d="M58.0838 15.5358C57.5297 15.5669 57.0688 15.5721 56.6959 15.5565C56.3231 15.5255 56.0382 15.4219 55.8466 15.2458C55.655 15.0646 55.5566 14.7849 55.5566 14.3965V9.74608H58.0838V6.97031H55.5566V3.83722L52.6721 5.541V14.3965C52.6721 15.9346 53.0761 16.9962 53.8787 17.5969C54.697 18.1925 56.1004 18.3789 58.0838 18.1562V15.541V15.5358Z" fill="#251725"/>
<path d="M35.5825 3.83722L32.698 5.53582V14.3965C32.698 15.9346 33.1019 16.9962 33.9046 17.5969C34.7229 18.1925 36.1263 18.3789 38.1097 18.1562V15.541C37.5556 15.5721 37.0947 15.5773 36.7218 15.5617C36.349 15.5306 36.0641 15.4271 35.8725 15.251C35.6809 15.0697 35.5825 14.7901 35.5825 14.4017V9.75126H38.1097V6.97549H35.5825V3.8424V3.83722Z" fill="#251725"/>
<path d="M48.1408 8.29046C47.2759 7.20294 46.0589 6.65918 44.495 6.65918C42.931 6.65918 41.7192 7.23401 40.6472 8.38367C39.5908 9.5178 39.0574 10.9109 39.0574 12.568C39.0574 14.2252 39.5856 15.6234 40.6472 16.7731C41.7192 17.9072 43.0035 18.4717 44.495 18.4717C46.0589 18.4717 47.2759 17.9279 48.1408 16.8404V18.161H51.0253V6.9699H48.1408V8.29046ZM47.2448 14.8466C46.6648 15.4266 45.9243 15.7167 45.0284 15.7167C44.1325 15.7167 43.3971 15.4266 42.8119 14.8466C42.2319 14.2511 41.9419 13.4898 41.9419 12.5629C41.9419 11.6359 42.2319 10.885 42.8119 10.305C43.3919 9.70941 44.1325 9.40905 45.0284 9.40905C45.9243 9.40905 46.6597 9.70941 47.2448 10.305C47.8404 10.885 48.1408 11.641 48.1408 12.5629C48.1408 13.4847 47.8404 14.2459 47.2448 14.8466Z" fill="#251725"/>
<path d="M31.0098 11.5329C30.8596 11.2636 30.6369 11.0047 30.3366 10.7509C30.0362 10.4972 29.7721 10.2952 29.5339 10.145C29.3112 9.99486 28.9798 9.8395 28.5499 9.67378C28.1305 9.49253 27.799 9.36824 27.5453 9.29574C27.3071 9.2077 26.9497 9.08859 26.4733 8.93841C25.3081 8.58109 24.5209 8.25483 24.1015 7.95447C23.6975 7.64375 23.4956 7.23981 23.4956 6.74784C23.4956 6.28694 23.6768 5.91407 24.0341 5.62925C24.407 5.32888 24.9145 5.18388 25.5567 5.18388C26.929 5.18388 27.9285 5.85711 28.5551 7.19838L31.1496 5.70175C30.611 4.59869 29.8601 3.73903 28.8917 3.12795C27.9389 2.50133 26.8254 2.19061 25.5567 2.19061C24.1377 2.19061 22.9259 2.61526 21.9109 3.46456C20.9114 4.29833 20.4142 5.42728 20.4142 6.84105C20.4142 7.55571 20.5385 8.18233 20.7923 8.72091C21.046 9.25949 21.4086 9.70486 21.8902 10.0622C22.3821 10.404 22.8689 10.6836 23.3454 10.8908C23.8373 11.0979 24.4329 11.3102 25.1372 11.5174C26.406 11.8747 27.2863 12.2113 27.7783 12.522C28.2703 12.8224 28.5189 13.2471 28.5189 13.796C28.5189 14.2724 28.3169 14.666 27.913 14.9819C27.509 15.2926 26.8772 15.4532 26.0124 15.4532C24.2206 15.4532 23.0243 14.6557 22.4132 13.0606L19.7721 14.6039C20.2071 15.795 20.9477 16.7427 22.0093 17.447C23.0657 18.1305 24.3708 18.4775 25.9244 18.4775C27.6074 18.4775 28.9746 18.0529 30.0155 17.2036C31.0719 16.3543 31.6053 15.2046 31.6053 13.7598C31.6053 13.3144 31.5432 12.9001 31.4241 12.5272C31.3205 12.1388 31.1859 11.8126 31.0202 11.5433L31.0098 11.5329Z" fill="#251725"/>
<path d="M87.3484 6.97073H84.4639V18.1567H87.3484V6.97073Z" fill="#251725"/>
<path d="M95.9086 12.429L99.8185 6.97073H96.5094L94.2515 10.1245L91.9936 6.97073H88.6585L92.5736 12.4498L88.4824 18.1567H91.8123L94.2515 14.7543L96.6647 18.1567H99.9998L95.9086 12.429Z" fill="#251725"/>
<path d="M81.7192 4.01856C80.6886 3.00354 79.425 2.49603 77.918 2.49603H72.0817V18.1511H75.1681V13.0087H77.918C79.425 13.0087 80.6938 12.5012 81.7192 11.4862C82.7497 10.4712 83.2624 9.22829 83.2624 7.75237C83.2624 6.27646 82.7497 5.0284 81.7192 4.01856ZM79.5389 9.45615C79.1039 9.90152 78.5602 10.1294 77.9077 10.1294H75.1578V5.38573H77.9077C78.5654 5.38573 79.1091 5.60841 79.5389 6.05895C79.9739 6.50432 80.1863 7.07397 80.1863 7.75755C80.1863 8.44114 79.9688 8.99525 79.5389 9.45615Z" fill="#251725"/>
<path d="M67.7162 14.7327C67.1518 15.4784 66.3128 15.8513 65.2098 15.8513C63.4956 15.8513 62.4444 15.1522 62.056 13.7488H70.4868C70.5593 13.3293 70.6007 12.9357 70.6007 12.5629C70.6007 10.8901 70.0622 9.49191 68.9902 8.35778C67.9337 7.22365 66.5821 6.65918 64.9405 6.65918C63.2108 6.65918 61.7918 7.22365 60.6888 8.35778C59.5857 9.47637 59.0316 10.8798 59.0316 12.5629C59.0316 14.2459 59.5909 15.67 60.7095 16.7886C61.8281 17.9072 63.3092 18.4665 65.1632 18.4665C67.3123 18.4665 68.9384 17.669 70.0414 16.074L67.7162 14.7327ZM63.0192 9.85441C63.5267 9.45048 64.1688 9.24851 64.9405 9.24851C65.5982 9.24851 66.1782 9.43494 66.6857 9.8078C67.2087 10.1807 67.5505 10.7451 67.7162 11.5064H62.0145C62.1802 10.7917 62.5117 10.2376 63.0192 9.84923V9.85441Z" fill="#251725"/>
<path d="M87.3485 2.62573H84.464V5.51025H87.3485V2.62573Z" fill="#251725"/>
</g>
<defs>
<linearGradient id="paint0_linear_2252_5564" x1="-2.85191" y1="8.10228" x2="17.2891" y2="12.4137" gradientUnits="userSpaceOnUse">
<stop stop-color="#DF87F1"/>
<stop offset="1" stop-color="#219F70"/>
</linearGradient>
<linearGradient id="paint1_linear_2252_5564" x1="15.5888" y1="-0.000519213" x2="6.21535" y2="23.5181" gradientUnits="userSpaceOnUse">
<stop offset="0.2" stop-color="#DF87F1"/>
<stop offset="0.8" stop-color="#219F70"/>
</linearGradient>
<clipPath id="clip0_2252_5564">
<rect width="100" height="21.0409" fill="white"/>
</clipPath>
</defs>
</svg>
