<svg width="20" height="20" viewBox="0 0 20 20" fill="none" xmlns="http://www.w3.org/2000/svg">
<g clip-path="url(#clip0_2497_2765)">
<path d="M15.6284 8.76499C15.6284 9.28582 13.7634 9.72166 11.2634 9.83166L11.2651 9.83249C10.8488 9.85501 10.432 9.86418 10.0151 9.85999C9.36594 9.85999 8.90677 9.84082 8.74511 9.83332C6.24011 9.72249 4.37011 9.28666 4.37011 8.76499C4.37011 8.24332 6.24011 7.80666 8.74511 7.69499V9.39832C8.90844 9.41082 9.37761 9.43832 10.0259 9.43832C10.8034 9.43832 11.1926 9.40499 11.2634 9.39916V7.69666C13.7634 7.80749 15.6284 8.24416 15.6284 8.76499ZM19.9534 9.21999L10.1034 18.6583C10.0755 18.6851 10.0384 18.7 9.99969 18.7C9.96103 18.7 9.92386 18.6851 9.89594 18.6583L0.0467743 9.21999C0.023661 9.19828 0.00811444 9.16973 0.00241528 9.13853C-0.00328388 9.10734 0.00116443 9.07514 0.0151076 9.04666L3.66177 1.38666C3.67369 1.36075 3.69287 1.33885 3.71698 1.32362C3.74108 1.30839 3.76909 1.30047 3.79761 1.30082H16.2043C16.2324 1.30095 16.2598 1.30909 16.2835 1.3243C16.3071 1.3395 16.3259 1.36114 16.3376 1.38666L19.9851 9.04666C19.999 9.07514 20.0035 9.10734 19.9978 9.13853C19.9921 9.16973 19.9766 9.19828 19.9534 9.21999ZM16.2218 8.88332C16.2218 8.21166 14.0951 7.64999 11.2659 7.51916V5.99582H14.7543V3.67082H5.25677V5.99582H8.74427V7.51999C5.90927 7.64999 3.77761 8.21166 3.77761 8.88416C3.77761 9.55749 5.90927 10.1175 8.74427 10.2492V15.1342H11.2651V10.2475C14.0934 10.1167 16.2218 9.55582 16.2218 8.88332Z" fill="#219F70"/>
</g>
<defs>
<clipPath id="clip0_2497_2765">
<rect width="20" height="20" fill="white"/>
</clipPath>
</defs>
</svg>
