<svg width="100" height="22" viewBox="0 0 100 22" fill="none" xmlns="http://www.w3.org/2000/svg">
<g clip-path="url(#clip0_2252_4462)">
<path fill-rule="evenodd" clip-rule="evenodd" d="M9.2851 -0.000488281L-0.000244141 5.463V11.6049H5.58941L-0.00011696 14.8938V21.0408H6.14178L15.4323 15.5773V9.43027H9.83954L15.4322 6.1414V-0.000488281H9.2851Z" fill="url(#paint0_linear_2252_4462)"/>
<path fill-rule="evenodd" clip-rule="evenodd" d="M9.2851 -0.000488281L-0.000244141 5.463V11.6049H5.58941L-0.00011696 14.8938V21.0408H6.14178L15.4323 15.5773V9.43027H9.83954L15.4322 6.1414V-0.000488281H9.2851Z" fill="url(#paint1_linear_2252_4462)"/>
<path d="M15.4271 -0.000244141H9.28516V6.14165H15.4271V-0.000244141Z" fill="#251725"/>
<path d="M58.0838 15.5358C57.5297 15.5669 57.0688 15.5721 56.6959 15.5565C56.3231 15.5255 56.0382 15.4219 55.8466 15.2458C55.655 15.0646 55.5566 14.7849 55.5566 14.3965V9.74608H58.0838V6.97031H55.5566V3.83722L52.6721 5.541V14.3965C52.6721 15.9346 53.0761 16.9962 53.8787 17.5969C54.697 18.1925 56.1004 18.3789 58.0838 18.1562V15.541V15.5358Z" fill="#251725"/>
<path d="M35.5825 3.83722L32.698 5.53582V14.3965C32.698 15.9346 33.1019 16.9962 33.9046 17.5969C34.7229 18.1925 36.1263 18.3789 38.1097 18.1562V15.541C37.5556 15.5721 37.0947 15.5773 36.7218 15.5617C36.349 15.5306 36.0641 15.4271 35.8725 15.251C35.6809 15.0697 35.5825 14.7901 35.5825 14.4017V9.75126H38.1097V6.97549H35.5825V3.8424V3.83722Z" fill="#251725"/>
<path d="M48.1408 8.29046C47.2759 7.20294 46.0589 6.65918 44.495 6.65918C42.931 6.65918 41.7192 7.23401 40.6472 8.38367C39.5908 9.5178 39.0574 10.9109 39.0574 12.568C39.0574 14.2252 39.5856 15.6234 40.6472 16.7731C41.7192 17.9072 43.0035 18.4717 44.495 18.4717C46.0589 18.4717 47.2759 17.9279 48.1408 16.8404V18.161H51.0253V6.9699H48.1408V8.29046ZM47.2448 14.8466C46.6648 15.4266 45.9243 15.7167 45.0284 15.7167C44.1325 15.7167 43.3971 15.4266 42.8119 14.8466C42.2319 14.2511 41.9419 13.4898 41.9419 12.5629C41.9419 11.6359 42.2319 10.885 42.8119 10.305C43.3919 9.70941 44.1325 9.40905 45.0284 9.40905C45.9243 9.40905 46.6597 9.70941 47.2448 10.305C47.8404 10.885 48.1408 11.641 48.1408 12.5629C48.1408 13.4847 47.8404 14.2459 47.2448 14.8466Z" fill="#251725"/>
<path d="M31.0099 11.5329C30.8597 11.2636 30.6371 11.0047 30.3367 10.7509C30.0363 10.4972 29.7722 10.2952 29.534 10.145C29.3113 9.99486 28.9799 9.8395 28.5501 9.67378C28.1306 9.49253 27.7991 9.36824 27.5454 9.29574C27.3072 9.2077 26.9498 9.08859 26.4734 8.93841C25.3082 8.58109 24.5211 8.25483 24.1016 7.95447C23.6976 7.64375 23.4957 7.23981 23.4957 6.74784C23.4957 6.28694 23.6769 5.91407 24.0343 5.62925C24.4071 5.32888 24.9146 5.18388 25.5568 5.18388C26.9291 5.18388 27.9286 5.85711 28.5552 7.19838L31.1497 5.70175C30.6112 4.59869 29.8603 3.73903 28.8918 3.12795C27.939 2.50133 26.8256 2.19061 25.5568 2.19061C24.1378 2.19061 22.926 2.61526 21.911 3.46456C20.9115 4.29833 20.4144 5.42728 20.4144 6.84105C20.4144 7.55571 20.5387 8.18233 20.7924 8.72091C21.0462 9.25949 21.4087 9.70486 21.8903 10.0622C22.3823 10.404 22.8691 10.6836 23.3455 10.8908C23.8375 11.0979 24.433 11.3102 25.1373 11.5174C26.4061 11.8747 27.2865 12.2113 27.7784 12.522C28.2704 12.8224 28.519 13.2471 28.519 13.796C28.519 14.2724 28.317 14.666 27.9131 14.9819C27.5091 15.2926 26.8773 15.4532 26.0125 15.4532C24.2207 15.4532 23.0244 14.6557 22.4133 13.0606L19.7722 14.6039C20.2072 15.795 20.9478 16.7427 22.0094 17.447C23.0658 18.1305 24.3709 18.4775 25.9245 18.4775C27.6075 18.4775 28.9747 18.0529 30.0156 17.2036C31.0721 16.3543 31.6055 15.2046 31.6055 13.7598C31.6055 13.3144 31.5433 12.9001 31.4242 12.5272C31.3206 12.1388 31.186 11.8126 31.0203 11.5433L31.0099 11.5329Z" fill="#251725"/>
<path d="M87.3484 6.9707H84.4639V18.1566H87.3484V6.9707Z" fill="#251725"/>
<path d="M95.9086 12.429L99.8185 6.9707H96.5094L94.2515 10.1245L91.9936 6.9707H88.6585L92.5736 12.4497L88.4824 18.1566H91.8123L94.2515 14.7542L96.6647 18.1566H99.9998L95.9086 12.429Z" fill="#251725"/>
<path d="M81.719 4.01856C80.6885 3.00354 79.4249 2.49603 77.9179 2.49603H72.0815V18.1511H75.168V13.0087H77.9179C79.4249 13.0087 80.6937 12.5012 81.719 11.4862C82.7496 10.4712 83.2623 9.22829 83.2623 7.75237C83.2623 6.27646 82.7496 5.0284 81.719 4.01856ZM79.5388 9.45615C79.1038 9.90152 78.5601 10.1294 77.9075 10.1294H75.1577V5.38573H77.9075C78.5652 5.38573 79.109 5.60841 79.5388 6.05895C79.9738 6.50432 80.1861 7.07397 80.1861 7.75755C80.1861 8.44114 79.9686 8.99525 79.5388 9.45615Z" fill="#251725"/>
<path d="M67.7161 14.7327C67.1516 15.4784 66.3127 15.8513 65.2096 15.8513C63.4955 15.8513 62.4442 15.1522 62.0558 13.7488H70.4867C70.5592 13.3293 70.6006 12.9357 70.6006 12.5629C70.6006 10.8901 70.062 9.49191 68.9901 8.35778C67.9336 7.22365 66.582 6.65918 64.9403 6.65918C63.2107 6.65918 61.7917 7.22365 60.6887 8.35778C59.5856 9.47637 59.0315 10.8798 59.0315 12.5629C59.0315 14.2459 59.5908 15.67 60.7094 16.7886C61.828 17.9072 63.3091 18.4665 65.163 18.4665C67.3122 18.4665 68.9383 17.669 70.0413 16.074L67.7161 14.7327ZM63.0191 9.85441C63.5266 9.45048 64.1687 9.24851 64.9403 9.24851C65.598 9.24851 66.178 9.43494 66.6856 9.8078C67.2086 10.1807 67.5504 10.7451 67.7161 11.5064H62.0144C62.1801 10.7917 62.5116 10.2376 63.0191 9.84923V9.85441Z" fill="#251725"/>
<path d="M87.3484 2.62573H84.4639V5.51025H87.3484V2.62573Z" fill="#251725"/>
</g>
<defs>
<linearGradient id="paint0_linear_2252_4462" x1="-2.85191" y1="8.10231" x2="17.2891" y2="12.4137" gradientUnits="userSpaceOnUse">
<stop stop-color="#DF87F1"/>
<stop offset="1" stop-color="#219F70"/>
</linearGradient>
<linearGradient id="paint1_linear_2252_4462" x1="15.5888" y1="-0.000488696" x2="6.21535" y2="23.5182" gradientUnits="userSpaceOnUse">
<stop offset="0.2" stop-color="#DF87F1"/>
<stop offset="0.8" stop-color="#219F70"/>
</linearGradient>
<clipPath id="clip0_2252_4462">
<rect width="100" height="21.0409" fill="white"/>
</clipPath>
</defs>
</svg>
