<?xml version="1.0" standalone="no"?>
<!DOCTYPE svg PUBLIC "-//W3C//DTD SVG 20010904//EN"
 "http://www.w3.org/TR/2001/REC-SVG-20010904/DTD/svg10.dtd">
<svg version="1.0" xmlns="http://www.w3.org/2000/svg"
 width="3200.000000pt" height="3200.000000pt" viewBox="0 0 3200.000000 3200.000000"
 preserveAspectRatio="xMidYMid meet">
<metadata>
Created by potrace 1.14, written by Peter Selinger 2001-2017
</metadata>
<g transform="translate(0.000000,3200.000000) scale(0.100000,-0.100000)"
fill="#000000" stroke="none">
<path d="M2925 19494 c-22 -13 -71 -42 -110 -64 -38 -22 -79 -46 -90 -53 -98
-60 -126 -77 -129 -77 -2 0 -35 -19 -72 -41 -37 -23 -172 -102 -298 -177 -308
-180 -371 -217 -506 -297 -63 -37 -135 -79 -160 -93 -25 -14 -67 -39 -95 -57
-27 -17 -84 -50 -125 -74 -41 -23 -102 -58 -135 -78 -158 -95 -302 -180 -320
-191 -11 -6 -99 -57 -195 -114 -96 -56 -184 -108 -195 -114 -112 -63 -341
-200 -343 -206 -2 -4 -8 -8 -14 -8 -5 0 -38 -17 -73 -37 l-65 -38 0 -981 c0
-777 3 -983 13 -986 6 -2 405 -4 885 -3 479 0 872 -2 872 -5 0 -5 -159 -100
-240 -143 -19 -11 -42 -25 -51 -33 -8 -8 -18 -14 -21 -14 -3 0 -118 -66 -254
-147 -137 -80 -284 -167 -327 -192 -43 -25 -95 -56 -115 -68 -20 -11 -48 -28
-62 -35 -14 -8 -115 -68 -225 -133 -110 -65 -262 -154 -338 -199 l-137 -80 0
-983 c0 -541 3 -983 8 -984 4 0 447 0 984 -1 l977 0 83 48 c45 27 91 54 100
59 10 6 113 66 230 135 116 69 218 126 225 128 7 2 13 8 13 13 0 5 5 9 11 9 6
0 31 14 56 30 24 17 47 30 50 30 5 0 98 55 148 88 11 7 32 18 48 25 15 6 27
15 27 19 0 4 4 8 9 8 5 0 76 40 158 88 81 48 190 112 241 142 51 30 105 62
120 71 29 17 185 108 241 141 44 25 252 147 271 158 8 5 42 26 75 45 33 20 67
40 75 45 8 5 60 36 115 68 55 32 168 98 250 147 83 48 193 113 245 143 52 31
114 67 138 81 l42 26 -1 83 c-1 45 1 85 3 88 3 3 2 21 -2 40 -4 19 -5 36 -1
38 3 2 4 57 1 121 -3 64 -2 119 1 121 4 2 3 20 -1 39 -4 19 -5 37 -1 39 3 2 4
57 1 121 -3 64 -2 119 1 121 4 2 3 20 -1 39 -4 19 -5 37 -1 39 3 2 4 57 1 121
-3 64 -2 119 1 121 4 2 3 20 -1 39 -4 19 -5 37 -1 39 3 2 4 57 1 121 -3 64 -2
119 1 121 4 2 3 20 -1 39 -4 19 -5 37 -1 39 3 2 4 57 1 121 -3 64 -2 119 1
121 4 2 3 20 -1 39 -4 19 -5 37 -1 39 3 2 5 30 3 63 l-4 58 -889 -1 c-692 -1
-885 2 -871 11 29 20 214 130 262 156 25 13 47 27 50 30 3 4 25 17 49 30 24
13 51 29 60 34 9 6 45 27 81 48 36 21 74 43 85 50 36 22 96 58 128 76 18 10
110 64 204 120 95 55 177 101 183 101 5 0 10 4 10 9 0 5 10 13 23 16 12 4 32
17 45 29 13 11 24 19 25 17 1 -3 13 2 27 11 30 20 287 171 350 206 25 14 57
33 72 43 14 11 29 19 32 19 4 0 22 10 41 23 l35 22 0 983 0 982 -987 -1 -988
0 -40 -25z"/>
<path d="M7970 18809 c-111 -14 -133 -17 -190 -29 -30 -6 -65 -13 -77 -16 -23
-4 -198 -60 -223 -71 -8 -3 -17 -7 -20 -7 -3 -1 -57 -27 -121 -60 -231 -117
-427 -280 -559 -465 -65 -90 -107 -167 -149 -274 -34 -86 -72 -227 -65 -239 3
-4 1 -8 -3 -8 -5 0 -9 -8 -10 -17 0 -10 -4 -56 -9 -103 -14 -137 -8 -403 11
-470 2 -8 7 -31 11 -50 3 -19 7 -39 8 -45 2 -5 6 -23 10 -40 4 -16 11 -39 16
-50 4 -11 14 -36 21 -55 75 -207 236 -410 427 -539 50 -34 96 -61 101 -61 5 0
11 -4 13 -8 11 -28 432 -233 461 -224 4 1 7 -2 7 -8 0 -6 4 -9 8 -8 13 4 186
-56 194 -67 4 -5 8 -7 8 -3 0 4 19 0 43 -8 23 -9 51 -17 62 -20 12 -2 46 -12
78 -23 31 -11 57 -17 57 -14 0 3 6 1 13 -5 7 -6 24 -13 37 -15 14 -2 32 -6 40
-9 15 -6 97 -30 115 -34 6 -1 71 -23 145 -49 474 -166 644 -294 688 -516 10
-51 9 -147 -3 -199 -32 -145 -162 -289 -315 -349 -70 -27 -208 -59 -285 -67
-153 -14 -377 -7 -479 16 -22 5 -52 11 -66 14 -84 16 -320 109 -320 126 0 4
-8 10 -17 14 -25 8 -57 29 -66 44 -4 6 -13 12 -19 12 -20 0 -175 167 -228 245
-29 43 -74 124 -101 181 -55 114 -49 112 -127 56 -17 -13 -32 -21 -32 -18 0 3
-31 -15 -69 -39 -38 -25 -72 -45 -75 -45 -4 0 -23 -11 -44 -24 -20 -12 -41
-23 -46 -24 -5 0 -12 -5 -15 -10 -3 -5 -24 -19 -46 -31 -22 -11 -62 -34 -90
-51 -27 -17 -61 -36 -75 -43 -14 -6 -29 -15 -35 -20 -15 -12 -196 -117 -202
-117 -2 0 -12 -7 -20 -16 -15 -14 -13 -22 17 -92 18 -42 51 -110 72 -151 54
-100 61 -113 75 -128 6 -7 15 -22 18 -33 3 -11 11 -20 16 -20 5 0 9 -7 9 -15
0 -8 5 -15 10 -15 6 0 10 -5 10 -11 0 -6 6 -16 13 -23 6 -7 23 -27 37 -45 40
-53 200 -214 265 -267 33 -27 62 -52 63 -56 2 -5 10 -8 18 -8 8 0 14 -4 14
-10 0 -5 7 -10 15 -10 8 0 15 -4 15 -10 0 -5 4 -10 9 -10 5 0 32 -16 61 -35
47 -31 180 -99 270 -138 48 -20 156 -57 163 -56 1 0 16 -5 32 -11 17 -7 38
-14 48 -16 9 -2 26 -6 37 -9 11 -3 29 -7 40 -10 26 -7 48 -11 90 -19 19 -3 46
-8 60 -11 14 -3 48 -8 75 -11 28 -3 77 -9 110 -14 62 -9 574 -7 610 3 11 2 47
8 80 12 32 3 62 8 65 10 3 2 23 6 45 9 22 4 64 13 93 20 28 8 52 12 52 9 0 -3
6 -1 13 5 6 5 28 13 47 17 79 17 268 98 384 164 142 82 365 270 431 365 11 15
25 33 30 40 30 34 157 255 154 269 -1 3 12 40 22 62 8 20 41 131 44 150 1 6 3
12 4 15 2 3 4 16 6 30 2 14 8 59 15 100 11 74 16 335 6 377 -2 11 -8 43 -12
70 -10 70 -9 68 -48 196 -67 218 -134 335 -271 472 -129 128 -290 247 -434
320 -76 38 -204 92 -229 96 -4 0 -11 4 -17 9 -12 10 -126 54 -225 86 -41 14
-83 29 -92 34 -10 6 -22 10 -27 10 -5 0 -22 5 -38 11 -15 6 -29 10 -30 10 -2
0 -22 7 -45 15 -24 9 -50 17 -58 19 -8 2 -15 4 -15 5 0 1 -7 3 -15 5 -31 6
-408 133 -475 160 -204 80 -343 156 -415 226 -78 77 -130 184 -136 279 -1 30
-4 57 -5 60 -2 7 -2 9 5 66 27 233 246 405 546 430 92 8 223 3 310 -11 86 -15
260 -73 260 -87 0 -5 7 -8 15 -8 16 0 110 -59 160 -100 41 -34 165 -163 165
-172 0 -3 6 -13 14 -20 15 -16 110 -162 107 -166 -1 -2 28 -63 34 -70 2 -2 30
11 62 29 32 18 67 37 78 43 11 6 22 13 25 16 9 9 84 51 113 63 15 6 27 15 27
19 0 4 4 8 8 8 5 0 75 38 156 85 81 47 152 85 157 85 5 0 9 3 9 8 0 4 21 18
48 32 26 13 70 38 99 55 l52 31 -41 75 c-22 41 -50 91 -61 112 -12 20 -24 37
-29 37 -4 0 -8 5 -8 11 0 18 -53 92 -143 200 -175 210 -394 380 -648 502 -97
47 -212 93 -253 101 -28 6 -72 18 -86 23 -8 3 -24 8 -35 9 -11 2 -40 8 -65 14
-25 5 -65 12 -90 15 -25 4 -58 9 -75 11 -55 9 -399 10 -465 3z"/>
<path d="M23082 18719 c-15 -5 -16 -171 -17 -2495 -1 -1369 1 -2495 3 -2501 3
-10 111 -13 492 -13 382 0 489 3 492 13 2 6 3 377 3 824 l-1 812 28 -3 c15 -2
28 1 28 6 0 5 5 6 12 2 17 -11 211 -11 226 -1 6 5 12 6 12 1 0 -5 51 -8 112
-6 62 1 118 2 123 2 6 0 70 -1 143 -3 72 -1 132 2 132 7 0 5 6 4 13 -1 9 -6
162 -10 162 -3 0 0 25 3 55 5 119 9 201 23 320 55 71 19 144 42 155 50 6 4 21
11 35 15 57 17 300 149 320 174 3 3 25 20 50 36 51 35 300 277 300 293 0 6 4
12 9 14 12 5 131 173 131 187 0 6 5 11 12 11 6 0 8 3 5 6 -4 4 1 19 11 33 20
29 65 120 68 136 1 6 12 35 24 65 21 53 46 137 56 189 3 14 7 28 9 31 3 4 7
32 11 61 3 30 9 58 12 63 13 22 18 322 7 431 -9 90 -15 138 -20 155 -2 8 -6
26 -9 40 -21 121 -121 397 -148 408 -4 2 -8 12 -8 22 0 10 -4 20 -8 22 -4 2
-21 26 -36 53 -52 90 -139 198 -246 305 -106 106 -119 117 -220 190 -30 22
-60 43 -65 48 -85 62 -396 197 -475 206 -9 1 -21 6 -28 10 -7 4 -16 6 -19 3
-3 -3 -15 -2 -27 2 -12 5 -44 12 -71 15 -28 4 -59 9 -70 12 -11 2 -53 6 -93 8
-40 2 -76 6 -79 9 -3 3 -16 2 -29 -3 -13 -5 -24 -6 -24 -2 0 6 -79 8 -105 2
-5 -1 -12 -2 -15 -1 -16 6 -90 5 -90 -1 0 -4 -10 -4 -22 0 -26 9 -68 8 -92 -1
-8 -3 -17 -3 -20 1 -2 4 -57 6 -123 5 -144 -3 -146 -3 -208 0 -27 1 -60 -1
-72 -5 -13 -4 -23 -4 -23 0 0 4 -18 7 -40 7 -22 0 -40 -3 -40 -7 0 -4 -7 -5
-16 -1 -24 9 -66 10 -91 1 -12 -4 -24 -4 -27 0 -2 4 -57 6 -123 5 -144 -3
-146 -3 -208 0 -27 1 -60 -1 -72 -5 -13 -4 -23 -4 -23 0 0 4 -18 7 -40 7 -22
0 -40 -3 -40 -7 0 -4 -10 -4 -22 0 -26 8 -68 8 -91 -1 -8 -3 -18 -3 -21 0 -8
8 -232 10 -254 2z m2013 -938 c121 -30 211 -74 295 -144 119 -98 200 -224 241
-372 23 -85 32 -282 16 -376 -25 -153 -110 -317 -211 -409 -15 -14 -41 -37
-57 -52 -16 -16 -33 -28 -38 -28 -5 0 -19 -9 -32 -19 -26 -20 -132 -67 -170
-75 -13 -3 -35 -8 -49 -11 -14 -3 -47 -8 -75 -11 -27 -2 -63 -6 -78 -7 -16 -2
-30 0 -33 5 -3 5 -10 5 -17 1 -15 -9 -60 -9 -75 1 -7 4 -12 4 -12 -1 0 -10
-52 -9 -68 1 -7 4 -12 4 -12 -1 0 -10 -52 -9 -68 1 -7 4 -17 4 -24 0 -17 -11
-78 -11 -78 -1 0 4 -5 5 -11 2 -5 -4 -36 -6 -67 -6 -75 2 -81 2 -124 -2 -21
-1 -38 1 -38 6 0 4 -5 5 -11 2 -5 -4 -36 -6 -67 -6 -67 1 -83 1 -137 -1 l-40
-2 -3 760 -2 761 497 -2 c360 -1 512 -5 548 -14z"/>
<path d="M27048 18683 c-10 -3 -18 -12 -19 -21 0 -21 0 -693 1 -817 l0 -90
457 0 458 1 3 461 2 461 -29 4 c-16 2 -38 1 -50 -3 -11 -5 -23 -4 -26 1 -3 5
-18 5 -33 1 -15 -4 -38 -5 -52 -1 -14 4 -35 3 -47 -1 -12 -5 -25 -4 -28 1 -3
5 -18 5 -33 1 -15 -4 -38 -5 -52 -1 -14 4 -35 3 -46 -1 -12 -4 -24 -6 -26 -3
-3 2 -31 4 -64 4 -67 0 -88 0 -106 1 -7 0 -73 0 -145 -1 -73 -1 -136 0 -140 2
-5 3 -16 3 -25 1z"/>
<path d="M11340 18266 c-19 -13 -54 -34 -77 -47 -23 -13 -111 -64 -194 -114
-84 -49 -160 -93 -168 -98 -9 -4 -29 -16 -46 -27 -16 -10 -63 -38 -104 -62
-107 -62 -120 -69 -179 -105 -29 -18 -57 -33 -62 -33 -6 0 -10 -4 -10 -10 0
-5 -6 -10 -14 -10 -8 0 -17 -8 -19 -17 -8 -28 0 -3034 7 -3073 4 -19 8 -48 10
-65 2 -16 7 -52 12 -80 4 -27 8 -52 9 -55 0 -3 4 -11 9 -18 4 -7 6 -16 3 -18
-6 -6 50 -168 78 -229 81 -172 228 -322 385 -393 57 -27 214 -78 260 -86 19
-3 46 -8 60 -11 14 -3 43 -7 65 -10 22 -3 58 -8 80 -10 22 -3 84 -7 137 -9 53
-2 101 -7 107 -11 6 -3 11 -3 11 2 0 4 46 8 103 9 95 1 279 11 337 19 14 2 32
3 40 4 13 1 15 53 15 419 l0 417 -75 -2 c-270 -7 -446 -2 -472 14 -5 2 -16 6
-26 8 -31 6 -106 44 -132 67 -53 46 -85 110 -97 193 -3 22 -6 384 -7 805 l0
765 54 3 c30 1 62 2 70 2 8 0 40 1 70 1 30 1 62 1 70 0 32 -2 155 -2 160 0 3
1 10 0 15 -1 6 -1 37 -1 70 0 33 1 67 1 75 1 33 -2 157 -1 190 2 l35 2 1 430
c0 237 -2 435 -4 441 -2 9 -106 12 -380 12 -207 0 -388 1 -402 1 l-25 1 1 500
c0 275 -2 500 -5 499 -3 0 -22 -10 -41 -23z"/>
<path d="M17735 18265 c-22 -13 -47 -28 -55 -32 -20 -9 -367 -214 -448 -264
-35 -22 -65 -39 -67 -39 -3 0 -52 -29 -110 -65 -57 -36 -107 -65 -111 -65 -3
0 -24 -13 -47 -29 l-42 -29 1 -1478 c2 -1372 4 -1576 19 -1662 3 -18 7 -47 10
-64 3 -18 13 -61 21 -96 9 -35 17 -68 18 -75 2 -7 7 -21 11 -32 5 -11 17 -42
27 -70 56 -144 154 -278 273 -371 98 -77 302 -157 458 -179 27 -3 59 -9 70
-11 29 -7 117 -14 192 -18 33 -1 66 -5 73 -10 6 -4 12 -4 12 1 0 4 62 8 138 9
121 0 172 3 337 18 22 2 47 4 56 5 13 1 15 48 15 419 l-1 417 -85 -2 c-215 -4
-280 -4 -350 0 -228 14 -350 117 -367 309 -8 102 -9 1488 -1 1488 4 0 3 11 -2
25 -6 16 -6 27 2 31 13 9 214 8 228 -1 5 -3 10 -3 10 2 0 9 123 8 146 -1 8 -3
14 -2 14 2 0 4 27 7 60 7 33 0 60 -3 60 -7 0 -4 11 -3 25 2 13 5 27 5 29 1 3
-5 24 -5 46 -1 22 4 43 3 46 -1 3 -5 11 -6 17 -2 6 4 37 7 67 6 l56 -1 0 444
0 444 -404 2 -405 3 0 498 c1 273 0 497 -1 497 0 0 -19 -11 -41 -25z"/>
<path d="M14078 17384 c-3 -2 -29 -6 -59 -8 -30 -3 -54 -5 -54 -6 0 -2 -23 -7
-70 -14 -22 -4 -65 -13 -95 -22 -30 -8 -63 -17 -73 -19 -9 -2 -22 -7 -27 -10
-5 -3 -18 -8 -29 -10 -55 -10 -294 -139 -386 -207 -90 -67 -249 -216 -331
-309 -40 -45 -135 -174 -159 -216 -11 -18 -24 -33 -29 -33 -5 0 -6 -3 -3 -6 4
-4 -2 -19 -12 -33 -16 -22 -103 -195 -107 -211 0 -3 -4 -12 -7 -20 -69 -165
-121 -407 -132 -613 -2 -37 -7 -71 -10 -76 -3 -6 -1 -12 5 -16 6 -4 7 -11 4
-17 -8 -13 -8 -71 1 -193 10 -138 12 -156 23 -220 6 -33 13 -71 16 -85 20
-119 108 -358 176 -480 23 -41 44 -83 47 -92 3 -10 9 -18 14 -18 5 0 9 -5 9
-10 0 -12 41 -73 53 -78 4 -2 7 -10 7 -18 0 -8 3 -14 8 -14 4 0 18 -17 32 -37
60 -88 258 -288 340 -343 13 -8 35 -24 49 -35 48 -37 90 -65 97 -65 4 0 15 -6
23 -14 17 -14 123 -69 201 -104 40 -18 151 -55 205 -69 47 -12 103 -23 140
-29 22 -3 51 -8 65 -11 14 -3 111 -7 215 -8 178 -2 267 6 425 38 55 11 197 61
269 93 163 75 326 197 438 328 17 21 35 36 40 34 4 -2 9 -88 9 -193 1 -104 2
-194 3 -200 1 -8 618 -12 898 -5 l21 0 0 1790 0 1790 -459 0 c-360 0 -459 -3
-460 -12 -1 -7 -3 -96 -4 -198 -1 -102 -3 -188 -4 -193 0 -4 -45 37 -98 92
-108 108 -215 187 -338 249 -81 40 -132 63 -150 68 -5 1 -39 12 -75 24 -36 11
-81 23 -100 27 -19 3 -39 6 -45 8 -35 8 -86 17 -120 21 -50 7 -392 14 -397 8z
m517 -888 c131 -31 170 -44 245 -79 130 -60 266 -167 350 -273 46 -58 70 -94
70 -102 0 -6 4 -12 9 -14 12 -5 67 -127 91 -205 21 -68 23 -80 36 -183 9 -70
9 -231 0 -290 -4 -25 -10 -60 -13 -79 -2 -19 -9 -45 -14 -58 -5 -13 -7 -23 -4
-23 2 0 -9 -31 -25 -69 -15 -38 -26 -72 -22 -75 3 -3 0 -6 -6 -6 -7 0 -12 -6
-12 -14 0 -27 -118 -190 -185 -258 -113 -113 -258 -197 -405 -237 -113 -30
-143 -34 -289 -36 -189 -2 -319 24 -466 96 -75 36 -113 57 -125 69 -3 3 -23
18 -45 35 -34 25 -102 91 -149 145 -74 86 -169 289 -191 410 -22 123 -28 370
-10 440 3 14 8 36 10 50 11 65 44 170 62 197 8 13 12 23 8 23 -3 0 3 13 14 29
12 16 21 32 21 35 0 9 51 86 80 121 209 252 464 366 800 360 74 -1 149 -5 165
-9z"/>
<path d="M20598 17385 c-2 -2 -32 -6 -68 -9 -36 -3 -76 -8 -90 -11 -14 -3 -41
-8 -60 -11 -95 -18 -147 -31 -250 -64 -133 -43 -265 -103 -337 -152 -23 -15
-44 -28 -48 -28 -3 0 -50 -32 -103 -72 -107 -79 -293 -260 -362 -353 -25 -33
-47 -62 -50 -65 -41 -40 -172 -286 -218 -410 -35 -92 -83 -266 -88 -317 -1
-17 -8 -59 -14 -92 -6 -34 -8 -66 -5 -71 3 -6 2 -10 -3 -10 -5 0 -8 -91 -7
-217 2 -201 5 -243 20 -343 7 -42 39 -190 55 -245 6 -22 12 -47 15 -57 2 -9
11 -30 19 -47 9 -16 16 -36 16 -44 0 -20 131 -274 174 -336 96 -140 271 -332
371 -406 22 -17 46 -36 53 -43 24 -22 100 -72 111 -72 6 0 11 -3 11 -8 0 -4 8
-12 19 -17 262 -140 451 -207 670 -240 20 -3 46 -7 56 -9 106 -20 514 -28 635
-12 87 11 113 15 140 21 14 3 41 8 60 11 70 11 247 60 265 73 5 4 30 14 55 21
25 7 52 20 61 27 8 7 20 13 25 13 11 0 117 52 124 61 3 3 20 15 39 25 18 10
42 24 53 30 93 54 312 258 398 370 60 78 71 97 64 104 -8 7 -35 23 -114 67
-14 8 -38 23 -55 33 -16 11 -37 23 -45 27 -8 3 -98 55 -200 114 -102 58 -201
116 -220 127 -19 11 -49 27 -66 37 l-30 18 -80 -80 c-81 -82 -158 -137 -248
-178 -59 -26 -113 -47 -120 -47 -3 1 -20 -4 -38 -10 -35 -10 -53 -14 -108 -23
-19 -2 -46 -7 -60 -10 -76 -15 -356 -2 -464 21 -11 3 -32 7 -46 10 -42 8 -174
55 -197 70 -12 8 -29 14 -38 14 -8 0 -15 5 -15 10 0 6 -7 10 -15 10 -8 0 -15
5 -15 10 0 6 -5 10 -11 10 -29 0 -202 163 -215 202 -3 10 -9 18 -14 18 -11 0
-81 140 -105 210 -11 30 -23 60 -28 67 -7 10 89 17 203 14 8 0 51 0 95 0 44 0
85 1 90 1 6 0 37 -2 70 -3 33 -2 66 0 73 5 6 4 16 5 21 1 5 -3 72 -5 148 -5
76 1 183 0 238 0 55 -1 105 -2 110 -2 6 0 44 1 85 1 41 0 82 0 90 0 8 0 51 0
95 0 44 0 98 0 121 -1 22 -1 45 2 52 6 7 4 16 5 21 1 8 -4 141 -6 311 -4 8 1
42 -1 75 -2 33 -2 65 -1 70 2 6 3 52 3 103 0 50 -4 92 -4 92 -1 0 3 27 3 61 0
33 -3 63 -2 66 2 2 5 13 6 22 3 10 -3 52 -5 92 -5 41 1 92 0 114 -1 22 -1 47
-1 55 0 8 0 38 1 67 1 29 0 54 4 57 8 7 12 15 57 22 128 3 32 7 75 10 94 5 40
5 293 0 330 -2 14 -7 56 -10 93 -4 37 -9 78 -12 90 -2 12 -7 38 -10 57 -3 19
-9 49 -14 65 -5 17 -14 50 -20 75 -7 25 -23 77 -36 115 -13 39 -24 73 -25 77
0 4 -15 39 -34 78 -19 38 -35 72 -35 75 0 3 -18 35 -40 71 -22 36 -40 68 -40
70 0 4 -98 142 -114 161 -6 7 -22 27 -36 45 -27 35 -224 234 -256 258 -65 50
-134 99 -169 120 -22 13 -42 27 -45 30 -5 7 -40 23 -52 24 -3 1 -10 5 -14 9
-7 6 -83 45 -104 52 -3 1 -16 6 -30 12 -31 13 -174 65 -177 64 -2 0 -8 1 -15
4 -21 7 -169 36 -213 41 -22 3 -51 8 -65 11 -27 6 -417 13 -422 8z m211 -829
c64 1 116 -5 201 -21 37 -7 188 -63 205 -75 6 -4 32 -20 58 -35 59 -32 85 -53
157 -125 56 -55 110 -122 110 -136 0 -4 7 -15 14 -23 32 -35 122 -283 110
-302 -2 -3 -16 -4 -31 -2 -16 2 -32 4 -38 4 -5 -1 -38 -2 -72 -3 -35 -2 -63 1
-63 5 0 5 -5 5 -12 1 -16 -10 -148 -11 -148 -1 0 5 -6 5 -12 0 -17 -10 -97
-11 -126 -1 -13 4 -21 5 -19 0 6 -9 -145 -8 -161 2 -7 4 -12 4 -12 -1 0 -4
-25 -8 -55 -8 -30 0 -55 4 -55 8 0 5 -5 5 -12 1 -16 -10 -78 -11 -78 0 0 5 -6
4 -12 -1 -7 -5 -64 -7 -125 -6 -62 2 -119 3 -125 3 -7 0 -39 -1 -70 -3 -32 -1
-58 1 -58 6 0 4 -5 5 -12 1 -16 -10 -78 -11 -78 -1 0 5 -6 5 -12 1 -18 -11
-240 -11 -255 0 -7 4 -13 5 -13 0 0 -5 -33 -8 -72 -7 -91 2 -106 3 -92 9 7 3
10 14 7 24 -3 11 -1 20 5 20 6 0 9 9 7 20 -2 11 0 22 5 25 4 3 11 17 15 32 16
65 91 205 140 262 80 94 160 160 269 221 36 20 142 63 148 60 2 -1 15 3 31 9
25 10 39 13 107 26 14 2 52 7 84 9 32 3 61 8 65 11 3 4 7 3 8 -2 2 -4 34 -8
72 -7z"/>
<path d="M27030 17273 c-1 -29 -1 -3464 -1 -3515 l1 -48 460 0 460 0 0 1790 0
1790 -460 0 c-431 0 -460 -1 -460 -17z"/>
<path d="M28380 17281 c0 -5 11 -23 25 -39 14 -17 25 -33 25 -36 0 -3 6 -14
14 -23 32 -39 86 -113 86 -118 0 -3 7 -13 15 -22 8 -10 37 -49 64 -88 27 -38
57 -79 65 -90 9 -11 62 -85 118 -165 56 -80 106 -146 110 -148 4 -2 8 -8 8
-13 0 -5 7 -17 15 -26 8 -10 91 -126 185 -258 94 -132 177 -248 185 -258 8 -9
15 -21 15 -26 0 -5 4 -11 8 -13 5 -1 30 -34 57 -73 56 -81 130 -185 142 -200
18 -22 103 -146 103 -150 0 -4 -62 -93 -83 -120 -4 -5 -40 -55 -79 -110 -40
-55 -76 -101 -80 -103 -4 -2 -8 -9 -8 -15 0 -7 -10 -24 -23 -39 -12 -15 -33
-44 -47 -63 -14 -20 -36 -51 -50 -69 -14 -19 -31 -42 -38 -52 -7 -11 -42 -59
-77 -109 -36 -49 -88 -122 -115 -161 -27 -39 -56 -78 -64 -87 -9 -9 -16 -18
-16 -21 0 -4 -155 -223 -210 -296 -20 -26 -180 -251 -202 -284 -7 -10 -23 -30
-35 -44 -13 -14 -23 -28 -23 -32 0 -6 -78 -116 -129 -182 -12 -14 -21 -29 -21
-32 0 -3 239 -5 532 -4 l532 3 65 91 c36 50 74 102 83 115 10 13 74 103 142
199 69 96 129 180 134 185 5 6 17 24 28 40 10 17 21 32 24 35 3 3 14 18 25 34
11 16 30 43 43 60 12 17 34 49 49 71 14 22 33 46 40 54 8 8 26 33 40 55 15 22
31 46 37 53 6 6 24 30 40 52 l29 39 45 -66 c25 -37 49 -68 54 -70 4 -2 8 -10
8 -17 0 -7 3 -15 8 -17 7 -3 32 -36 85 -116 17 -26 34 -49 37 -52 6 -4 79
-107 105 -148 14 -21 37 -51 53 -67 6 -8 12 -17 12 -20 0 -6 87 -131 118 -170
4 -5 28 -39 52 -75 25 -36 48 -67 51 -70 3 -3 36 -49 73 -102 l67 -98 534 0
534 0 -47 66 c-26 36 -51 73 -57 82 -5 9 -15 22 -22 29 -7 8 -20 27 -30 43 -9
17 -21 30 -25 30 -4 0 -8 6 -8 14 0 8 -3 16 -7 18 -5 2 -28 32 -52 68 -25 36
-48 67 -51 70 -3 3 -32 43 -64 89 -32 46 -62 89 -67 95 -34 43 -79 108 -79
115 0 5 -4 11 -8 13 -4 2 -23 25 -42 53 -19 27 -39 54 -43 60 -5 5 -75 105
-157 220 -82 116 -153 215 -158 220 -4 6 -28 39 -52 75 -25 36 -47 67 -50 70
-3 3 -61 84 -130 180 -68 96 -132 184 -142 196 -22 24 -28 14 166 284 50 69
92 127 95 130 4 3 11 13 16 22 12 20 320 451 352 493 13 17 28 35 33 42 6 7
10 15 10 17 0 3 7 14 15 23 8 10 71 97 139 193 68 96 128 180 133 185 5 6 38
52 73 104 36 51 77 108 93 126 15 18 27 37 27 43 0 6 4 12 8 14 5 2 23 24 41
51 l32 47 -529 0 -529 0 -29 -42 c-32 -48 -36 -53 -64 -87 -11 -13 -20 -27
-20 -31 0 -4 -10 -18 -22 -32 -21 -23 -83 -110 -192 -267 -22 -31 -42 -58 -45
-61 -3 -3 -22 -27 -41 -55 -19 -27 -38 -51 -42 -53 -4 -2 -8 -8 -8 -13 0 -6
-5 -15 -10 -22 -6 -7 -48 -64 -92 -127 -45 -63 -85 -117 -89 -120 -3 -3 -13
-19 -22 -36 -23 -45 -43 -59 -59 -42 -31 32 -67 86 -61 92 4 3 2 6 -4 6 -6 0
-29 28 -52 62 -65 94 -86 123 -92 128 -3 3 -21 27 -40 55 -18 27 -39 56 -46
65 -6 8 -72 101 -146 205 -74 105 -141 197 -148 206 -8 9 -18 23 -24 31 -5 9
-29 43 -53 77 l-43 61 -529 0 c-317 0 -530 -4 -530 -9z"/>
</g>
</svg>
